SplineFontDB: 3.0
FontName: Kodato-Regular
FullName: Kodato Regular
FamilyName: Kodato
Weight: Normal
Copyright: Copyright (c) 2009-12 by vernon adams. All rights reserved.
Version: 1.000;PS (version unavailable);hotconv 1.0.70;makeotf.lib2.5.58329 DEVELOPMENT
ItalicAngle: 0
UnderlinePosition: 0
UnderlineWidth: 0
Ascent: 1638
Descent: 410
sfntRevision: 0x00010000
LayerCount: 2
Layer: 0 0 "Back"  1
Layer: 1 0 "Fore"  0
XUID: [1021 332 1330122705 2716867]
FSType: 0
OS2Version: 3
OS2_WeightWidthSlopeOnly: 0
OS2_UseTypoMetrics: 1
CreationTime: 1354303443
ModificationTime: 1354332854
PfmFamily: 17
TTFWeight: 400
TTFWidth: 5
LineGap: 0
VLineGap: 0
Panose: 2 0 5 5 2 0 0 2 0 4
OS2TypoAscent: 1638
OS2TypoAOffset: 0
OS2TypoDescent: -410
OS2TypoDOffset: 0
OS2TypoLinegap: 0
OS2WinAscent: 1710
OS2WinAOffset: 0
OS2WinDescent: 408
OS2WinDOffset: 0
HheadAscent: 1638
HheadAOffset: 0
HheadDescent: 410
HheadDOffset: 0
OS2SubXSize: 1331
OS2SubYSize: 1228
OS2SubXOff: 0
OS2SubYOff: 153
OS2SupXSize: 1331
OS2SupYSize: 1228
OS2SupXOff: 0
OS2SupYOff: 716
OS2StrikeYSize: 0
OS2StrikeYPos: 780
OS2Vendor: 'newt'
OS2CodePages: 00000093.00000000
OS2UnicodeRanges: 00000007.00000000.00000000.00000000
Lookup: 258 0 0 "'kern' Horizontal Kerning lookup 0"  {"'kern' Horizontal Kerning lookup 0 subtable"  } ['kern' ('DFLT' <'dflt' > ) ]
DEI: 91125
LangName: 1033 "" "Kodato Regular" "" "1.000;newt;Kodato-Regular" "Kodato" "Version 1.000;PS (version unavailable);hotconv 1.0.70;makeotf.lib2.5.58329 DEVELOPMENT" "" "Kodato is a trademark of vernon adams." "Vernon Adams" "Vernon Adams" "Copyright (c) 2009 by vernon adams. All rights reserved." "newtypography.co.uk" "newtypography.co.uk" "SIL Open Font License (OFL)" "http://scripts.sil.org/cms/scripts/page.php?item_id+AD0A-OFL_web" "" "Kodato" "" "Kodato Regular" 
Encoding: UnicodeBmp
UnicodeInterp: none
NameList: Adobe Glyph List
DisplaySize: -48
AntiAlias: 1
FitToEm: 1
WinInfo: 50 25 12
BeginPrivate: 4
BlueValues 37 [-27 0 1300 1327 1595 1632 1710 1732]

StartChar: Eth
Encoding: 208 208 1
Width: 1449
Flags: W
LayerCount: 2
Fore
SplineSet
645 1298 m 1
 645 1299 l 2
 645 1336 667 1358 704 1358 c 2
 821 1358 l 2
 858 1358 880 1336 880 1299 c 2
 880 297 l 2
 880 260 858 238 821 238 c 2
 704 238 l 2
 667 238 645 260 645 297 c 2
 645 726 l 1
 703 726 l 2
 747 726 773 752 773 796 c 2
 773 798 l 2
 773 842 747 868 703 868 c 2
 645 868 l 1
 645 1298 l 1
1378 1205 m 1
 1378 1203 l 2
 1378 1230 1377 1258 1375 1288 c 0
 1368 1411 1305 1483 1211 1528 c 0
 1110 1577 980 1594 817 1594 c 2
 222 1594 l 2
 175 1594 147 1566 147 1519 c 2
 147 868 l 1
 123 868 l 2
 79 868 53 842 53 798 c 2
 53 796 l 2
 53 752 79 726 123 726 c 2
 147 726 l 1
 147 76 l 2
 147 29 175 1 222 1 c 2
 817 1 l 2
 980 1 1110 18 1210 67 c 0
 1331 126 1376 219 1376 393 c 1
 1376 393 l 1
 1378 394 l 1
 1378 394 l 1
 1378 1205 l 1
EndSplineSet
EndChar

StartChar: eth
Encoding: 240 240 2
Width: 1395
Flags: W
LayerCount: 2
Fore
SplineSet
306 1577 m 1
 305 1577 l 1
 293 1558 298 1539 318 1528 c 2
 352 1510 l 2
 386 1492 421 1471 456 1449 c 0
 484 1431 485 1402 458 1383 c 2
 360 1315 l 2
 323 1290 315 1253 337 1214 c 1
 338 1212 l 1
 359 1174 395 1166 431 1190 c 2
 596 1303 l 2
 615 1316 636 1314 652 1298 c 0
 661 1289 670 1279 679 1269 c 0
 706 1239 738 1201 754 1155 c 0
 764 1127 742 1097 712 1097 c 2
 624 1097 l 2
 471 1097 350 1075 259 1021 c 0
 110 933 73 761 73 525 c 0
 73 408 81 306 113 221 c 0
 192 12 415 -37 709 -37 c 0
 881 -37 1018 -17 1120 45 c 0
 1327 171 1338 471 1338 807 c 0
 1338 894 1328 975 1309 1050 c 0
 1258 1251 1157 1408 1034 1536 c 0
 1009 1562 1012 1591 1042 1612 c 2
 1102 1654 l 2
 1139 1679 1147 1716 1125 1755 c 1
 1124 1757 l 1
 1102 1794 1066 1802 1031 1778 c 2
 931 1709 l 2
 898 1686 866 1686 833 1710 c 0
 734 1781 629 1840 511 1889 c 1
 511 1889 l 1
 510 1887 l 1
 510 1887 l 1
 306 1577 l 1
761 298 m 2
 761 261 739 239 702 239 c 2
 699 239 l 2
 662 239 640 261 640 298 c 2
 640 769 l 2
 640 806 662 828 699 828 c 2
 702 828 l 2
 739 828 761 806 761 769 c 2
 761 298 l 2
EndSplineSet
EndChar

StartChar: Lslash
Encoding: 321 321 3
Width: 1534
Flags: W
LayerCount: 2
Fore
SplineSet
1246 0 m 1
 1245 3 l 1
 1292 3 1320 31 1320 78 c 2
 1320 167 l 2
 1320 214 1292 242 1245 242 c 2
 1039 242 l 2
 1002 242 980 264 980 301 c 2
 980 893 l 1
 1252 1037 l 2
 1297 1061 1319 1098 1319 1149 c 2
 1319 1335 l 2
 1319 1376 1288 1395 1252 1376 c 2
 980 1232 l 1
 980 1520 l 2
 980 1567 952 1595 905 1595 c 2
 453 1595 l 2
 406 1595 378 1567 378 1520 c 2
 378 912 l 1
 140 786 l 2
 95 762 73 725 73 674 c 2
 73 486 l 2
 73 445 104 426 140 445 c 2
 378 571 l 1
 378 75 l 2
 378 28 406 0 453 0 c 2
 1246 0 l 1
EndSplineSet
EndChar

StartChar: lslash
Encoding: 322 322 4
Width: 1145
Flags: W
LayerCount: 2
Fore
SplineSet
852 1634 m 2
 852 1681 824 1709 777 1709 c 2
 358 1709 l 2
 311 1709 283 1681 283 1634 c 2
 283 890 l 1
 135 820 l 2
 89 799 66 763 66 713 c 2
 66 616 l 2
 66 574 97 554 135 572 c 2
 283 642 l 1
 283 77 l 2
 283 30 311 2 358 2 c 2
 777 2 l 2
 824 2 852 30 852 77 c 2
 852 910 l 1
 1025 991 l 2
 1071 1012 1094 1048 1094 1098 c 2
 1094 1194 l 2
 1094 1236 1063 1256 1025 1238 c 2
 852 1157 l 1
 852 1634 l 2
EndSplineSet
EndChar

StartChar: Scaron
Encoding: 352 352 5
Width: 1580
Flags: W
LayerCount: 2
Fore
SplineSet
791 1706 m 2
 792 1706 l 2
 845 1706 900 1727 933 1778 c 2
 1196 2187 l 2
 1208 2206 1214 2224 1214 2240 c 0
 1214 2277 1186 2303 1151 2303 c 0
 1133 2303 1113 2296 1094 2281 c 2
 838 2083 l 2
 807 2059 774 2059 743 2083 c 2
 487 2281 l 2
 469 2295 450 2301 433 2301 c 0
 397 2301 367 2276 367 2239 c 0
 367 2224 373 2206 385 2187 c 2
 648 1778 l 2
 679 1730 736 1706 791 1706 c 2
805 -39 m 0
 1273 -39 1483 25 1483 489 c 0
 1483 910 1344 982 827 1034 c 0
 782 1039 706 1051 705 1090 c 0
 705 1091 705 1091 704 1091 c 2
 703 1093 l 2
 702 1093 702 1093 702 1094 c 2
 702 1260 l 2
 702 1298 724 1320 762 1320 c 2
 815 1320 l 2
 853 1320 875 1298 875 1260 c 2
 875 1196 l 2
 875 1128 883 1106 931 1108 c 2
 1379 1130 l 2
 1421 1132 1427 1160 1427 1201 c 2
 1427 1206 l 1
 1405 1601 1153 1631 775 1631 c 0
 367 1631 125 1550 125 1111 c 0
 125 712 256 655 759 603 c 0
 809 598 877 578 877 525 c 2
 877 335 l 2
 877 297 855 275 817 275 c 2
 764 275 l 2
 726 275 704 297 704 335 c 2
 704 452 l 2
 704 500 686 513 638 516 c 2
 190 546 l 2
 148 549 132 511 132 469 c 2
 132 467 l 1
 133 443 135 368 137 345 c 0
 170 -10 432 -39 805 -39 c 0
EndSplineSet
EndChar

StartChar: scaron
Encoding: 353 353 6
Width: 1434
Flags: W
LayerCount: 2
Fore
SplineSet
710 -27 m 1
 710 -26 l 1
 1047 -26 1378 7 1378 421 c 0
 1378 630 1307 754 1027 797 c 0
 922 813 796 829 685 847 c 0
 658 852 640 864 640 878 c 2
 640 1003 l 2
 640 1041 662 1063 700 1063 c 2
 747 1063 l 2
 785 1063 807 1041 807 1003 c 2
 807 978 l 2
 807 930 835 900 883 898 c 2
 1306 874 l 2
 1330 873 1347 888 1347 913 c 2
 1347 956 l 2
 1347 1309 1012 1327 739 1327 c 0
 367 1327 70 1266 70 900 c 0
 70 685 125 549 422 507 c 0
 527 492 653 475 764 460 c 0
 803 455 807 409 807 395 c 2
 807 293 l 2
 807 255 785 233 747 233 c 2
 700 233 l 2
 662 233 640 255 640 293 c 2
 640 324 l 2
 640 372 612 402 564 404 c 2
 117 431 l 2
 107 432 100 425 100 416 c 2
 100 397 l 2
 100 8 358 -27 710 -27 c 1
725 1491 m 2
 726 1491 l 2
 779 1491 834 1512 867 1563 c 2
 1130 1972 l 2
 1142 1991 1148 2009 1148 2025 c 0
 1148 2062 1120 2088 1085 2088 c 0
 1067 2088 1047 2081 1028 2066 c 2
 772 1868 l 2
 741 1844 708 1844 677 1868 c 2
 421 2066 l 2
 403 2080 384 2086 367 2086 c 0
 331 2086 301 2061 301 2024 c 0
 301 2009 307 1991 319 1972 c 2
 582 1563 l 2
 613 1515 670 1491 725 1491 c 2
EndSplineSet
EndChar

StartChar: Yacute
Encoding: 221 221 7
Width: 1509
Flags: W
LayerCount: 2
Fore
SplineSet
352 1715 m 0
 352 1686 380 1666 415 1666 c 0
 425 1666 436 1667 447 1671 c 0
 652 1733 939 1805 1043 1865 c 0
 1124 1912 1159 1982 1159 2047 c 0
 1159 2141 1088 2225 985 2225 c 0
 947 2225 905 2214 860 2188 c 0
 759 2130 549 1924 386 1775 c 0
 362 1754 352 1733 352 1715 c 0
983 0 m 2
 1031 0 1056 29 1059 76 c 0
 1068 194 1074 355 1077 528 c 1
 1474 1524 l 2
 1490 1564 1468 1595 1425 1595 c 2
 1021 1595 l 2
 971 1595 938 1570 925 1522 c 2
 770 988 l 1
 769 980 764 975 756 975 c 2
 754 975 l 2
 745 975 740 980 739 988 c 1
 589 1522 l 2
 576 1570 543 1595 493 1595 c 2
 85 1595 l 2
 42 1595 21 1564 37 1524 c 2
 437 532 l 1
 440 338 446 169 455 76 c 0
 459 30 483 0 531 0 c 2
 983 0 l 2
EndSplineSet
EndChar

StartChar: yacute
Encoding: 253 253 8
Width: 1342
Flags: W
LayerCount: 2
Fore
SplineSet
562 1225 m 1
 556 1273 526 1300 477 1300 c 2
 96 1300 l 2
 50 1300 26 1270 34 1225 c 2
 221 267 l 1
 249 116 291 109 389 99 c 1
 705 74 l 1
 705 30 l 2
 705 -4 682 -33 648 -41 c 1
 608 -49 565 -53 522 -53 c 0
 451 -53 368 -43 299 -30 c 1
 252 -20 231 -42 224 -90 c 2
 203 -243 l 2
 196 -290 210 -324 256 -332 c 0
 371 -354 521 -371 618 -371 c 0
 872 -371 1060 -299 1113 14 c 2
 1320 1225 l 2
 1328 1270 1303 1300 1257 1300 c 2
 857 1300 l 2
 809 1300 778 1273 774 1224 c 1
 728 878 l 1
 690 451 l 2
 688 430 679 430 678 451 c 1
 619 878 l 1
 562 1225 l 1
273 1539 m 0
 273 1510 301 1490 336 1490 c 0
 346 1490 357 1491 368 1495 c 0
 573 1557 860 1629 964 1689 c 0
 1045 1736 1080 1806 1080 1871 c 0
 1080 1965 1009 2049 906 2049 c 0
 868 2049 826 2038 781 2012 c 0
 680 1954 470 1748 307 1599 c 0
 283 1578 273 1557 273 1539 c 0
EndSplineSet
EndChar

StartChar: Thorn
Encoding: 222 222 9
Width: 1534
Flags: W
LayerCount: 2
Fore
SplineSet
104 76 m 2
 104 29 132 1 179 1 c 2
 629 1 l 2
 676 1 704 29 704 76 c 2
 704 191 l 2
 704 228 726 250 763 250 c 2
 840 250 l 2
 945 250 1033 256 1105 268 c 0
 1265 295 1393 345 1444 469 c 0
 1464 519 1466 576 1466 641 c 2
 1466 1022 l 2
 1466 1049 1465 1077 1463 1107 c 0
 1456 1233 1382 1303 1281 1347 c 0
 1166 1397 1020 1413 840 1413 c 2
 763 1413 l 2
 726 1413 704 1435 704 1472 c 2
 704 1523 l 2
 704 1570 676 1598 629 1598 c 2
 179 1598 l 2
 132 1598 104 1570 104 1523 c 2
 104 76 l 2
706 1123 m 2
 706 1160 728 1182 765 1182 c 2
 809 1182 l 2
 846 1182 868 1160 868 1123 c 2
 868 542 l 2
 868 505 846 483 809 483 c 2
 765 483 l 2
 728 483 706 505 706 542 c 2
 706 1123 l 2
EndSplineSet
EndChar

StartChar: thorn
Encoding: 254 254 10
Width: 1430
Flags: W
LayerCount: 2
Fore
SplineSet
675 1225 m 1
 676 1225 l 2
 699 1225 675 1201 675 1224 c 2
 675 1225 l 1
675 1526 m 2
 675 1573 647 1601 600 1601 c 2
 181 1601 l 2
 134 1601 106 1573 106 1526 c 2
 106 -333 l 2
 106 -380 134 -408 181 -408 c 2
 600 -408 l 2
 647 -408 675 -380 675 -333 c 2
 675 58 l 2
 675 67 682 69 687 62 c 0
 691 56 696 50 701 44 c 0
 746 -13 838 -24 948 -24 c 0
 1073 -24 1170 -2 1239 48 c 0
 1334 116 1362 229 1362 390 c 2
 1362 908 l 2
 1362 935 1361 964 1360 995 c 0
 1350 1231 1200 1323 948 1323 c 0
 820 1323 714 1307 675 1227 c 1
 675 1526 l 2
674 1013 m 2
 674 1048 695 1069 730 1069 c 2
 732 1069 l 2
 767 1069 788 1048 788 1013 c 2
 788 287 l 2
 788 252 767 231 732 231 c 2
 730 231 l 2
 695 231 674 252 674 287 c 2
 674 1013 l 2
EndSplineSet
EndChar

StartChar: Zcaron
Encoding: 381 381 11
Width: 1138
Flags: W
LayerCount: 2
Fore
SplineSet
570 1706 m 2
 571 1706 l 2
 624 1706 679 1727 712 1778 c 2
 975 2187 l 2
 987 2206 993 2224 993 2240 c 0
 993 2277 965 2303 930 2303 c 0
 912 2303 892 2296 873 2281 c 2
 617 2083 l 2
 586 2059 553 2059 522 2083 c 2
 266 2281 l 2
 248 2295 229 2301 212 2301 c 0
 176 2301 146 2276 146 2239 c 0
 146 2224 152 2206 164 2187 c 2
 427 1778 l 2
 458 1730 515 1706 570 1706 c 2
145 1595 m 1
 145 1594 l 1
 98 1594 70 1566 70 1519 c 2
 70 1380 l 2
 70 1333 98 1305 145 1305 c 2
 382 1305 l 2
 417 1305 435 1281 425 1248 c 2
 79 74 l 2
 67 32 90 2 134 2 c 2
 1008 2 l 2
 1055 2 1083 30 1083 77 c 2
 1083 219 l 2
 1083 266 1055 294 1008 294 c 2
 806 294 l 2
 771 294 753 318 762 352 c 2
 1074 1522 l 2
 1085 1565 1062 1595 1017 1595 c 2
 145 1595 l 1
EndSplineSet
EndChar

StartChar: zcaron
Encoding: 382 382 12
Width: 1169
Flags: W
LayerCount: 2
Fore
SplineSet
130 1127 m 1
 128 1126 l 1
 128 1079 156 1051 203 1051 c 2
 404 1051 l 2
 437 1051 453 1027 440 997 c 2
 135 303 l 2
 116 260 105 206 105 158 c 2
 105 77 l 2
 105 30 133 2 180 2 c 2
 1011 2 l 2
 1058 2 1086 30 1086 77 c 2
 1086 171 l 2
 1086 218 1058 246 1011 246 c 2
 783 246 l 2
 750 246 734 270 747 301 c 2
 1050 1009 l 2
 1069 1053 1080 1108 1080 1155 c 2
 1080 1224 l 2
 1080 1271 1052 1299 1005 1299 c 2
 205 1299 l 2
 158 1299 130 1271 130 1224 c 2
 130 1127 l 1
597 1489 m 2
 598 1489 l 2
 651 1489 706 1510 739 1561 c 2
 1002 1970 l 2
 1014 1989 1020 2007 1020 2023 c 0
 1020 2060 992 2086 957 2086 c 0
 939 2086 919 2079 900 2064 c 2
 644 1866 l 2
 613 1842 580 1842 549 1866 c 2
 293 2064 l 2
 275 2078 256 2084 239 2084 c 0
 203 2084 173 2059 173 2022 c 0
 173 2007 179 1989 191 1970 c 2
 454 1561 l 2
 485 1513 542 1489 597 1489 c 2
EndSplineSet
EndChar

StartChar: onehalf
Encoding: 189 189 13
Width: 2580
Flags: W
LayerCount: 2
Fore
SplineSet
1973 836 m 1
 1976 836 l 2
 2023 836 2051 864 2051 911 c 2
 2051 980 l 2
 2051 1011 2069 1029 2100 1029 c 2
 2102 1029 l 2
 2133 1029 2151 1011 2151 980 c 2
 2151 876 l 2
 2151 822 2077 792 2015 767 c 0
 1821 689 1687 574 1687 312 c 2
 1687 209 l 2
 1687 162 1715 134 1762 134 c 2
 2407 134 l 2
 2454 134 2482 162 2482 209 c 2
 2482 255 l 2
 2482 302 2454 330 2407 330 c 2
 2098 330 l 2
 2072 330 2054 366 2069 387 c 0
 2097 425 2151 451 2200 473 c 0
 2365 547 2523 633 2523 875 c 0
 2523 1141 2369 1208 2107 1208 c 0
 1864 1208 1685 1147 1685 877 c 0
 1685 870 1685 863 1685 856 c 0
 1685 843 1692 836 1705 836 c 2
 1973 836 l 1
34 1342 m 1
 37 1342 l 1
 37 1298 64 1271 108 1271 c 2
 121 1271 l 2
 158 1271 180 1249 180 1212 c 2
 180 506 l 2
 180 459 208 431 255 431 c 2
 498 431 l 2
 545 431 573 459 573 506 c 2
 573 1394 l 2
 573 1441 545 1469 498 1469 c 2
 388 1469 l 2
 307 1469 268 1463 192 1438 c 0
 165 1429 136 1423 105 1419 c 0
 55 1413 34 1389 34 1343 c 2
 34 1342 l 1
1131 0 m 2
 1180 0 1212 26 1223 74 c 2
 1541 1521 l 2
 1551 1565 1527 1595 1482 1595 c 2
 1200 1595 l 2
 1151 1595 1119 1569 1108 1521 c 2
 789 74 l 2
 779 30 803 0 848 0 c 2
 1131 0 l 2
EndSplineSet
EndChar

StartChar: onequarter
Encoding: 188 188 14
Width: 2565
Flags: W
LayerCount: 2
Fore
SplineSet
2499 684 m 1
 2498 681 l 1
 2498 728 2470 756 2423 756 c 2
 2216 756 l 2
 2169 756 2141 728 2141 681 c 2
 2141 591 l 2
 2141 554 2119 532 2082 532 c 2
 2029 532 l 2
 2018 532 2012 538 2012 549 c 2
 2012 551 l 2
 2012 561 2014 575 2017 585 c 2
 2161 1097 l 2
 2173 1140 2150 1170 2106 1170 c 2
 1873 1170 l 2
 1823 1170 1790 1145 1776 1097 c 2
 1647 642 l 2
 1635 599 1627 539 1627 494 c 2
 1627 366 l 2
 1627 319 1655 291 1702 291 c 2
 2083 291 l 2
 2120 291 2142 269 2142 232 c 2
 2142 206 l 2
 2142 159 2170 131 2217 131 c 2
 2424 131 l 2
 2471 131 2499 159 2499 206 c 2
 2499 684 l 1
30 1339 m 1
 33 1339 l 1
 33 1295 60 1268 104 1268 c 2
 117 1268 l 2
 154 1268 176 1246 176 1209 c 2
 176 503 l 2
 176 456 204 428 251 428 c 2
 494 428 l 2
 541 428 569 456 569 503 c 2
 569 1391 l 2
 569 1438 541 1466 494 1466 c 2
 384 1466 l 2
 303 1466 264 1460 188 1435 c 0
 161 1426 132 1420 101 1416 c 0
 51 1410 30 1386 30 1340 c 2
 30 1339 l 1
1112 -3 m 2
 1161 -3 1193 23 1204 71 c 2
 1522 1518 l 2
 1532 1562 1508 1592 1463 1592 c 2
 1181 1592 l 2
 1132 1592 1100 1566 1089 1518 c 2
 770 71 l 2
 760 27 784 -3 829 -3 c 2
 1112 -3 l 2
EndSplineSet
EndChar

StartChar: threequarters
Encoding: 190 190 15
Width: 2894
Flags: W
LayerCount: 2
Fore
SplineSet
2828 684 m 1
 2827 681 l 1
 2827 728 2799 756 2752 756 c 2
 2545 756 l 2
 2498 756 2470 728 2470 681 c 2
 2470 591 l 2
 2470 554 2448 532 2411 532 c 2
 2358 532 l 2
 2347 532 2341 538 2341 549 c 2
 2341 551 l 2
 2341 561 2343 575 2346 585 c 2
 2490 1097 l 2
 2502 1140 2479 1170 2435 1170 c 2
 2202 1170 l 2
 2152 1170 2119 1145 2105 1097 c 2
 1976 642 l 2
 1964 599 1956 539 1956 494 c 2
 1956 366 l 2
 1956 319 1984 291 2031 291 c 2
 2412 291 l 2
 2449 291 2471 269 2471 232 c 2
 2471 206 l 2
 2471 159 2499 131 2546 131 c 2
 2753 131 l 2
 2800 131 2828 159 2828 206 c 2
 2828 684 l 1
564 1496 m 1
 564 1494 l 1
 284 1494 138 1411 138 1148 c 0
 138 1139 138 1130 139 1120 c 0
 140 1104 151 1094 167 1094 c 2
 431 1094 l 2
 478 1094 506 1122 506 1169 c 2
 506 1261 l 2
 506 1296 527 1317 562 1317 c 2
 564 1317 l 2
 599 1317 620 1296 620 1261 c 2
 620 1092 l 2
 620 1055 598 1033 561 1033 c 2
 523 1033 l 2
 477 1033 450 1006 450 960 c 2
 450 958 l 2
 450 912 477 885 523 885 c 2
 561 885 l 2
 598 885 620 863 620 826 c 2
 620 628 l 2
 620 593 599 572 564 572 c 2
 562 572 l 2
 527 572 506 593 506 628 c 2
 506 747 l 2
 506 794 478 822 431 822 c 2
 170 822 l 2
 152 822 140 811 139 793 c 0
 138 782 138 772 138 762 c 0
 138 512 269 391 565 391 c 0
 861 391 996 484 996 730 c 0
 996 816 967 888 908 932 c 0
 881 953 881 971 908 991 c 0
 961 1030 994 1089 994 1172 c 0
 994 1419 834 1496 564 1496 c 1
1478 -5 m 2
 1527 -5 1559 21 1570 69 c 2
 1888 1516 l 2
 1898 1560 1874 1590 1829 1590 c 2
 1547 1590 l 2
 1498 1590 1466 1564 1455 1516 c 2
 1136 69 l 2
 1126 25 1150 -5 1195 -5 c 2
 1478 -5 l 2
EndSplineSet
EndChar

StartChar: brokenbar
Encoding: 166 166 16
Width: 831
Flags: W
LayerCount: 2
Fore
SplineSet
207 656 m 2
 160 656 132 628 132 581 c 2
 132 -178 l 2
 132 -225 160 -253 207 -253 c 2
 626 -253 l 2
 673 -253 701 -225 701 -178 c 2
 701 581 l 2
 701 628 673 656 626 656 c 2
 207 656 l 2
207 1708 m 2
 160 1708 132 1680 132 1633 c 2
 132 874 l 2
 132 827 160 799 207 799 c 2
 626 799 l 2
 673 799 701 827 701 874 c 2
 701 1633 l 2
 701 1680 673 1708 626 1708 c 2
 207 1708 l 2
EndSplineSet
EndChar

StartChar: multiply
Encoding: 215 215 17
Width: 1310
Flags: W
LayerCount: 2
Fore
SplineSet
969 1239 m 1
 969 1237 l 1
 937 1271 897 1271 865 1237 c 2
 701 1062 l 2
 676 1035 645 1035 620 1062 c 2
 454 1238 l 2
 422 1272 382 1272 350 1238 c 2
 106 979 l 2
 73 944 73 903 106 868 c 2
 271 692 l 2
 297 664 297 632 271 605 c 2
 106 430 l 2
 73 395 73 354 106 319 c 2
 350 59 l 2
 382 25 422 25 454 59 c 2
 620 235 l 2
 645 262 676 262 701 235 c 2
 865 59 l 2
 897 25 937 25 969 59 c 2
 1214 319 l 2
 1247 354 1247 395 1214 430 c 2
 1049 605 l 2
 1023 632 1023 664 1049 692 c 2
 1214 868 l 2
 1247 903 1247 944 1214 979 c 2
 969 1239 l 1
EndSplineSet
EndChar

StartChar: exclam
Encoding: 33 33 19
Width: 801
Flags: W
LayerCount: 2
Fore
SplineSet
398 539 m 0
 423 539 447 562 458 607 c 0
 521 874 656 1253 656 1411 c 0
 656 1556 525 1631 396 1631 c 0
 270 1631 145 1560 145 1413 c 0
 145 1259 273 880 337 607 c 0
 348 561 373 539 398 539 c 0
398 -39 m 0
 500 -39 602 31 602 171 c 0
 602 311 500 381 398 381 c 0
 296 381 194 311 194 171 c 0
 194 31 296 -39 398 -39 c 0
EndSplineSet
EndChar

StartChar: quotedbl
Encoding: 34 34 20
Width: 1213
Flags: W
LayerCount: 2
Fore
SplineSet
335 837 m 0
 357 837 381 857 390 896 c 0
 435 1086 528 1344 528 1452 c 0
 528 1568 430 1629 333 1629 c 0
 239 1629 147 1572 147 1454 c 0
 147 1349 235 1090 280 896 c 1
 291 856 313 837 335 837 c 0
832 837 m 0
 854 837 878 857 887 896 c 0
 932 1086 1025 1344 1025 1452 c 0
 1025 1568 927 1629 830 1629 c 0
 736 1629 644 1572 644 1454 c 0
 644 1349 732 1090 777 896 c 1
 788 856 810 837 832 837 c 0
EndSplineSet
EndChar

StartChar: numbersign
Encoding: 35 35 21
Width: 1718
Flags: W
LayerCount: 2
Fore
SplineSet
1583 546 m 1
 1583 545 l 1
 1589 591 1563 621 1517 621 c 2
 1489 621 l 2
 1453 621 1433 644 1438 680 c 2
 1474 935 l 2
 1479 973 1503 994 1541 994 c 2
 1558 994 l 2
 1606 994 1636 1020 1643 1067 c 2
 1652 1127 l 2
 1658 1171 1633 1200 1589 1200 c 2
 1574 1200 l 2
 1538 1200 1518 1223 1523 1259 c 2
 1558 1520 l 2
 1564 1566 1538 1596 1492 1596 c 2
 1146 1596 l 2
 1097 1596 1066 1569 1059 1521 c 2
 1023 1260 l 2
 1018 1222 994 1201 956 1201 c 2
 878 1201 l 2
 842 1201 822 1224 827 1260 c 2
 862 1521 l 2
 868 1567 842 1597 796 1597 c 2
 449 1597 l 2
 400 1597 369 1570 362 1522 c 2
 326 1261 l 2
 321 1223 297 1202 259 1202 c 2
 241 1202 l 2
 193 1202 162 1175 155 1127 c 2
 147 1067 l 2
 141 1023 166 995 210 995 c 2
 225 995 l 2
 261 995 281 972 276 936 c 2
 241 682 l 2
 236 644 212 623 174 623 c 2
 164 623 l 2
 120 623 92 599 86 556 c 2
 78 497 l 2
 73 457 95 431 135 431 c 2
 143 431 l 2
 179 431 199 408 194 372 c 2
 152 77 l 2
 146 31 172 1 218 1 c 2
 568 1 l 2
 617 1 648 28 655 76 c 2
 696 371 l 2
 701 409 725 430 763 430 c 2
 841 430 l 2
 877 430 897 407 892 371 c 2
 850 76 l 2
 844 30 870 0 916 0 c 2
 1265 0 l 2
 1314 0 1345 27 1352 75 c 2
 1393 371 l 2
 1398 409 1422 430 1460 430 c 2
 1490 430 l 2
 1539 430 1570 457 1577 505 c 2
 1583 546 l 1
777 933 m 2
 782 971 806 992 844 992 c 2
 922 992 l 2
 958 992 978 969 973 933 c 2
 937 679 l 2
 932 641 908 620 870 620 c 2
 792 620 l 2
 756 620 736 643 741 679 c 2
 777 933 l 2
EndSplineSet
EndChar

StartChar: dollar
Encoding: 36 36 22
Width: 1434
Flags: W
LayerCount: 2
Fore
SplineSet
726 -168 m 1
 730 -166 l 1
 754 -166 768 -152 768 -128 c 2
 768 -36 l 2
 768 2 789 24 827 26 c 0
 1174 42 1381 144 1381 511 c 0
 1381 849 1094 932 825 986 c 0
 787 994 767 1019 767 1058 c 2
 767 1244 l 2
 767 1269 782 1284 807 1284 c 2
 809 1284 l 2
 834 1284 849 1269 849 1244 c 2
 849 1199 l 2
 849 1151 877 1121 925 1118 c 2
 1275 1097 l 2
 1321 1094 1351 1122 1351 1168 c 0
 1352 1322 1319 1444 1147 1500 c 0
 1056 1529 949 1541 825 1544 c 0
 787 1545 765 1567 765 1605 c 2
 765 1691 l 2
 765 1715 751 1729 727 1729 c 2
 725 1729 l 2
 701 1729 687 1715 687 1691 c 2
 687 1604 l 2
 687 1566 666 1544 628 1542 c 0
 310 1528 72 1440 72 1080 c 0
 72 735 353 649 629 596 c 0
 667 589 687 564 687 525 c 2
 687 324 l 2
 687 298 671 282 645 282 c 2
 643 282 l 2
 617 282 601 298 601 324 c 2
 601 374 l 2
 601 422 573 452 525 455 c 2
 175 477 l 2
 130 480 100 451 101 406 c 0
 105 214 167 118 302 70 c 0
 393 38 500 25 626 22 c 0
 664 21 686 -1 686 -39 c 2
 686 -130 l 2
 686 -154 700 -168 724 -168 c 2
 726 -168 l 1
852 326 m 2
 852 301 837 286 812 286 c 2
 810 286 l 2
 785 286 770 301 770 326 c 2
 770 533 l 2
 770 558 786 571 810 566 c 1
 812 566 l 1
 838 561 852 544 852 517 c 2
 852 326 l 2
605 1244 m 1
 604 1244 l 1
 604 1270 620 1286 646 1286 c 2
 648 1286 l 2
 674 1286 690 1270 690 1244 c 2
 690 1057 l 2
 690 1032 673 1018 649 1024 c 0
 648 1024 647 1024 646 1024 c 0
 619 1030 605 1048 605 1076 c 2
 605 1244 l 1
EndSplineSet
EndChar

StartChar: percent
Encoding: 37 37 23
Width: 2792
Flags: W
LayerCount: 2
Fore
SplineSet
623 878 m 2
 623 850 606 833 578 833 c 2
 576 833 l 2
 548 833 531 850 531 878 c 2
 531 1334 l 2
 531 1362 548 1379 576 1379 c 2
 578 1379 l 2
 606 1379 623 1362 623 1334 c 2
 623 878 l 2
1025 930 m 2
 1025 1289 l 2
 1025 1579 795 1596 574 1596 c 0
 352 1596 125 1578 125 1287 c 2
 125 928 l 2
 125 624 349 619 575 619 c 0
 798 619 1025 631 1025 930 c 2
2262 392 m 2
 2262 364 2246 348 2218 348 c 2
 2216 348 l 2
 2188 348 2172 364 2172 392 c 2
 2172 849 l 2
 2172 877 2188 893 2216 893 c 2
 2218 893 l 2
 2246 893 2262 877 2262 849 c 2
 2262 392 l 2
2665 443 m 2
 2665 800 l 2
 2665 1093 2437 1110 2214 1110 c 0
 1990 1110 1765 1092 1765 799 c 2
 1765 442 l 2
 1765 147 1990 130 2215 130 c 0
 2436 130 2665 154 2665 443 c 2
1471 1633 m 1
 1470 1633 l 2
 1421 1633 1389 1607 1378 1559 c 2
 1032 36 l 2
 1022 -8 1046 -38 1091 -38 c 2
 1327 -38 l 2
 1376 -38 1408 -12 1419 36 c 2
 1762 1559 l 2
 1772 1603 1748 1633 1703 1633 c 2
 1471 1633 l 1
EndSplineSet
EndChar

StartChar: ampersand
Encoding: 38 38 24
Width: 1653
Flags: W
LayerCount: 2
Fore
SplineSet
747 224 m 2
 710 224 688 246 688 283 c 2
 688 676 l 2
 688 713 710 735 747 735 c 2
 837 735 l 2
 874 735 896 713 896 676 c 2
 896 283 l 2
 896 246 874 224 837 224 c 2
 747 224 l 2
359 841 m 1
 361 840 l 1
 361 828 354 821 342 820 c 2
 248 809 l 2
 127 795 86 569 86 456 c 0
 86 16 362 -40 767 -40 c 0
 1313 -40 1443 75 1443 513 c 2
 1443 676 l 2
 1443 713 1465 735 1502 735 c 2
 1519 735 l 2
 1566 735 1594 763 1594 810 c 2
 1594 854 l 2
 1594 901 1566 929 1519 929 c 2
 1502 929 l 2
 1465 929 1443 951 1443 988 c 2
 1443 999 l 2
 1443 1042 1417 1068 1374 1068 c 2
 965 1068 l 2
 922 1068 896 1042 896 999 c 2
 896 988 l 2
 896 951 874 929 837 929 c 2
 747 929 l 2
 710 929 688 951 688 988 c 2
 688 1332 l 2
 688 1369 710 1391 747 1391 c 2
 834 1391 l 2
 871 1391 893 1369 893 1332 c 2
 893 1259 l 2
 893 1212 921 1184 968 1184 c 2
 1412 1184 l 2
 1428 1184 1439 1194 1440 1210 c 0
 1441 1220 1441 1229 1441 1238 c 0
 1441 1522 1219 1632 805 1632 c 0
 452 1632 83 1594 83 1198 c 0
 83 958 179 880 246 873 c 2
 340 863 l 2
 352 862 359 855 359 843 c 2
 359 841 l 1
EndSplineSet
EndChar

StartChar: quotesingle
Encoding: 39 39 25
Width: 629
Flags: W
LayerCount: 2
Fore
SplineSet
335 837 m 0
 357 837 381 857 390 896 c 0
 435 1086 528 1344 528 1452 c 0
 528 1568 430 1629 333 1629 c 0
 239 1629 147 1572 147 1454 c 0
 147 1349 235 1090 280 896 c 1
 291 856 313 837 335 837 c 0
EndSplineSet
EndChar

StartChar: parenleft
Encoding: 40 40 26
Width: 860
Flags: W
LayerCount: 2
Fore
SplineSet
678 -169 m 2
 726 -169 l 2
 754 -169 771 -152 771 -124 c 2
 771 78 l 2
 771 98 759 110 739 110 c 2
 705 110 l 2
 544 110 452 466 452 827 c 0
 452 1188 544 1562 705 1562 c 2
 739 1562 l 2
 759 1562 771 1574 771 1594 c 2
 771 1796 l 2
 771 1824 754 1841 726 1841 c 2
 678 1841 l 2
 253 1841 51 1328 51 827 c 0
 51 326 253 -169 678 -169 c 2
EndSplineSet
EndChar

StartChar: parenright
Encoding: 41 41 27
Width: 861
Flags: W
LayerCount: 2
Fore
SplineSet
183 1841 m 2
 135 1841 l 2
 107 1841 90 1824 90 1796 c 2
 90 1594 l 2
 90 1574 102 1562 122 1562 c 2
 156 1562 l 2
 317 1562 409 1188 409 827 c 0
 409 466 317 110 156 110 c 2
 122 110 l 2
 102 110 90 98 90 78 c 2
 90 -124 l 2
 90 -152 107 -169 135 -169 c 2
 183 -169 l 2
 608 -169 810 326 810 827 c 0
 810 1328 608 1841 183 1841 c 2
EndSplineSet
EndChar

StartChar: asterisk
Encoding: 42 42 28
Width: 1321
Flags: W
LayerCount: 2
Fore
SplineSet
877 430 m 0
 957 430 1044 500 1044 581 c 0
 1044 649 942 743 819 858 c 0
 803 873 812 889 833 883 c 0
 951 850 1069 817 1128 817 c 0
 1214 817 1254 889 1254 962 c 0
 1254 1037 1211 1112 1128 1112 c 0
 1067 1112 949 1077 832 1043 c 0
 811 1037 802 1053 818 1068 c 0
 945 1189 1046 1282 1046 1350 c 0
 1046 1429 958 1496 878 1496 c 0
 837 1496 799 1479 775 1439 c 0
 742 1384 711 1259 679 1137 c 0
 673 1115 654 1115 648 1137 c 0
 617 1259 586 1384 553 1439 c 0
 529 1479 490 1496 450 1496 c 0
 369 1496 282 1430 282 1350 c 0
 282 1282 380 1190 508 1068 c 0
 524 1053 515 1037 494 1043 c 0
 377 1077 260 1112 199 1112 c 0
 116 1112 73 1037 73 962 c 0
 73 889 113 817 198 817 c 0
 257 817 375 850 493 883 c 0
 514 889 523 873 507 858 c 0
 383 743 282 650 282 581 c 0
 282 502 368 430 450 430 c 0
 562 430 591 573 647 783 c 0
 653 805 672 805 678 783 c 0
 711 663 744 541 775 489 c 0
 800 447 838 430 877 430 c 0
EndSplineSet
EndChar

StartChar: plus
Encoding: 43 43 29
Width: 1328
Flags: W
LayerCount: 2
Fore
SplineSet
180 811 m 2
 133 811 105 783 105 736 c 2
 105 555 l 2
 105 508 133 480 180 480 c 2
 410 480 l 2
 447 480 469 458 469 421 c 2
 469 178 l 2
 469 131 497 103 544 103 c 2
 784 103 l 2
 831 103 859 131 859 178 c 2
 859 421 l 2
 859 458 881 480 918 480 c 2
 1147 480 l 2
 1194 480 1222 508 1222 555 c 2
 1222 736 l 2
 1222 783 1194 811 1147 811 c 2
 918 811 l 2
 881 811 859 833 859 870 c 2
 859 1116 l 2
 859 1163 831 1191 784 1191 c 2
 544 1191 l 2
 497 1191 469 1163 469 1116 c 2
 469 870 l 2
 469 833 447 811 410 811 c 2
 180 811 l 2
EndSplineSet
EndChar

StartChar: comma
Encoding: 44 44 30
Width: 711
Flags: W
LayerCount: 2
Fore
SplineSet
262 15 m 1
 263 16 l 1
 299 1 308 -55 279 -81 c 0
 262 -96 241 -107 217 -114 c 0
 177 -125 164 -142 164 -182 c 2
 164 -210 l 2
 164 -223 172 -232 185 -233 c 0
 193 -234 201 -234 208 -234 c 0
 429 -234 555 -15 555 169 c 0
 555 298 489 409 345 409 c 0
 243 409 141 342 141 209 c 0
 141 108 194 43 262 15 c 1
EndSplineSet
EndChar

StartChar: hyphen
Encoding: 45 45 31
Width: 1328
Flags: W
LayerCount: 2
Fore
SplineSet
240 811 m 2
 193 811 165 783 165 736 c 2
 165 555 l 2
 165 508 193 480 240 480 c 2
 1089 480 l 2
 1136 480 1164 508 1164 555 c 2
 1164 736 l 2
 1164 783 1136 811 1089 811 c 2
 240 811 l 2
EndSplineSet
EndChar

StartChar: period
Encoding: 46 46 32
Width: 670
Flags: W
LayerCount: 2
Fore
SplineSet
340 -39 m 0
 442 -39 544 31 544 171 c 0
 544 311 442 381 340 381 c 0
 238 381 136 311 136 171 c 0
 136 31 238 -39 340 -39 c 0
EndSplineSet
EndChar

StartChar: slash
Encoding: 47 47 33
Width: 1056
Flags: W
LayerCount: 2
Fore
SplineSet
495 0 m 2
 544 0 576 26 587 74 c 2
 905 1521 l 2
 915 1565 891 1595 846 1595 c 2
 564 1595 l 2
 515 1595 483 1569 472 1521 c 2
 153 74 l 2
 143 30 167 0 212 0 c 2
 495 0 l 2
EndSplineSet
EndChar

StartChar: zero
Encoding: 48 48 34
Width: 1469
Flags: W
LayerCount: 2
Fore
SplineSet
653 1299 m 2
 653 1336 675 1358 712 1358 c 2
 759 1358 l 2
 796 1358 818 1336 818 1299 c 2
 818 292 l 2
 818 255 796 233 759 233 c 2
 712 233 l 2
 675 233 653 255 653 292 c 2
 653 1299 l 2
1383 352 m 2
 1383 1242 l 2
 1383 1603 1056 1633 738 1633 c 0
 429 1633 89 1610 89 1242 c 2
 89 352 l 2
 89 -14 422 -39 739 -39 c 0
 1051 -39 1383 -25 1383 352 c 2
EndSplineSet
EndChar

StartChar: one
Encoding: 49 49 35
Width: 961
Flags: W
LayerCount: 2
Fore
SplineSet
41 1367 m 1
 44 1368 l 1
 44 1321 72 1293 119 1293 c 2
 205 1293 l 2
 242 1293 264 1271 264 1234 c 2
 264 78 l 2
 264 31 292 3 339 3 c 2
 791 3 l 2
 838 3 866 31 866 78 c 2
 866 1521 l 2
 866 1568 838 1596 791 1596 c 2
 493 1596 l 2
 426 1596 382 1587 320 1562 c 0
 261 1538 192 1522 117 1515 c 0
 66 1511 41 1483 41 1432 c 2
 41 1367 l 1
EndSplineSet
EndChar

StartChar: two
Encoding: 50 50 36
Width: 1403
Flags: W
LayerCount: 2
Fore
SplineSet
554 1064 m 1
 559 1065 l 1
 606 1065 634 1093 634 1140 c 2
 634 1299 l 2
 634 1336 656 1358 693 1358 c 2
 726 1358 l 2
 763 1358 785 1336 785 1299 c 2
 785 1087 l 2
 785 990 670 937 576 891 c 1
 292 759 81 600 81 202 c 2
 81 78 l 2
 81 31 109 3 156 3 c 2
 1203 3 l 2
 1250 3 1278 31 1278 78 c 2
 1278 226 l 2
 1278 273 1250 301 1203 301 c 2
 683 301 l 2
 653 301 631 332 641 360 c 0
 672 447 771 503 859 545 c 0
 1077 650 1350 776 1350 1125 c 0
 1350 1500 1140 1633 719 1633 c 0
 348 1633 77 1536 77 1124 c 0
 77 1114 77 1104 77 1093 c 0
 78 1075 89 1064 107 1064 c 2
 554 1064 l 1
EndSplineSet
EndChar

StartChar: three
Encoding: 51 51 37
Width: 1436
Flags: W
LayerCount: 2
Fore
SplineSet
72 1108 m 1
 73 1105 l 1
 73 1091 73 1077 74 1062 c 0
 75 1037 91 1021 116 1021 c 2
 552 1021 l 2
 599 1021 627 1049 627 1096 c 2
 627 1298 l 2
 627 1335 649 1357 686 1357 c 2
 739 1357 l 2
 776 1357 798 1335 798 1298 c 2
 798 987 l 2
 798 950 776 928 739 928 c 2
 615 928 l 2
 568 928 540 900 540 853 c 2
 540 781 l 2
 540 734 568 706 615 706 c 2
 739 706 l 2
 776 706 798 684 798 647 c 2
 798 294 l 2
 798 257 776 235 739 235 c 2
 686 235 l 2
 649 235 627 257 627 294 c 2
 627 537 l 2
 627 584 599 612 552 612 c 2
 122 612 l 2
 93 612 74 594 73 565 c 0
 72 548 72 532 72 516 c 0
 72 141 271 -40 717 -40 c 0
 1112 -40 1367 78 1367 521 c 0
 1367 640 1318 737 1218 794 c 0
 1191 809 1191 830 1217 846 c 0
 1307 900 1364 988 1364 1113 c 0
 1364 1506 1147 1632 714 1632 c 0
 293 1632 72 1503 72 1108 c 1
EndSplineSet
EndChar

StartChar: four
Encoding: 52 52 38
Width: 1459
Flags: W
LayerCount: 2
Fore
SplineSet
1377 862 m 1
 1376 861 l 1
 1376 908 1348 936 1301 936 c 2
 941 936 l 2
 894 936 866 908 866 861 c 2
 866 661 l 2
 866 624 844 602 807 602 c 2
 677 602 l 2
 661 602 651 612 651 628 c 2
 651 630 l 2
 651 645 654 666 658 681 c 2
 883 1521 l 2
 895 1564 872 1594 827 1594 c 2
 406 1594 l 2
 356 1594 323 1569 310 1521 c 2
 96 729 l 2
 84 686 76 625 76 580 c 2
 76 315 l 2
 76 268 104 240 151 240 c 2
 808 240 l 2
 845 240 867 218 867 181 c 2
 867 76 l 2
 867 29 895 1 942 1 c 2
 1302 1 l 2
 1349 1 1377 29 1377 76 c 2
 1377 862 l 1
EndSplineSet
EndChar

StartChar: five
Encoding: 53 53 39
Width: 1429
Flags: W
LayerCount: 2
Fore
SplineSet
649 1038 m 1
 651 1039 l 1
 628 1023 610 1034 613 1062 c 2
 633 1242 l 2
 637 1280 661 1301 699 1301 c 2
 1155 1301 l 2
 1202 1301 1230 1329 1230 1376 c 2
 1230 1521 l 2
 1230 1568 1202 1596 1155 1596 c 2
 214 1596 l 2
 166 1596 137 1568 134 1520 c 2
 90 731 l 2
 87 684 114 655 161 655 c 2
 542 655 l 2
 589 655 617 683 617 730 c 2
 617 778 l 2
 617 815 639 837 676 837 c 2
 738 837 l 2
 775 837 797 815 797 778 c 2
 797 295 l 2
 797 258 775 236 738 236 c 2
 676 236 l 2
 639 236 617 258 617 295 c 2
 617 398 l 2
 617 445 589 473 542 473 c 2
 136 473 l 2
 94 473 67 445 70 403 c 0
 71 378 73 354 76 331 c 0
 114 30 370 -39 715 -39 c 0
 1188 -39 1365 87 1365 553 c 0
 1365 881 1282 1105 956 1105 c 0
 827 1105 721 1087 649 1038 c 1
EndSplineSet
EndChar

StartChar: six
Encoding: 54 54 40
Width: 1448
Flags: W
LayerCount: 2
Fore
SplineSet
636 738 m 2
 636 775 658 797 695 797 c 2
 756 797 l 2
 793 797 815 775 815 738 c 2
 815 295 l 2
 815 258 793 236 756 236 c 2
 695 236 l 2
 658 236 636 258 636 295 c 2
 636 738 l 2
1382 523 m 2
 1382 524 l 2
 1382 942 1223 1069 761 1069 c 2
 697 1069 l 2
 660 1069 638 1091 638 1128 c 2
 638 1310 l 2
 638 1347 660 1369 697 1369 c 2
 741 1369 l 2
 778 1369 800 1347 800 1310 c 2
 800 1234 l 2
 800 1187 828 1159 875 1159 c 2
 1292 1159 l 2
 1315 1159 1330 1174 1329 1197 c 0
 1329 1210 1329 1223 1329 1237 c 0
 1329 1608 966 1632 717 1632 c 0
 312 1632 85 1496 85 1056 c 2
 85 476 l 2
 85 93 312 -39 718 -39 c 1
 1130 -36 1382 62 1382 523 c 2
EndSplineSet
EndChar

StartChar: seven
Encoding: 55 55 41
Width: 991
Flags: W
LayerCount: 2
Fore
SplineSet
116 1595 m 1
 115 1593 l 1
 68 1593 40 1565 40 1518 c 2
 40 1429 l 2
 40 1382 68 1354 115 1354 c 2
 274 1354 l 2
 310 1354 330 1331 324 1296 c 2
 124 76 l 2
 117 31 142 1 188 1 c 2
 640 1 l 2
 689 1 720 28 728 76 c 2
 929 1277 l 2
 936 1319 941 1385 941 1428 c 2
 941 1520 l 2
 941 1567 913 1595 866 1595 c 2
 116 1595 l 1
EndSplineSet
EndChar

StartChar: eight
Encoding: 56 56 42
Width: 1427
Flags: W
LayerCount: 2
Fore
SplineSet
200 895 m 1
 200 894 l 1
 225 871 224 857 195 838 c 0
 82 765 64 590 64 470 c 0
 64 75 287 -40 721 -40 c 0
 1100 -40 1368 34 1368 470 c 0
 1368 645 1320 788 1205 845 c 0
 1180 857 1179 873 1202 889 c 0
 1279 941 1310 1049 1310 1180 c 0
 1310 1528 1071 1631 719 1631 c 0
 366 1631 119 1529 119 1181 c 0
 119 1063 139 952 200 895 c 1
734 1354 m 2
 771 1354 793 1332 793 1295 c 2
 793 1019 l 2
 793 982 771 960 734 960 c 2
 699 960 l 2
 662 960 640 982 640 1019 c 2
 640 1295 l 2
 640 1332 662 1354 699 1354 c 2
 734 1354 l 2
628 659 m 2
 628 696 650 718 687 718 c 2
 734 718 l 2
 771 718 793 696 793 659 c 2
 793 293 l 2
 793 256 771 234 734 234 c 2
 687 234 l 2
 650 234 628 256 628 293 c 2
 628 659 l 2
EndSplineSet
EndChar

StartChar: nine
Encoding: 57 57 43
Width: 1445
Flags: W
LayerCount: 2
Fore
SplineSet
799 839 m 2
 799 802 777 780 740 780 c 2
 688 780 l 2
 651 780 629 802 629 839 c 2
 629 1299 l 2
 629 1336 651 1358 688 1358 c 2
 740 1358 l 2
 777 1358 799 1336 799 1299 c 2
 799 839 l 2
576 508 m 2
 743 508 l 2
 780 508 802 486 802 449 c 2
 802 285 l 2
 802 248 780 226 743 226 c 2
 704 226 l 2
 667 226 645 248 645 285 c 2
 645 349 l 2
 645 396 617 424 570 424 c 2
 162 424 l 2
 133 424 115 406 115 377 c 0
 115 361 115 345 115 328 c 0
 124 0 490 -40 733 -40 c 0
 1131 -40 1365 84 1365 520 c 2
 1365 1116 l 2
 1365 1508 1130 1629 722 1629 c 0
 325 1629 68 1551 68 1071 c 0
 68 688 178 508 576 508 c 2
EndSplineSet
EndChar

StartChar: colon
Encoding: 58 58 44
Width: 691
Flags: W
LayerCount: 2
Fore
SplineSet
345 113 m 0
 447 113 549 183 549 323 c 0
 549 463 447 533 345 533 c 0
 243 533 141 463 141 323 c 0
 141 183 243 113 345 113 c 0
345 923 m 0
 447 923 549 993 549 1133 c 0
 549 1273 447 1343 345 1343 c 0
 243 1343 141 1273 141 1133 c 0
 141 993 243 923 345 923 c 0
EndSplineSet
EndChar

StartChar: semicolon
Encoding: 59 59 45
Width: 710
Flags: W
LayerCount: 2
Fore
SplineSet
262 129 m 1
 263 130 l 1
 299 115 308 59 279 33 c 0
 262 18 241 7 217 0 c 0
 177 -11 164 -28 164 -68 c 2
 164 -96 l 2
 164 -109 172 -118 185 -119 c 0
 193 -120 201 -120 208 -120 c 0
 429 -120 555 99 555 283 c 0
 555 412 489 523 345 523 c 0
 243 523 141 456 141 323 c 0
 141 222 194 157 262 129 c 1
346 924 m 0
 448 924 550 994 550 1134 c 0
 550 1274 448 1344 346 1344 c 0
 244 1344 142 1274 142 1134 c 0
 142 994 244 924 346 924 c 0
EndSplineSet
EndChar

StartChar: less
Encoding: 60 60 46
Width: 1036
Flags: W
LayerCount: 2
Fore
SplineSet
75 565 m 1
 75 567 l 2
 75 516 97 478 141 453 c 2
 884 38 l 2
 920 18 951 36 951 77 c 2
 951 429 l 2
 951 479 928 516 883 538 c 2
 404 772 l 2
 377 785 377 811 404 824 c 2
 883 1059 l 2
 928 1081 951 1118 951 1168 c 2
 951 1521 l 2
 951 1562 920 1580 885 1560 c 2
 141 1136 l 2
 97 1111 75 1073 75 1022 c 2
 75 565 l 1
EndSplineSet
EndChar

StartChar: equal
Encoding: 61 61 47
Width: 1008
Flags: W
LayerCount: 2
Fore
SplineSet
165 336 m 2
 118 336 90 308 90 261 c 2
 90 77 l 2
 90 30 118 2 165 2 c 2
 847 2 l 2
 894 2 922 30 922 77 c 2
 922 261 l 2
 922 308 894 336 847 336 c 2
 165 336 l 2
165 897 m 2
 118 897 90 869 90 822 c 2
 90 638 l 2
 90 591 118 563 165 563 c 2
 847 563 l 2
 894 563 922 591 922 638 c 2
 922 822 l 2
 922 869 894 897 847 897 c 2
 165 897 l 2
EndSplineSet
EndChar

StartChar: greater
Encoding: 62 62 48
Width: 1035
Flags: W
LayerCount: 2
Fore
SplineSet
963 1022 m 1
 963 1020 l 2
 963 1071 941 1109 897 1134 c 2
 152 1558 l 2
 117 1578 86 1560 86 1519 c 2
 86 1166 l 2
 86 1116 109 1079 154 1057 c 2
 633 822 l 2
 660 809 660 783 633 770 c 2
 154 536 l 2
 109 514 86 477 86 427 c 2
 86 75 l 2
 86 34 117 16 153 36 c 2
 897 451 l 2
 941 476 963 514 963 565 c 2
 963 1022 l 1
EndSplineSet
EndChar

StartChar: question
Encoding: 63 63 49
Width: 955
Flags: W
LayerCount: 2
Fore
SplineSet
923 1313 m 1
 924 1312 l 1
 924 1472 826 1631 491 1631 c 0
 411 1631 313 1616 193 1583 c 0
 147 1570 123 1535 128 1488 c 2
 148 1293 l 2
 153 1247 183 1227 227 1241 c 0
 276 1257 316 1264 349 1264 c 0
 452 1264 491 1212 491 1150 c 0
 491 1141 490 1132 489 1123 c 0
 462 979 344 814 344 582 c 0
 344 536 364 510 405 510 c 0
 432 510 462 524 467 567 c 0
 507 912 923 1009 923 1313 c 1
408 -40 m 0
 510 -40 612 30 612 170 c 0
 612 310 510 380 408 380 c 0
 306 380 204 310 204 170 c 0
 204 30 306 -40 408 -40 c 0
EndSplineSet
EndChar

StartChar: at
Encoding: 64 64 50
Width: 2198
Flags: W
LayerCount: 2
Fore
SplineSet
2133 878 m 1
 2132 875 l 1
 2132 1505 1839 1738 1147 1738 c 0
 439 1738 73 1492 73 684 c 0
 73 -180 424 -396 1239 -396 c 0
 1413 -396 1571 -344 1696 -275 c 0
 1737 -252 1756 -211 1746 -166 c 2
 1721 -55 l 2
 1710 -8 1676 13 1629 2 c 0
 1418 -46 1311 -61 1221 -61 c 0
 588 -61 427 56 427 689 c 0
 427 1201 564 1421 1151 1421 c 0
 1586 1421 1776 1336 1776 829 c 2
 1776 387 l 2
 1776 350 1754 328 1717 328 c 2
 1666 328 l 2
 1629 328 1607 350 1607 387 c 2
 1607 834 l 2
 1607 1143 1496 1245 1138 1245 c 0
 858 1245 663 1201 663 953 c 0
 663 941 663 929 663 917 c 0
 663 896 675 884 696 884 c 2
 1048 884 l 2
 1090 884 1115 909 1115 951 c 2
 1115 991 l 2
 1115 1009 1126 1020 1144 1020 c 2
 1146 1020 l 2
 1164 1020 1175 1009 1175 991 c 2
 1175 850 l 2
 1175 814 1155 800 1121 812 c 0
 1075 828 1019 835 950 835 c 0
 708 835 612 731 612 492 c 0
 612 463 612 434 613 404 c 0
 620 198 733 112 950 112 c 0
 1042 112 1111 148 1162 195 c 0
 1191 222 1210 222 1238 194 c 0
 1293 138 1375 105 1477 93 c 0
 1501 90 1564 88 1593 89 c 0
 2051 106 2133 422 2133 878 c 1
1127 638 m 2
 1155 638 1172 621 1172 593 c 2
 1172 379 l 2
 1172 351 1155 334 1127 334 c 2
 1125 334 l 2
 1097 334 1080 351 1080 379 c 2
 1080 593 l 2
 1080 621 1097 638 1125 638 c 2
 1127 638 l 2
EndSplineSet
EndChar

StartChar: A
Encoding: 65 65 51
Width: 1640
Flags: W
LayerCount: 2
Fore
SplineSet
902 615 m 2
 903 606 904 599 904 594 c 0
 904 578 897 576 869 576 c 2
 771 576 l 2
 743 576 735 578 735 595 c 0
 735 600 736 607 737 615 c 2
 785 1085 l 1
 807 1265 l 2
 808 1271 813 1273 818 1273 c 0
 823 1273 828 1271 828 1265 c 2
 852 1085 l 1
 902 615 l 2
669 75 m 2
 704 327 l 2
 710 365 704 366 743 366 c 2
 897 366 l 2
 936 366 930 365 936 327 c 2
 970 75 l 2
 977 27 1008 0 1057 0 c 2
 1492 0 l 2
 1532 0 1556 23 1556 58 c 0
 1556 63 1532 496 1325 1520 c 0
 1315 1569 1284 1595 1235 1595 c 2
 400 1595 l 2
 351 1595 320 1570 310 1520 c 0
 106 487 84 64 84 58 c 0
 84 23 108 0 148 0 c 2
 582 0 l 2
 631 0 662 27 669 75 c 2
EndSplineSet
EndChar

StartChar: B
Encoding: 66 66 52
Width: 1666
Flags: W
LayerCount: 2
Fore
SplineSet
1035 0 m 2
 1424 0 1579 91 1579 460 c 0
 1579 647 1541 812 1233 875 c 1
 1501 911 1538 1019 1538 1219 c 0
 1538 1551 1299 1595 1039 1595 c 2
 241 1595 l 2
 193 1595 169 1567 165 1519 c 0
 149 1300 140 1062 140 818 c 0
 140 574 149 323 165 76 c 0
 168 31 193 0 241 0 c 2
 1035 0 l 2
809 905 m 2
 771 905 769 907 769 945 c 2
 769 1242 l 2
 769 1280 771 1282 809 1282 c 2
 909 1282 l 2
 947 1282 969 1260 969 1222 c 2
 969 965 l 2
 969 927 947 905 909 905 c 2
 809 905 l 2
809 315 m 2
 771 315 769 317 769 355 c 2
 769 710 l 2
 769 748 771 750 809 750 c 2
 909 750 l 2
 947 750 969 728 969 690 c 2
 969 375 l 2
 969 337 947 315 909 315 c 2
 809 315 l 2
EndSplineSet
EndChar

StartChar: C
Encoding: 67 67 53
Width: 1692
Flags: W
LayerCount: 2
Fore
SplineSet
981 568 m 0
 978 295 962 315 866 315 c 2
 830 315 l 2
 728 315 727 314 727 796 c 0
 727 1240 728 1282 830 1282 c 2
 866 1282 l 2
 963 1282 979 1267 981 1018 c 0
 981 970 1005 922 1091 922 c 2
 1489 922 l 2
 1561 922 1583 958 1583 1010 c 1
 1554 1603 1366 1631 843 1631 c 0
 242 1631 105 1568 105 805 c 0
 105 19 223 -39 843 -39 c 0
 1392 -39 1558 -29 1583 575 c 1
 1583 619 1563 670 1493 670 c 2
 1084 670 l 2
 1015 670 981 616 981 568 c 0
EndSplineSet
EndChar

StartChar: D
Encoding: 68 68 54
Width: 1751
Flags: W
LayerCount: 2
Fore
SplineSet
774 1242 m 2
 774 1280 776 1282 814 1282 c 2
 909 1282 l 2
 947 1282 1001 1259 1006 1222 c 0
 1022 1117 1030 962 1030 804 c 0
 1030 649 1022 491 1006 374 c 0
 1001 338 947 314 909 314 c 2
 814 314 l 2
 776 314 774 316 774 354 c 2
 774 1242 l 2
240 1595 m 2
 192 1595 168 1567 164 1519 c 0
 141 1259 140 1018 140 783 c 0
 140 547 141 316 164 76 c 0
 169 29 192 0 240 0 c 2
 983 0 l 2
 1294 0 1556 34 1609 393 c 0
 1628 519 1637 657 1637 797 c 0
 1637 936 1628 1076 1609 1204 c 0
 1559 1549 1299 1595 983 1595 c 2
 240 1595 l 2
EndSplineSet
EndChar

StartChar: E
Encoding: 69 69 55
Width: 1191
Flags: W
LayerCount: 2
Fore
SplineSet
235 1595 m 2
 187 1595 162 1565 159 1519 c 0
 148 1366 140 1112 140 836 c 0
 140 581 147 307 159 76 c 0
 162 28 187 0 235 0 c 2
 1037 0 l 2
 1085 0 1113 28 1113 76 c 2
 1113 175 l 2
 1113 223 1085 251 1037 251 c 2
 832 251 l 2
 794 251 772 273 772 311 c 2
 772 651 l 2
 772 689 794 711 832 711 c 2
 1014 711 l 2
 1062 711 1090 739 1090 787 c 2
 1090 885 l 2
 1090 933 1062 961 1014 961 c 2
 832 961 l 2
 794 961 772 983 772 1021 c 2
 772 1286 l 2
 772 1324 794 1346 832 1346 c 2
 1037 1346 l 2
 1085 1346 1113 1374 1113 1422 c 2
 1113 1519 l 2
 1113 1567 1085 1595 1037 1595 c 2
 235 1595 l 2
EndSplineSet
EndChar

StartChar: F
Encoding: 70 70 56
Width: 1102
Flags: W
LayerCount: 2
Fore
SplineSet
180 1595 m 1
 181 1599 l 1
 134 1599 106 1571 106 1524 c 2
 106 81 l 2
 106 34 134 6 181 6 c 2
 633 6 l 2
 680 6 708 34 708 81 c 2
 708 651 l 2
 708 688 730 710 767 710 c 2
 950 710 l 2
 997 710 1025 738 1025 785 c 2
 1025 882 l 2
 1025 929 997 957 950 957 c 2
 767 957 l 2
 730 957 708 979 708 1016 c 2
 708 1289 l 2
 708 1326 730 1348 767 1348 c 2
 973 1348 l 2
 1020 1348 1048 1376 1048 1423 c 2
 1048 1520 l 2
 1048 1567 1020 1595 973 1595 c 2
 180 1595 l 1
EndSplineSet
EndChar

StartChar: G
Encoding: 71 71 57
Width: 1695
Flags: W
LayerCount: 2
Fore
SplineSet
1444 0 m 2
 1478 -31 1590 28 1590 76 c 2
 1590 730 l 2
 1590 778 1562 806 1514 806 c 2
 976 806 l 2
 928 806 900 778 900 730 c 2
 900 617 l 2
 900 591 916 575 942 575 c 2
 944 575 l 1
 1025 575 l 2
 1074 575 1075 557 1075 534 c 2
 1075 393 l 1
 1070 339 1052 315 995 315 c 2
 839 315 l 2
 737 315 736 314 736 796 c 0
 736 1280 737 1282 839 1282 c 2
 905 1282 l 2
 980 1282 988 1277 990 998 c 0
 990 950 1014 922 1060 922 c 2
 1528 922 l 2
 1570 922 1592 958 1592 1010 c 1
 1563 1603 1375 1631 852 1631 c 0
 251 1631 114 1568 114 805 c 0
 114 69 232 -39 852 -39 c 0
 1143 -39 1279 35 1326 110 c 1
 1444 0 l 2
EndSplineSet
EndChar

StartChar: H
Encoding: 72 72 58
Width: 1788
Flags: W
LayerCount: 2
Fore
SplineSet
1089 1595 m 2
 1041 1595 1013 1567 1013 1519 c 2
 1013 950 l 2
 1013 912 1011 908 973 908 c 2
 814 908 l 2
 776 908 774 912 774 950 c 2
 774 1519 l 2
 774 1567 746 1595 698 1595 c 2
 236 1595 l 2
 188 1595 164 1565 160 1519 c 0
 140 1268 140 1025 140 790 c 0
 140 543 141 305 160 76 c 0
 164 29 188 0 236 0 c 2
 698 0 l 2
 746 0 774 28 774 76 c 2
 774 648 l 2
 774 686 776 688 814 688 c 2
 973 688 l 2
 1011 688 1013 686 1013 648 c 2
 1013 76 l 2
 1013 28 1041 0 1089 0 c 2
 1551 0 l 2
 1599 0 1622 28 1627 76 c 0
 1648 283 1648 548 1648 810 c 0
 1648 1069 1648 1325 1627 1519 c 0
 1622 1566 1599 1595 1551 1595 c 2
 1089 1595 l 2
EndSplineSet
EndChar

StartChar: I
Encoding: 73 73 59
Width: 926
Flags: W
LayerCount: 2
Fore
SplineSet
237 1595 m 2
 189 1595 168 1565 161 1519 c 0
 147 1430 140 1137 140 842 c 0
 140 531 148 216 161 76 c 0
 165 30 189 0 237 0 c 2
 689 0 l 2
 737 0 762 29 765 76 c 0
 779 265 786 562 786 842 c 0
 786 1122 779 1386 765 1519 c 0
 760 1565 737 1595 689 1595 c 2
 237 1595 l 2
EndSplineSet
EndChar

StartChar: J
Encoding: 74 74 60
Width: 908
Flags: W
LayerCount: 2
Fore
SplineSet
303 1594 m 1
 300 1592 l 1
 253 1592 225 1564 225 1517 c 2
 225 196 l 2
 225 159 203 137 166 137 c 2
 128 137 l 2
 81 137 53 109 53 62 c 2
 53 -60 l 2
 53 -107 81 -139 128 -145 c 0
 190 -153 251 -158 309 -158 c 0
 603 -158 830 -43 830 275 c 2
 830 1519 l 2
 830 1566 802 1594 755 1594 c 2
 303 1594 l 1
EndSplineSet
EndChar

StartChar: K
Encoding: 75 75 61
Width: 1725
Flags: W
LayerCount: 2
Fore
SplineSet
1622 0 m 2
 1664 0 1684 31 1667 69 c 2
 1340 790 l 2
 1324 826 1324 862 1341 898 c 2
 1627 1526 l 2
 1644 1564 1624 1595 1582 1595 c 2
 1115 1595 l 2
 1065 1595 1030 1571 1012 1524 c 2
 835 1052 l 2
 821 1016 801 953 791 915 c 2
 777 861 l 2
 774 850 766 845 755 847 c 1
 753 847 l 1
 742 849 736 857 737 868 c 2
 746 994 l 1
 746 1519 l 2
 746 1566 718 1594 671 1594 c 2
 218 1594 l 2
 171 1594 143 1566 143 1519 c 2
 143 76 l 2
 143 29 171 1 218 1 c 2
 671 1 l 2
 718 1 746 29 746 76 c 2
 746 492 l 1
 738 617 l 2
 736 642 746 661 768 674 c 1
 770 675 l 1
 790 687 808 681 816 660 c 2
 1035 71 l 2
 1052 24 1087 0 1137 0 c 2
 1622 0 l 2
EndSplineSet
EndChar

StartChar: L
Encoding: 76 76 62
Width: 1122
Flags: W
LayerCount: 2
Fore
SplineSet
1021 0 m 2
 1069 0 1097 28 1097 76 c 2
 1097 165 l 2
 1097 213 1069 241 1021 241 c 2
 816 241 l 2
 778 241 756 263 756 301 c 2
 756 1519 l 2
 756 1567 728 1595 680 1595 c 2
 228 1595 l 2
 180 1595 157 1565 152 1519 c 0
 139 1392 133 1095 133 798 c 0
 133 500 139 203 152 76 c 0
 157 30 180 0 228 0 c 2
 1021 0 l 2
EndSplineSet
EndChar

StartChar: M
Encoding: 77 77 63
Width: 2052
Flags: W
LayerCount: 2
Fore
SplineSet
1473 76 m 1
 1476 28 1506 0 1554 0 c 2
 1838 0 l 2
 1883 0 1911 27 1911 71 c 0
 1911 75 1912 105 1912 165 c 0
 1912 338 1904 760 1844 1519 c 0
 1840 1567 1812 1595 1764 1595 c 2
 1235 1595 l 2
 1186 1595 1155 1568 1148 1520 c 2
 1043 719 l 2
 1043 714 1037 711 1032 711 c 0
 1026 711 1021 714 1020 719 c 2
 903 1520 l 2
 896 1568 865 1595 816 1595 c 2
 288 1595 l 2
 240 1595 212 1567 208 1519 c 0
 148 788 140 358 140 176 c 0
 140 105 141 71 141 71 c 2
 141 27 169 0 214 0 c 2
 513 0 l 2
 561 0 591 28 594 76 c 1
 621 939 l 1
 774 75 l 2
 782 27 811 0 860 0 c 2
 1195 0 l 2
 1244 0 1273 27 1282 75 c 2
 1445 939 l 1
 1473 76 l 1
EndSplineSet
EndChar

StartChar: N
Encoding: 78 78 64
Width: 1715
Flags: W
LayerCount: 2
Fore
SplineSet
1477 0 m 2
 1525 0 1551 28 1553 76 c 0
 1566 349 1575 572 1575 829 c 0
 1575 1050 1569 1306 1553 1519 c 0
 1550 1566 1525 1595 1477 1595 c 2
 1185 1595 l 2
 1137 1595 1109 1567 1109 1519 c 2
 1109 894 l 2
 1109 881 1103 874 1096 874 c 0
 1091 874 1085 877 1080 886 c 2
 715 1529 l 2
 690 1573 653 1595 602 1595 c 2
 237 1595 l 2
 189 1595 164 1567 161 1519 c 0
 147 1291 140 1057 140 817 c 0
 140 577 147 330 161 76 c 0
 164 28 189 0 237 0 c 2
 533 0 l 2
 581 0 609 28 609 76 c 2
 609 651 l 2
 609 664 615 671 622 671 c 0
 627 671 633 668 638 659 c 2
 976 66 l 2
 1002 22 1039 0 1090 0 c 2
 1477 0 l 2
EndSplineSet
EndChar

StartChar: O
Encoding: 79 79 65
Width: 1710
Flags: W
LayerCount: 2
Fore
SplineSet
852 1631 m 0
 251 1631 114 1568 114 805 c 0
 114 19 232 -39 852 -39 c 0
 1454 -39 1596 21 1596 808 c 0
 1596 1573 1424 1631 852 1631 c 0
839 315 m 2
 737 315 736 314 736 796 c 0
 736 1280 737 1282 839 1282 c 2
 875 1282 l 2
 988 1282 991 1283 991 799 c 0
 991 315 988 315 875 315 c 2
 839 315 l 2
EndSplineSet
EndChar

StartChar: P
Encoding: 80 80 66
Width: 1550
Flags: W
LayerCount: 2
Fore
SplineSet
104 76 m 1
 106 75 l 1
 106 28 134 0 181 0 c 2
 633 0 l 2
 680 0 708 28 708 75 c 2
 708 342 l 2
 708 379 730 401 767 401 c 2
 859 401 l 2
 1169 401 1484 427 1484 792 c 2
 1484 1203 l 2
 1484 1558 1174 1594 858 1594 c 2
 179 1594 l 2
 132 1594 104 1566 104 1519 c 2
 104 76 l 1
709 1302 m 2
 709 1339 731 1361 768 1361 c 2
 822 1361 l 2
 859 1361 881 1339 881 1302 c 2
 881 687 l 2
 881 650 859 628 822 628 c 2
 768 628 l 2
 731 628 709 650 709 687 c 2
 709 1302 l 2
EndSplineSet
EndChar

StartChar: Q
Encoding: 81 81 67
Width: 1710
Flags: W
LayerCount: 2
Fore
SplineSet
1106 -491 m 0
 1153 -491 1303 -479 1356 -475 c 0
 1405 -472 1407 -453 1416 -406 c 2
 1448 -233 l 2
 1449 -228 1449 -222 1449 -217 c 0
 1449 -187 1430 -168 1399 -168 c 0
 1395 -168 1391 -168 1387 -169 c 0
 1346 -175 1303 -179 1264 -179 c 0
 1216 -179 1090 -173 1061 -159 c 0
 1048 -153 1054 -80 1053 -36 c 1
 1487 -13 1596 117 1596 808 c 0
 1596 1573 1424 1631 852 1631 c 0
 251 1631 114 1568 114 805 c 0
 114 197 185 25 503 -22 c 0
 506 -23 508 -23 511 -24 c 0
 594 -42 606 -68 606 -114 c 0
 606 -134 604 -188 604 -222 c 0
 606 -455 828 -491 1106 -491 c 0
838 315 m 2
 737 315 736 316 736 796 c 0
 736 1280 737 1282 839 1282 c 2
 876 1282 l 2
 988 1282 991 1281 991 799 c 0
 991 315 988 315 875 315 c 2
 838 315 l 2
EndSplineSet
EndChar

StartChar: R
Encoding: 82 82 68
Width: 1680
Flags: W
LayerCount: 2
Fore
SplineSet
773 1318 m 2
 773 1356 775 1358 813 1358 c 2
 886 1358 l 2
 924 1358 946 1336 946 1298 c 2
 946 941 l 2
 946 903 924 881 886 881 c 2
 811 881 l 2
 773 881 773 883 773 921 c 2
 773 1318 l 2
773 76 m 2
 773 609 l 2
 773 647 773 649 811 649 c 2
 875 649 l 2
 913 649 935 627 935 589 c 1
 1006 76 l 1
 1006 28 1034 0 1082 0 c 2
 1537 0 l 2
 1585 0 1619 28 1613 76 c 2
 1550 562 l 2
 1536 673 1482 786 1352 821 c 1
 1495 874 1533 991 1533 1190 c 0
 1533 1502 1365 1595 1076 1595 c 2
 239 1595 l 2
 191 1595 167 1565 162 1519 c 0
 141 1310 140 1036 140 769 c 0
 140 511 146 259 162 78 c 0
 166 32 186 0 234 0 c 2
 697 0 l 2
 745 0 773 28 773 76 c 2
EndSplineSet
EndChar

StartChar: S
Encoding: 83 83 69
Width: 1580
Flags: W
LayerCount: 2
Fore
SplineSet
804 -39 m 0
 1272 -39 1482 25 1482 489 c 0
 1482 910 1343 982 826 1034 c 0
 781 1039 705 1051 704 1090 c 0
 704 1091 704 1091 703 1091 c 2
 702 1093 l 2
 701 1093 701 1093 701 1094 c 2
 701 1260 l 2
 701 1298 723 1320 761 1320 c 2
 814 1320 l 2
 852 1320 874 1298 874 1260 c 2
 874 1196 l 2
 874 1128 882 1106 930 1108 c 2
 1378 1130 l 2
 1420 1132 1426 1160 1426 1201 c 2
 1426 1206 l 1
 1404 1601 1152 1631 774 1631 c 0
 366 1631 124 1550 124 1111 c 0
 124 712 255 655 758 603 c 0
 808 598 876 578 876 525 c 2
 876 335 l 2
 876 297 854 275 816 275 c 2
 763 275 l 2
 725 275 703 297 703 335 c 2
 703 452 l 2
 703 500 685 513 637 516 c 2
 189 546 l 2
 147 549 131 511 131 469 c 2
 131 467 l 1
 132 443 134 368 136 345 c 0
 169 -10 431 -39 804 -39 c 0
EndSplineSet
EndChar

StartChar: T
Encoding: 84 84 70
Width: 1313
Flags: W
LayerCount: 2
Fore
SplineSet
957 76 m 0
 971 265 978 562 978 842 c 0
 978 1033 975 1198 968 1326 c 1
 1237 1326 l 2
 1285 1326 1313 1354 1313 1402 c 2
 1313 1519 l 2
 1313 1567 1285 1595 1237 1595 c 2
 76 1595 l 2
 28 1595 0 1567 0 1519 c 2
 0 1402 l 2
 0 1354 28 1326 76 1326 c 2
 341 1326 l 1
 335 1204 332 1031 332 842 c 0
 332 531 340 216 353 76 c 0
 357 30 381 0 429 0 c 2
 881 0 l 2
 929 0 954 29 957 76 c 0
EndSplineSet
EndChar

StartChar: U
Encoding: 85 85 71
Width: 1556
Flags: W
LayerCount: 2
Fore
SplineSet
701 1519 m 1
 696 1519 l 1
 696 1566 668 1594 621 1594 c 2
 169 1594 l 2
 122 1594 94 1566 94 1519 c 2
 94 371 l 2
 94 -7 506 -39 783 -39 c 0
 1085 -39 1476 -4 1476 370 c 2
 1476 1518 l 2
 1476 1565 1448 1593 1401 1593 c 2
 948 1593 l 2
 901 1593 873 1565 873 1518 c 2
 873 293 l 2
 873 256 851 234 814 234 c 2
 760 234 l 2
 723 234 701 256 701 293 c 2
 701 1519 l 1
EndSplineSet
EndChar

StartChar: V
Encoding: 86 86 72
Width: 1610
Flags: W
LayerCount: 2
Fore
SplineSet
667 1520 m 2
 660 1568 630 1595 581 1595 c 2
 142 1595 l 2
 102 1595 80 1572 80 1536 c 0
 80 1531 80 1526 81 1521 c 0
 157 1019 260 459 369 74 c 0
 382 29 411 0 460 0 c 2
 1150 0 l 2
 1199 0 1229 26 1241 74 c 0
 1335 454 1454 1012 1529 1521 c 0
 1530 1526 1530 1530 1530 1535 c 0
 1530 1571 1508 1595 1468 1595 c 2
 1028 1595 l 2
 979 1595 948 1568 943 1520 c 1
 823 598 l 2
 823 593 819 591 815 591 c 0
 811 591 806 594 805 600 c 2
 667 1520 l 2
EndSplineSet
EndChar

StartChar: W
Encoding: 87 87 73
Width: 2108
Flags: W
LayerCount: 2
Fore
SplineSet
1327 1520 m 1
 1323 1523 l 1
 1318 1571 1288 1598 1240 1598 c 2
 878 1598 l 2
 830 1598 800 1571 795 1523 c 2
 720 856 l 1
 705 605 l 2
 704 593 697 586 685 586 c 2
 683 586 l 2
 671 586 664 593 663 605 c 2
 622 1522 l 2
 620 1570 591 1598 543 1598 c 2
 112 1598 l 2
 66 1598 40 1568 47 1522 c 2
 254 77 l 2
 261 29 292 2 341 2 c 2
 831 2 l 2
 880 2 911 29 919 77 c 2
 995 555 l 2
 1002 596 1009 664 1011 705 c 2
 1020 910 l 2
 1021 922 1028 929 1040 929 c 2
 1042 929 l 2
 1054 929 1061 922 1062 910 c 2
 1072 705 l 2
 1074 664 1081 595 1087 554 c 2
 1162 76 l 2
 1170 28 1201 1 1250 1 c 2
 1760 1 l 2
 1809 1 1840 28 1847 76 c 2
 2064 1521 l 2
 2071 1566 2045 1596 1999 1596 c 2
 1620 1596 l 2
 1572 1596 1542 1569 1538 1521 c 2
 1452 603 l 2
 1451 593 1445 587 1435 586 c 1
 1433 586 l 1
 1424 585 1418 590 1417 599 c 2
 1401 853 l 1
 1327 1520 l 1
EndSplineSet
EndChar

StartChar: X
Encoding: 88 88 74
Width: 1586
Flags: W
LayerCount: 2
Fore
SplineSet
784 514 m 1
 786 514 l 1
 942 72 l 2
 959 25 993 0 1043 0 c 2
 1489 0 l 2
 1522 0 1541 18 1541 44 c 0
 1541 52 1540 61 1536 70 c 2
 1258 727 l 2
 1250 746 1247 764 1247 783 c 0
 1247 801 1250 819 1257 837 c 2
 1537 1525 l 2
 1541 1534 1542 1542 1542 1550 c 0
 1542 1576 1522 1595 1489 1595 c 2
 1047 1595 l 2
 997 1595 963 1570 946 1523 c 2
 791 1071 l 1
 789 1071 l 1
 635 1523 l 2
 619 1570 585 1595 535 1595 c 2
 97 1595 l 2
 64 1595 44 1576 44 1550 c 0
 44 1542 45 1534 49 1525 c 2
 326 837 l 2
 333 819 337 801 337 784 c 0
 337 765 333 746 325 727 c 2
 50 70 l 2
 46 61 45 52 45 44 c 0
 45 18 64 0 97 0 c 2
 531 0 l 2
 581 0 615 25 631 72 c 2
 784 514 l 1
EndSplineSet
EndChar

StartChar: Y
Encoding: 89 89 75
Width: 1509
Flags: W
LayerCount: 2
Fore
SplineSet
982 0 m 2
 1030 0 1055 29 1058 76 c 0
 1067 194 1073 355 1076 528 c 1
 1473 1524 l 2
 1489 1564 1467 1595 1424 1595 c 2
 1020 1595 l 2
 970 1595 937 1570 924 1522 c 2
 769 988 l 1
 768 980 763 975 755 975 c 2
 753 975 l 2
 744 975 739 980 738 988 c 1
 588 1522 l 2
 575 1570 542 1595 492 1595 c 2
 84 1595 l 2
 41 1595 20 1564 36 1524 c 2
 436 532 l 1
 439 338 445 169 454 76 c 0
 458 30 482 0 530 0 c 2
 982 0 l 2
EndSplineSet
EndChar

StartChar: Z
Encoding: 90 90 76
Width: 1138
Flags: W
LayerCount: 2
Fore
SplineSet
144 1595 m 1
 144 1594 l 1
 97 1594 69 1566 69 1519 c 2
 69 1380 l 2
 69 1333 97 1305 144 1305 c 2
 381 1305 l 2
 416 1305 434 1281 424 1248 c 2
 78 74 l 2
 66 32 89 2 133 2 c 2
 1007 2 l 2
 1054 2 1082 30 1082 77 c 2
 1082 219 l 2
 1082 266 1054 294 1007 294 c 2
 805 294 l 2
 770 294 752 318 761 352 c 2
 1073 1522 l 2
 1084 1565 1061 1595 1016 1595 c 2
 144 1595 l 1
EndSplineSet
EndChar

StartChar: bracketleft
Encoding: 91 91 77
Width: 1108
Flags: W
LayerCount: 2
Fore
SplineSet
85 -243 m 2
 85 -291 113 -319 161 -319 c 2
 1004 -319 l 2
 1052 -319 1060 -291 1060 -243 c 2
 1060 -154 l 2
 1060 -106 1052 -78 1004 -78 c 2
 759 -78 l 2
 721 -78 719 -66 719 -28 c 2
 719 1527 l 2
 719 1565 721 1577 759 1577 c 2
 1004 1577 l 2
 1052 1577 1060 1605 1060 1653 c 2
 1060 1743 l 2
 1060 1791 1052 1819 1004 1819 c 2
 161 1819 l 2
 113 1819 85 1791 85 1743 c 2
 85 -243 l 2
EndSplineSet
EndChar

StartChar: backslash
Encoding: 92 92 78
Width: 1053
Flags: W
LayerCount: 2
Fore
SplineSet
189 1595 m 2
 144 1595 120 1565 130 1521 c 2
 448 74 l 2
 459 26 491 0 540 0 c 2
 863 0 l 2
 908 0 932 30 922 74 c 2
 603 1521 l 2
 592 1569 560 1595 511 1595 c 2
 189 1595 l 2
EndSplineSet
EndChar

StartChar: bracketright
Encoding: 93 93 79
Width: 1108
Flags: W
LayerCount: 2
Fore
SplineSet
1010 1743 m 1
 1010 1741 l 2
 1010 1788 982 1816 935 1816 c 2
 92 1816 l 2
 44 1816 36 1788 36 1741 c 2
 36 1652 l 2
 36 1605 44 1577 92 1577 c 2
 337 1577 l 2
 375 1577 377 1565 377 1527 c 2
 377 -28 l 2
 377 -66 375 -78 337 -78 c 2
 92 -78 l 2
 44 -78 36 -106 36 -153 c 2
 36 -243 l 2
 36 -290 44 -318 92 -318 c 2
 935 -318 l 2
 982 -318 1010 -290 1010 -243 c 2
 1010 1743 l 1
EndSplineSet
EndChar

StartChar: asciicircum
Encoding: 94 94 80
Width: 1222
Flags: W
LayerCount: 2
Fore
SplineSet
394 676 m 1
 393 676 l 2
 343 676 307 653 287 607 c 2
 76 131 l 2
 59 92 79 61 121 61 c 2
 449 61 l 2
 499 61 532 86 545 134 c 2
 595 323 l 2
 601 345 620 345 626 323 c 2
 678 134 l 2
 691 86 724 61 774 61 c 2
 1103 61 l 2
 1145 61 1165 92 1147 130 c 2
 927 607 l 2
 906 653 870 676 820 676 c 2
 394 676 l 1
EndSplineSet
EndChar

StartChar: underscore
Encoding: 95 95 81
Width: 1042
Flags: W
LayerCount: 2
Fore
SplineSet
154 1 m 2
 107 1 79 -27 79 -74 c 2
 79 -358 l 2
 79 -405 107 -433 154 -433 c 2
 891 -433 l 2
 938 -433 966 -405 966 -358 c 2
 966 -74 l 2
 966 -27 938 1 891 1 c 2
 154 1 l 2
EndSplineSet
EndChar

StartChar: grave
Encoding: 96 96 82
Width: 873
Flags: W
LayerCount: 2
Fore
SplineSet
340 1893 m 0
 295 1919 253 1930 215 1930 c 0
 112 1930 41 1846 41 1752 c 0
 41 1687 76 1617 157 1570 c 0
 261 1510 548 1438 753 1376 c 0
 764 1372 775 1371 785 1371 c 0
 820 1371 848 1391 848 1420 c 0
 848 1438 838 1459 814 1480 c 0
 651 1629 441 1835 340 1893 c 0
EndSplineSet
EndChar

StartChar: a
Encoding: 97 97 83
Width: 1563
Flags: W
LayerCount: 2
Fore
SplineSet
758 -27 m 0
 473 -14 323 95 323 388 c 0
 323 777 618 793 1055 793 c 2
 1196 793 l 1
 1196 826 l 2
 1196 1088 1159 1181 865 1181 c 0
 604 1181 573 1132 557 1028 c 2
 551 988 l 2
 544 940 537 927 478 927 c 2
 444 927 l 2
 413 927 392 947 388 978 c 1
 386 1005 l 1
 386 1254 572 1327 860 1327 c 0
 1237 1327 1381 1194 1381 843 c 2
 1381 257 l 2
 1381 192 1387 131 1396 76 c 0
 1397 71 1397 65 1397 61 c 0
 1397 23 1374 1 1332 1 c 2
 1323 1 l 2
 1275 1 1276 4 1257 49 c 2
 1243 84 l 2
 1235 104 1233 125 1226 125 c 0
 1222 125 1215 116 1204 94 c 0
 1163 13 975 -37 758 -27 c 0
841 118 m 0
 966 118 1125 141 1155 158 c 0
 1188 177 1196 160 1196 198 c 2
 1196 624 l 2
 1196 662 1194 664 1156 664 c 2
 915 664 l 2
 672 664 509 669 509 439 c 0
 509 216 553 118 841 118 c 0
EndSplineSet
EndChar

StartChar: b
Encoding: 98 98 84
Width: 1563
Flags: W
LayerCount: 2
Fore
SplineSet
871 -27 m 1
 872 -28 l 1
 739 -28 600 20 542 64 c 0
 530 73 493 104 484 119 c 1
 483 99 482 80 481 65 c 0
 477 6 459 -1 411 -1 c 2
 384 -1 l 2
 336 -1 332 17 325 65 c 1
 313 310 307 561 307 838 c 0
 307 1078 306 1516 310 1683 c 0
 311 1734 332 1749 380 1749 c 2
 409 1749 l 2
 457 1749 469 1731 476 1683 c 1
 481 1569 486 1376 489 1242 c 0
 489 1222 489 1202 489 1183 c 1
 498 1200 510 1206 524 1217 c 0
 607 1283 731 1327 910 1327 c 0
 1177 1327 1355 1210 1395 913 c 0
 1402 861 1410 766 1410 650 c 0
 1410 535 1402 439 1397 393 c 0
 1357 33 1129 -27 871 -27 c 1
884 112 m 0
 1084 124 1171 178 1207 372 c 0
 1218 432 1226 550 1226 665 c 0
 1226 753 1214 857 1206 914 c 0
 1180 1102 1110 1182 871 1182 c 0
 696 1182 539 1112 494 1024 c 1
 494 242 l 1
 564 157 697 101 884 112 c 0
EndSplineSet
EndChar

StartChar: c
Encoding: 99 99 85
Width: 1525
Flags: W
LayerCount: 2
Fore
SplineSet
1421 792 m 0
 1421 845 1414 898 1404 952 c 0
 1338 1292 1083 1327 764 1327 c 0
 467 1327 163 1293 115 953 c 0
 100 848 102 743 102 641 c 0
 102 542 100 445 115 353 c 0
 175 -7 445 -27 763 -27 c 0
 1068 -27 1334 -12 1404 352 c 0
 1414 405 1420 454 1421 502 c 0
 1421 505 1419 524 1404 524 c 2
 878 524 l 2
 865 524 863 515 863 493 c 2
 863 393 l 2
 863 282 862 233 772 233 c 2
 746 233 l 2
 653 233 653 276 653 391 c 2
 653 955 l 2
 653 1073 653 1105 746 1105 c 2
 772 1105 l 2
 863 1105 863 1070 863 955 c 2
 863 801 l 2
 863 782 869 774 884 774 c 2
 1408 774 l 2
 1420 774 1421 784 1421 792 c 0
EndSplineSet
EndChar

StartChar: d
Encoding: 100 100 86
Width: 1485
Flags: HWO
LayerCount: 2
Back
SplineSet
1153 0 m 6
 1192 0 l 6
 1240 0 1254 37 1257 85 c 4
 1274 340 1270 549 1270 759 c 4
 1270 914 1274 1065 1262 1224 c 4
 1258 1283 1248 1300 1200 1300 c 6
 1173 1300 l 6
 1135 1300 1122 1285 1118 1233 c 4
 1115 1194 1116 1184 1103 1188 c 4
 1089 1192 923 1327 674 1327 c 4
 433 1327 242 1233 223 960 c 4
 216 861 212 730 212 556 c 4
 212 394 216 220 225 76 c 4
 228 28 244 0 292 0 c 6
 321 0 l 6
 369 0 397 28 397 76 c 6
 397 844 l 6
 397 1102 483 1183 684 1183 c 4
 881 1183 1041 1092 1089 1057 c 5
 1089 87 l 6
 1089 32 1105 0 1153 0 c 6
EndSplineSet
Fore
SplineSet
717 -26 m 0
 499.99609375 -24.4365234375 209.968896686 53.6860272177 212 466 c 2
 214 872 l 2
 215.4765625 1171.67773438 407 1327 694 1327 c 0
 943 1327 997 1252 1059 1217 c 0
 1091.78049211 1198.49488349 1089 1199 1089 1234 c 0
 1091 1368 1093 1569 1098 1683 c 1
 1105 1731 1117 1749 1165 1749 c 2
 1184 1749 l 2
 1232 1749 1250 1734 1254 1683 c 0
 1267 1516 1267 1078 1267 838 c 0
 1267 561 1273 310 1261 65 c 1
 1254 17 1242 -1 1194 -1 c 2
 1189 -1 l 2
 1141 -1 1120.71163539 8.94857915086 1119 68 c 0
 1117 137 1100 113 1056 84 c 0
 995.042332439 43.8233554714 899.994140625 -27.318359375 717 -26 c 0
737 117 m 0
 889 117 1037 207 1089 244 c 1
 1089 1055 l 1
 1042 1093 881 1187 716 1183 c 0
 477.070198628 1177.20776239 397 1076 397 856 c 2
 397 462 l 2
 397 225 506 117 737 117 c 0
EndSplineSet
EndChar

StartChar: e
Encoding: 101 101 87
Width: 1443
Flags: W
LayerCount: 2
Fore
SplineSet
763 -27 m 0
 360 -27 243 118 187 344 c 0
 168 422 169 545 169 658 c 0
 169 773 166 890 181 962 c 0
 229 1187 373 1327 754 1327 c 0
 1144 1327 1261 1122 1276 835 c 0
 1277 809 1279 782 1279 758 c 0
 1279 678 1265 615 1201 615 c 2
 389 615 l 2
 351 615 349 613 349 575 c 2
 349 514 l 2
 349 220 442 117 761 117 c 0
 979 117 1079 170 1100 323 c 0
 1107 371 1122 379 1166 379 c 2
 1197 379 l 2
 1228 379 1259 373 1262 342 c 0
 1262 336 1263 328 1263 319 c 0
 1263 310 1259 280 1258 272 c 0
 1241 134 1130 -27 763 -27 c 0
389 748 m 2
 1066 748 l 2
 1104 748 1106 750 1106 788 c 2
 1106 813 l 2
 1106 1068 1033 1183 755 1183 c 0
 392 1183 349 1036 349 825 c 2
 349 788 l 2
 349 750 351 748 389 748 c 2
EndSplineSet
EndChar

StartChar: f
Encoding: 102 102 88
Width: 1205
Flags: W
LayerCount: 2
Fore
SplineSet
132 1300 m 1
 134 1301 l 1
 86 1301 58 1273 58 1226 c 2
 58 1176 l 2
 58 1129 86 1101 134 1101 c 2
 235 1101 l 2
 263 1101 265 1099 265 1071 c 2
 265 79 l 2
 265 31 293 3 340 3 c 2
 759 3 l 2
 806 3 834 31 834 79 c 2
 834 1071 l 2
 834 1089 836 1101 854 1101 c 2
 1072 1101 l 2
 1120 1101 1148 1129 1148 1176 c 2
 1148 1226 l 2
 1148 1273 1120 1301 1072 1301 c 2
 864 1301 l 2
 846 1301 834 1306 834 1324 c 0
 834 1426 846 1478 994 1478 c 2
 1063 1478 l 2
 1111 1478 1139 1506 1139 1553 c 2
 1139 1611 l 2
 1139 1657 1111 1692 1066 1702 c 0
 970 1723 870 1731 773 1731 c 0
 466 1731 278 1609 265 1330 c 0
 264 1308 260 1300 241 1300 c 2
 132 1300 l 1
EndSplineSet
EndChar

StartChar: g
Encoding: 103 103 89
Width: 1553
Flags: W
LayerCount: 2
Fore
SplineSet
692 -351 m 0
 610 -353 438 -343 329 -319 c 0
 290 -310 267 -283 267 -246 c 1
 272 -217 l 2
 280 -175 303 -182 341 -182 c 0
 347 -182 354 -183 361 -184 c 0
 429 -196 573 -216 653 -216 c 0
 894 -216 1027 -141 1027 85 c 0
 1027 141 1026 184 1026 192 c 1
 1017 177 984 149 972 139 c 0
 919 93 808 46 648 46 c 0
 390 46 168 133 128 453 c 0
 122 499 108 565 108 680 c 0
 108 796 117 893 127 945 c 0
 174 1199 363 1327 630 1327 c 0
 809 1327 903 1283 986 1217 c 0
 1000 1206 1019 1189 1024 1181 c 1
 1026 1192 1030 1219 1034 1234 c 0
 1047 1284 1053 1300 1101 1300 c 2
 1120 1300 l 2
 1168 1300 1186 1285 1190 1234 c 0
 1203 1067 1203 748 1203 508 c 0
 1203 334 1199 221 1193 106 c 0
 1176 -200 1038 -342 692 -351 c 0
641 192 m 0
 788 192 976 237 1016 352 c 1
 1016 1024 l 1
 971 1112 849 1182 674 1182 c 0
 435 1182 339 1086 312 944 c 0
 301 887 292 783 292 695 c 0
 292 580 305 493 318 432 c 0
 348 288 441 192 641 192 c 0
EndSplineSet
EndChar

StartChar: h
Encoding: 104 104 90
Width: 1591
Flags: W
LayerCount: 2
Fore
SplineSet
414 0 m 2
 383 0 l 2
 335 0 323 28 316 76 c 1
 304 321 298 632 298 779 c 0
 298 899 299 1507 311 1674 c 0
 315 1733 333 1750 381 1750 c 2
 401 1750 l 2
 439 1750 456 1724 461 1687 c 0
 465 1660 480 1275 482 1211 c 0
 482 1203 485 1199 490 1199 c 0
 496 1199 506 1204 521 1215 c 0
 561 1244 697 1327 892 1327 c 0
 1133 1327 1308 1263 1327 990 c 0
 1334 887 1339 794 1339 626 c 0
 1339 480 1334 214 1325 76 c 0
 1322 28 1306 0 1258 0 c 2
 1229 0 l 2
 1181 0 1153 28 1153 76 c 2
 1153 874 l 2
 1153 1112 1068 1183 867 1183 c 0
 630 1183 484 1135 484 917 c 2
 484 76 l 2
 484 28 462 0 414 0 c 2
EndSplineSet
EndChar

StartChar: i
Encoding: 105 105 91
Width: 759
Flags: W
LayerCount: 2
Fore
SplineSet
370 1619 m 2
 409 1619 l 2
 457 1619 485 1591 485 1543 c 2
 485 1501 l 2
 485 1453 457 1425 409 1425 c 2
 370 1425 l 2
 322 1425 294 1453 294 1501 c 2
 294 1543 l 2
 294 1591 322 1619 370 1619 c 2
477 1234 m 1
 489 989 493 838 493 691 c 0
 493 571 494 233 482 66 c 0
 478 7 458 0 410 0 c 2
 391 0 l 2
 343 0 329 18 322 66 c 1
 310 311 306 542 306 689 c 0
 306 809 304 1067 317 1234 c 0
 321 1285 341 1300 389 1300 c 2
 408 1300 l 2
 456 1300 470 1282 477 1234 c 1
EndSplineSet
EndChar

StartChar: j
Encoding: 106 106 92
Width: 868
Flags: W
LayerCount: 2
Fore
SplineSet
784 1224 m 1
 780 1223 l 1
 780 1270 752 1298 705 1298 c 2
 285 1298 l 2
 238 1298 210 1270 210 1223 c 2
 210 -8 l 2
 210 -45 188 -67 151 -67 c 2
 97 -67 l 2
 51 -67 25 -96 31 -142 c 2
 43 -234 l 2
 49 -280 81 -312 127 -317 c 0
 185 -324 247 -326 323 -326 c 0
 620 -326 784 -199 784 94 c 2
 784 1224 l 1
284 1708 m 2
 237 1708 209 1680 209 1633 c 2
 209 1501 l 2
 209 1454 237 1426 284 1426 c 2
 704 1426 l 2
 751 1426 779 1454 779 1501 c 2
 779 1633 l 2
 779 1680 751 1708 704 1708 c 2
 284 1708 l 2
EndSplineSet
EndChar

StartChar: k
Encoding: 107 107 93
Width: 1637
Flags: W
LayerCount: 2
Fore
SplineSet
635 0 m 2
 683 0 709 28 711 76 c 2
 728 466 l 2
 729 495 732 544 750 554 c 0
 770 565 786 538 791 527 c 2
 981 70 l 2
 1000 24 1036 0 1086 0 c 2
 1530 0 l 2
 1561 0 1580 17 1580 41 c 0
 1580 49 1577 59 1573 68 c 2
 1294 656 l 2
 1286 674 1282 691 1282 708 c 0
 1282 726 1287 744 1296 762 c 2
 1547 1233 l 2
 1552 1243 1555 1253 1555 1261 c 0
 1555 1284 1537 1300 1507 1300 c 2
 1073 1300 l 2
 1022 1300 985 1278 961 1233 c 2
 756 851 l 2
 752 842 746 838 741 838 c 0
 734 838 728 845 728 858 c 2
 711 1634 l 1
 711 1682 683 1710 635 1710 c 2
 216 1710 l 2
 168 1710 142 1682 140 1634 c 0
 131 1421 128 1100 128 841 c 0
 128 493 134 216 140 76 c 0
 142 29 168 0 216 0 c 2
 635 0 l 2
EndSplineSet
EndChar

StartChar: l
Encoding: 108 108 94
Width: 853
Flags: W
LayerCount: 2
Fore
SplineSet
636 1710 m 2
 217 1710 l 2
 169 1710 143 1679 141 1634 c 0
 132 1409 128 1167 128 913 c 0
 128 644 133 363 141 76 c 0
 142 28 169 0 217 0 c 2
 636 0 l 2
 684 0 711 28 712 76 c 0
 719 377 725 625 725 907 c 0
 725 1146 720 1422 712 1634 c 0
 710 1681 684 1710 636 1710 c 2
EndSplineSet
EndChar

StartChar: m
Encoding: 109 109 95
Width: 2322
Flags: W
LayerCount: 2
Fore
SplineSet
708 76 m 2
 708 1045 l 2
 708 1083 730 1105 768 1105 c 2
 827 1105 l 2
 865 1105 887 1083 887 1045 c 2
 887 76 l 2
 887 28 915 0 963 0 c 2
 1370 0 l 2
 1418 0 1446 28 1446 76 c 2
 1446 997 l 2
 1446 1074 1448 1105 1511 1105 c 2
 1570 1105 l 2
 1608 1105 1630 1083 1630 1045 c 2
 1630 76 l 2
 1630 28 1658 0 1706 0 c 2
 2119 0 l 2
 2167 0 2192 28 2195 76 c 0
 2204 214 2208 380 2208 526 c 0
 2208 694 2203 861 2195 964 c 0
 2175 1215 2077 1327 1804 1327 c 0
 1558 1327 1470 1246 1414 1202 c 1
 1354 1284 1256 1326 1101 1327 c 0
 978 1327 798 1290 729 1231 c 0
 719 1222 709 1217 701 1217 c 0
 688 1217 677 1228 671 1247 c 1
 671 1245 l 1
 659 1281 633 1300 595 1300 c 2
 219 1300 l 2
 171 1300 150 1283 143 1224 c 1
 133 1046 128 862 128 672 c 0
 128 481 133 284 143 76 c 1
 150 28 171 0 219 0 c 2
 632 0 l 2
 680 0 708 28 708 76 c 2
EndSplineSet
EndChar

StartChar: n
Encoding: 110 110 96
Width: 1456
Flags: W
LayerCount: 2
Fore
SplineSet
340 0 m 6
 301 0 l 6
 253 0 239 37 236 85 c 4
 219 340 223 549 223 759 c 4
 223 914 219 1065 231 1224 c 4
 235 1283 245 1300 293 1300 c 6
 320 1300 l 6
 358 1300 371 1285 375 1233 c 4
 378 1194 377 1184 390 1188 c 4
 404 1192 570 1327 819 1327 c 4
 1060 1327 1251 1233 1270 960 c 4
 1277 861 1281 730 1281 556 c 4
 1281 394 1277 220 1268 76 c 4
 1265 28 1249 0 1201 0 c 6
 1172 0 l 6
 1124 0 1096 28 1096 76 c 6
 1096 844 l 6
 1096 1102 1010 1183 809 1183 c 4
 612 1183 452 1092 404 1057 c 5
 404 87 l 6
 404 32 388 0 340 0 c 6
EndSplineSet
EndChar

StartChar: o
Encoding: 111 111 97
Width: 1456
Flags: W
LayerCount: 2
Fore
SplineSet
728 117 m 0
 978 117 1106 208 1106 483 c 2
 1106 865 l 2
 1106 1093 987 1183 728 1183 c 0
 472 1183 350 1093 350 865 c 2
 350 483 l 2
 350 208 481 117 728 117 c 0
1283 443 m 0
 1243 83 1046 -27 728 -27 c 0
 413 -27 213 83 173 443 c 0
 171 465 170 553 170 645 c 0
 170 747 171 856 173 883 c 0
 201 1223 434 1327 728 1327 c 0
 1025 1327 1255 1223 1283 883 c 0
 1285 856 1286 747 1286 645 c 0
 1286 553 1285 465 1283 443 c 0
EndSplineSet
EndChar

StartChar: p
Encoding: 112 112 98
Width: 1563
Flags: W
LayerCount: 2
Fore
SplineSet
382 -450 m 2
 334 -450 316 -435 312 -384 c 0
 299 -217 299 221 299 461 c 0
 299 738 305 989 317 1234 c 1
 324 1282 336 1300 384 1300 c 2
 403 1300 l 2
 451 1300 470 1293 473 1234 c 0
 475 1196 485 1199 534 1235 c 0
 593 1278 720 1326 863 1326 c 0
 1121 1326 1349 1266 1389 906 c 0
 1394 860 1402 764 1402 649 c 0
 1402 533 1394 438 1387 386 c 0
 1347 89 1169 -28 902 -28 c 0
 723 -28 595 16 516 82 c 0
 487 106 481 100 481 65 c 0
 479 -69 473 -270 468 -384 c 1
 461 -432 449 -450 401 -450 c 2
 382 -450 l 2
863 117 m 0
 1102 117 1172 197 1198 385 c 0
 1206 442 1218 546 1218 634 c 0
 1218 749 1210 867 1199 927 c 0
 1163 1121 1076 1187 876 1187 c 0
 729 1187 526 1142 486 1027 c 1
 486 275 l 1
 531 187 688 117 863 117 c 0
EndSplineSet
EndChar

StartChar: q
Encoding: 113 113 99
Width: 1563
Flags: W
LayerCount: 2
Fore
SplineSet
844 1327 m 0
 977 1327 1116 1279 1174 1235 c 0
 1186 1226 1223 1195 1232 1180 c 1
 1233 1200 1234 1219 1235 1234 c 0
 1239 1293 1257 1300 1305 1300 c 2
 1332 1300 l 2
 1380 1300 1384 1282 1391 1234 c 1
 1403 989 1409 738 1409 461 c 0
 1409 221 1410 -217 1406 -384 c 0
 1405 -435 1384 -450 1336 -450 c 2
 1307 -450 l 2
 1259 -450 1247 -432 1240 -384 c 1
 1235 -270 1230 -77 1227 57 c 0
 1227 78 1226 98 1226 117 c 1
 1217 100 1205 94 1191 83 c 0
 1108 17 984 -27 805 -27 c 0
 538 -27 360 90 320 387 c 0
 313 439 305 534 305 650 c 0
 305 765 313 861 318 907 c 0
 358 1267 586 1327 844 1327 c 0
832 1187 m 0
 632 1175 545 1121 509 927 c 0
 498 867 490 749 490 634 c 0
 490 546 502 442 510 385 c 0
 536 197 606 117 845 117 c 0
 1020 117 1177 187 1222 275 c 1
 1222 1057 l 1
 1152 1142 1019 1198 832 1187 c 0
EndSplineSet
EndChar

StartChar: r
Encoding: 114 114 100
Width: 981
Flags: W
LayerCount: 2
Fore
SplineSet
595 0 m 1
 595 -1 l 1
 642 -1 670 27 670 74 c 2
 670 832 l 2
 670 871 691 896 729 903 c 2
 882 933 l 2
 930 942 956 974 956 1023 c 2
 956 1254 l 2
 956 1297 923 1325 881 1318 c 0
 786 1303 706 1263 658 1203 c 0
 640 1180 619 1184 611 1213 c 2
 607 1227 l 2
 594 1274 561 1299 512 1299 c 2
 177 1299 l 2
 130 1299 102 1271 102 1223 c 2
 101 75 l 2
 101 28 129 0 176 0 c 2
 595 0 l 1
EndSplineSet
EndChar

StartChar: s
Encoding: 115 115 101
Width: 1434
Flags: W
LayerCount: 2
Fore
SplineSet
710 -27 m 1
 710 -26 l 1
 1047 -26 1378 7 1378 421 c 0
 1378 630 1307 754 1027 797 c 0
 922 813 796 829 685 847 c 0
 658 852 640 864 640 878 c 2
 640 1003 l 2
 640 1041 662 1063 700 1063 c 2
 747 1063 l 2
 785 1063 807 1041 807 1003 c 2
 807 978 l 2
 807 930 835 900 883 898 c 2
 1306 874 l 2
 1330 873 1347 888 1347 913 c 2
 1347 956 l 2
 1347 1309 1012 1327 739 1327 c 0
 367 1327 70 1266 70 900 c 0
 70 685 125 549 422 507 c 0
 527 492 653 475 764 460 c 0
 803 455 807 409 807 395 c 2
 807 293 l 2
 807 255 785 233 747 233 c 2
 700 233 l 2
 662 233 640 255 640 293 c 2
 640 324 l 2
 640 372 612 402 564 404 c 2
 117 431 l 2
 107 432 100 425 100 416 c 2
 100 397 l 2
 100 8 358 -27 710 -27 c 1
EndSplineSet
EndChar

StartChar: t
Encoding: 116 116 102
Width: 968
Flags: W
LayerCount: 2
Fore
SplineSet
764 1060 m 1
 764 1061 l 2
 764 1099 766 1101 804 1101 c 2
 847 1101 l 2
 894 1101 922 1129 922 1176 c 2
 922 1224 l 2
 922 1271 894 1299 847 1299 c 2
 804 1299 l 2
 766 1299 764 1301 764 1339 c 2
 764 1518 l 2
 764 1565 736 1593 689 1593 c 2
 270 1593 l 2
 223 1593 195 1565 195 1518 c 2
 195 1339 l 2
 195 1301 193 1299 155 1299 c 2
 125 1299 l 2
 83 1299 58 1274 58 1232 c 2
 58 1167 l 2
 58 1125 83 1100 125 1100 c 2
 155 1100 l 2
 193 1100 195 1098 195 1060 c 2
 195 76 l 2
 195 29 223 1 270 1 c 2
 689 1 l 2
 736 1 764 29 764 76 c 2
 764 1060 l 1
EndSplineSet
EndChar

StartChar: u
Encoding: 117 117 103
Width: 1579
Flags: W
LayerCount: 2
Fore
SplineSet
1294 1300 m 2
 1333 1300 l 2
 1381 1300 1395 1263 1398 1215 c 0
 1415 960 1411 751 1411 541 c 0
 1411 386 1415 235 1403 76 c 0
 1399 17 1389 0 1341 0 c 2
 1314 0 l 2
 1276 0 1263 15 1259 67 c 0
 1256 106 1257 116 1244 112 c 0
 1230 108 1064 -27 815 -27 c 0
 574 -27 383 67 364 340 c 0
 357 439 353 570 353 744 c 0
 353 906 357 1080 366 1224 c 0
 369 1272 385 1300 433 1300 c 2
 462 1300 l 2
 510 1300 538 1272 538 1224 c 2
 538 456 l 2
 538 198 624 117 825 117 c 0
 1022 117 1182 208 1230 243 c 1
 1230 1213 l 2
 1230 1268 1246 1300 1294 1300 c 2
EndSplineSet
EndChar

StartChar: v
Encoding: 118 118 104
Width: 1348
Flags: W
LayerCount: 2
Fore
SplineSet
554 1225 m 2
 547 1273 528 1300 479 1300 c 2
 80 1300 l 2
 41 1300 18 1278 18 1244 c 0
 18 1238 18 1232 20 1226 c 2
 263 74 l 2
 273 26 306 0 355 0 c 2
 997 0 l 2
 1046 0 1079 26 1089 74 c 2
 1331 1226 l 2
 1333 1232 1333 1238 1333 1244 c 0
 1333 1278 1310 1300 1271 1300 c 2
 872 1300 l 2
 823 1300 805 1273 798 1225 c 2
 728 716 l 1
 685 353 l 2
 685 347 681 344 677 344 c 0
 673 344 669 347 668 353 c 2
 625 716 l 1
 554 1225 l 2
EndSplineSet
EndChar

StartChar: w
Encoding: 119 119 105
Width: 2066
Flags: W
LayerCount: 2
Fore
SplineSet
1022 787 m 2
 1023 792 1025 794 1028 794 c 0
 1031 794 1034 792 1034 787 c 2
 1065 475 l 1
 1110 75 l 2
 1116 27 1146 0 1195 0 c 2
 1737 0 l 2
 1786 0 1817 27 1826 75 c 2
 2018 1225 l 2
 2020 1232 2020 1239 2020 1246 c 0
 2020 1279 2004 1300 1965 1300 c 2
 1558 1300 l 2
 1510 1300 1499 1273 1495 1224 c 2
 1449 761 l 1
 1410 446 l 2
 1410 440 1406 436 1402 436 c 0
 1398 436 1395 440 1394 446 c 2
 1359 761 l 1
 1315 1224 l 2
 1311 1273 1300 1300 1252 1300 c 2
 819 1300 l 2
 771 1300 760 1273 756 1224 c 2
 711 761 l 1
 673 446 l 2
 673 440 669 436 665 436 c 0
 661 436 657 440 656 446 c 2
 617 761 l 1
 570 1225 l 2
 565 1273 555 1300 506 1300 c 2
 98 1300 l 2
 59 1300 43 1279 43 1246 c 0
 43 1239 43 1232 45 1225 c 2
 237 75 l 2
 246 27 277 0 326 0 c 2
 864 0 l 2
 913 0 943 27 949 75 c 2
 992 475 l 1
 1022 787 l 2
EndSplineSet
EndChar

StartChar: x
Encoding: 120 120 106
Width: 1395
Flags: W
LayerCount: 2
Fore
SplineSet
536 0 m 1
 536 -1 l 1
 586 -1 620 23 637 70 c 2
 683 200 l 2
 692 225 714 225 723 200 c 2
 769 70 l 2
 786 23 820 -1 870 -1 c 2
 1285 -1 l 2
 1326 -1 1344 30 1324 65 c 2
 1018 599 l 2
 998 634 998 668 1018 702 c 2
 1323 1233 l 2
 1343 1268 1325 1299 1284 1299 c 2
 865 1299 l 2
 815 1299 781 1275 765 1228 c 2
 722 1105 l 2
 714 1081 692 1081 684 1105 c 2
 642 1228 l 2
 626 1275 592 1300 542 1300 c 2
 122 1300 l 2
 81 1300 63 1269 83 1234 c 2
 388 703 l 2
 408 669 408 635 388 600 c 2
 82 66 l 2
 62 31 80 0 121 0 c 2
 536 0 l 1
EndSplineSet
EndChar

StartChar: y
Encoding: 121 121 107
Width: 1342
Flags: W
LayerCount: 2
Fore
SplineSet
562 1225 m 1
 556 1273 526 1300 477 1300 c 2
 96 1300 l 2
 50 1300 26 1270 34 1225 c 2
 221 267 l 1
 249 116 291 109 389 99 c 1
 705 74 l 1
 705 30 l 2
 705 -4 682 -33 648 -41 c 1
 608 -49 565 -53 522 -53 c 0
 451 -53 368 -43 299 -30 c 1
 252 -20 231 -42 224 -90 c 2
 203 -243 l 2
 196 -290 210 -324 256 -332 c 0
 371 -354 521 -371 618 -371 c 0
 872 -371 1060 -299 1113 14 c 2
 1320 1225 l 2
 1328 1270 1303 1300 1257 1300 c 2
 857 1300 l 2
 809 1300 778 1273 774 1224 c 1
 728 878 l 1
 690 451 l 2
 688 430 679 430 678 451 c 1
 619 878 l 1
 562 1225 l 1
EndSplineSet
EndChar

StartChar: z
Encoding: 122 122 108
Width: 1169
Flags: W
LayerCount: 2
Fore
SplineSet
130 1127 m 1
 128 1126 l 1
 128 1079 156 1051 203 1051 c 2
 404 1051 l 2
 437 1051 453 1027 440 997 c 2
 135 303 l 2
 116 260 105 206 105 158 c 2
 105 77 l 2
 105 30 133 2 180 2 c 2
 1011 2 l 2
 1058 2 1086 30 1086 77 c 2
 1086 171 l 2
 1086 218 1058 246 1011 246 c 2
 783 246 l 2
 750 246 734 270 747 301 c 2
 1050 1009 l 2
 1069 1053 1080 1108 1080 1155 c 2
 1080 1224 l 2
 1080 1271 1052 1299 1005 1299 c 2
 205 1299 l 2
 158 1299 130 1271 130 1224 c 2
 130 1127 l 1
EndSplineSet
EndChar

StartChar: braceleft
Encoding: 123 123 109
Width: 1132
Flags: W
LayerCount: 2
Fore
SplineSet
274 1228 m 1
 275 1228 l 1
 260 1112 270 985 162 948 c 0
 103 928 87 906 87 843 c 2
 87 753 l 2
 87 689 102 667 162 646 c 0
 272 607 261 474 275 365 c 1
 310 -141 539 -314 1027 -329 c 0
 1073 -330 1103 -301 1103 -255 c 2
 1103 -132 l 2
 1103 -80 1079 -53 1027 -46 c 0
 600 9 842 545 656 757 c 0
 627 790 627 805 654 839 c 0
 842 1070 598 1590 1025 1643 c 0
 1077 1649 1101 1676 1101 1728 c 2
 1101 1851 l 2
 1101 1897 1071 1926 1025 1924 c 0
 541 1908 341 1727 274 1228 c 1
EndSplineSet
EndChar

StartChar: bar
Encoding: 124 124 110
Width: 831
Flags: W
LayerCount: 2
Fore
SplineSet
205 1795 m 2
 158 1795 130 1767 130 1720 c 2
 130 -23 l 2
 130 -70 158 -98 205 -98 c 2
 624 -98 l 2
 671 -98 699 -70 699 -23 c 2
 699 1720 l 2
 699 1767 671 1795 624 1795 c 2
 205 1795 l 2
EndSplineSet
EndChar

StartChar: braceright
Encoding: 125 125 111
Width: 1131
Flags: W
LayerCount: 2
Fore
SplineSet
507 837 m 1
 506 837 l 1
 533 804 533 789 505 757 c 0
 318 545 561 8 134 -47 c 0
 82 -54 58 -81 58 -133 c 2
 58 -256 l 2
 58 -302 88 -331 134 -330 c 0
 622 -315 851 -142 886 364 c 1
 900 473 889 606 999 645 c 0
 1059 666 1074 688 1074 752 c 2
 1074 842 l 2
 1074 905 1058 927 999 947 c 0
 891 984 901 1111 886 1227 c 0
 819 1726 619 1907 135 1923 c 0
 89 1925 59 1896 59 1850 c 2
 59 1727 l 2
 59 1675 83 1648 135 1642 c 0
 562 1589 317 1068 507 837 c 1
EndSplineSet
EndChar

StartChar: asciitilde
Encoding: 126 126 112
Width: 1424
Flags: W
LayerCount: 2
Fore
SplineSet
1279 642 m 1
 1280 643 l 1
 1327 643 1356 672 1355 719 c 0
 1348 1023 1291 1202 1010 1202 c 0
 756 1202 672 1009 483 1009 c 0
 422 1009 391 1048 378 1101 c 0
 364 1157 339 1176 281 1176 c 2
 147 1176 l 2
 101 1176 72 1146 74 1100 c 0
 85 840 164 616 479 616 c 0
 714 616 783 806 949 806 c 0
 1003 806 1034 769 1048 718 c 0
 1063 661 1087 642 1146 642 c 2
 1279 642 l 1
EndSplineSet
EndChar

StartChar: Adieresis
Encoding: 196 196 113
Width: 1640
Flags: W
LayerCount: 2
Fore
SplineSet
329 713 m 2
 282 713 254 685 254 638 c 2
 254 454 l 2
 254 407 282 379 329 379 c 2
 627 379 l 2
 674 379 702 407 702 454 c 2
 702 638 l 2
 702 685 674 713 627 713 c 2
 329 713 l 2
1012 713 m 2
 965 713 937 685 937 638 c 2
 937 454 l 2
 937 407 965 379 1012 379 c 2
 1311 379 l 2
 1358 379 1386 407 1386 454 c 2
 1386 638 l 2
 1386 685 1358 713 1311 713 c 2
 1012 713 l 2
902 615 m 2
 903 606 904 599 904 594 c 0
 904 578 897 576 869 576 c 2
 771 576 l 2
 743 576 735 578 735 595 c 0
 735 600 736 607 737 615 c 2
 785 1085 l 1
 807 1265 l 2
 808 1271 813 1273 818 1273 c 0
 823 1273 828 1271 828 1265 c 2
 852 1085 l 1
 902 615 l 2
669 75 m 2
 704 327 l 2
 710 365 704 366 743 366 c 2
 897 366 l 2
 936 366 930 365 936 327 c 2
 970 75 l 2
 977 27 1008 0 1057 0 c 2
 1492 0 l 2
 1532 0 1556 23 1556 58 c 0
 1556 63 1532 496 1325 1520 c 0
 1315 1569 1284 1595 1235 1595 c 2
 400 1595 l 2
 351 1595 320 1570 310 1520 c 0
 106 487 84 64 84 58 c 0
 84 23 108 0 148 0 c 2
 582 0 l 2
 631 0 662 27 669 75 c 2
EndSplineSet
EndChar

StartChar: Aring
Encoding: 197 197 114
Width: 1640
Flags: W
LayerCount: 2
Fore
SplineSet
513 600 m 0
 561 492 667 405 820 405 c 0
 866 405 909 413 949 430 c 0
 1058 475 1153 575 1153 725 c 0
 1153 770 1144 812 1127 851 c 0
 1079 959 973 1047 820 1047 c 0
 774 1047 731 1039 690 1022 c 0
 580 977 487 876 487 725 c 0
 487 681 496 639 513 600 c 0
939 725 m 0
 939 658 885 604 818 604 c 0
 750 604 697 657 697 725 c 0
 697 795 748 847 818 847 c 0
 886 847 939 794 939 725 c 0
902 615 m 2
 903 606 904 599 904 594 c 0
 904 578 897 576 869 576 c 2
 771 576 l 2
 743 576 735 578 735 595 c 0
 735 600 736 607 737 615 c 2
 785 1085 l 1
 807 1265 l 2
 808 1271 813 1273 818 1273 c 0
 823 1273 828 1271 828 1265 c 2
 852 1085 l 1
 902 615 l 2
669 75 m 2
 704 327 l 2
 710 365 704 366 743 366 c 2
 897 366 l 2
 936 366 930 365 936 327 c 2
 970 75 l 2
 977 27 1008 0 1057 0 c 2
 1492 0 l 2
 1532 0 1556 23 1556 58 c 0
 1556 63 1532 496 1325 1520 c 0
 1315 1569 1284 1595 1235 1595 c 2
 400 1595 l 2
 351 1595 320 1570 310 1520 c 0
 106 487 84 64 84 58 c 0
 84 23 108 0 148 0 c 2
 582 0 l 2
 631 0 662 27 669 75 c 2
EndSplineSet
EndChar

StartChar: Ccedilla
Encoding: 199 199 115
Width: 1692
Flags: W
LayerCount: 2
Fore
SplineSet
693 -104 m 1
 692 -107 l 1
 692 -154 720 -182 767 -182 c 2
 822 -182 l 2
 859 -182 881 -204 881 -241 c 2
 881 -342 l 2
 881 -361 870 -372 851 -372 c 2
 849 -372 l 2
 830 -372 819 -361 819 -342 c 2
 819 -305 l 2
 819 -265 794 -243 755 -248 c 2
 619 -265 l 2
 602 -267 592 -278 592 -295 c 2
 592 -324 l 2
 592 -458 697 -482 846 -482 c 0
 986 -482 1099 -461 1099 -324 c 2
 1099 -229 l 2
 1099 -113 1023 -77 903 -72 c 0
 881 -71 869 -58 869 -36 c 2
 869 -35 l 2
 869 -14 856 -1 835 -1 c 2
 768 -1 l 2
 721 -1 693 -29 693 -76 c 2
 693 -104 l 1
981 565 m 0
 978 292 962 312 866 312 c 2
 830 312 l 2
 728 312 727 311 727 793 c 0
 727 1237 728 1279 830 1279 c 2
 866 1279 l 2
 963 1279 979 1264 981 1015 c 0
 981 967 1005 919 1091 919 c 2
 1489 919 l 2
 1561 919 1583 955 1583 1007 c 1
 1554 1600 1366 1628 843 1628 c 0
 242 1628 105 1565 105 802 c 0
 105 16 223 -42 843 -42 c 0
 1392 -42 1558 -32 1583 572 c 1
 1583 616 1563 667 1493 667 c 2
 1084 667 l 2
 1015 667 981 613 981 565 c 0
EndSplineSet
EndChar

StartChar: Eacute
Encoding: 201 201 116
Width: 1191
Flags: W
LayerCount: 2
Fore
SplineSet
193 1715 m 0
 193 1686 221 1666 256 1666 c 0
 266 1666 277 1667 288 1671 c 0
 493 1733 780 1805 884 1865 c 0
 965 1912 1000 1982 1000 2047 c 0
 1000 2141 929 2225 826 2225 c 0
 788 2225 746 2214 701 2188 c 0
 600 2130 390 1924 227 1775 c 0
 203 1754 193 1733 193 1715 c 0
236 1595 m 2
 188 1595 163 1565 160 1519 c 0
 149 1366 141 1112 141 836 c 0
 141 581 148 307 160 76 c 0
 163 28 188 0 236 0 c 2
 1038 0 l 2
 1086 0 1114 28 1114 76 c 2
 1114 175 l 2
 1114 223 1086 251 1038 251 c 2
 833 251 l 2
 795 251 773 273 773 311 c 2
 773 651 l 2
 773 689 795 711 833 711 c 2
 1015 711 l 2
 1063 711 1091 739 1091 787 c 2
 1091 885 l 2
 1091 933 1063 961 1015 961 c 2
 833 961 l 2
 795 961 773 983 773 1021 c 2
 773 1286 l 2
 773 1324 795 1346 833 1346 c 2
 1038 1346 l 2
 1086 1346 1114 1374 1114 1422 c 2
 1114 1519 l 2
 1114 1567 1086 1595 1038 1595 c 2
 236 1595 l 2
EndSplineSet
EndChar

StartChar: Ntilde
Encoding: 209 209 117
Width: 1715
Flags: W
LayerCount: 2
Fore
SplineSet
1423 391 m 1
 1424 391 l 2
 1471 391 1500 420 1499 467 c 0
 1491 768 1427 941 1094 941 c 0
 925 941 832 868 736 798 c 0
 706 776 672 748 628 748 c 0
 568 748 537 788 524 841 c 0
 510 897 485 916 427 916 c 2
 293 916 l 2
 247 916 218 886 220 840 c 0
 224 774 232 717 245 671 c 1
 290 471 389 365 625 365 c 0
 800 365 898 431 992 506 c 0
 1020 528 1051 555 1095 555 c 0
 1177 555 1205 473 1205 391 c 1
 1423 391 l 1
1478 0 m 2
 1526 0 1552 28 1554 76 c 0
 1567 349 1576 572 1576 829 c 0
 1576 1050 1570 1306 1554 1519 c 0
 1551 1566 1526 1595 1478 1595 c 2
 1186 1595 l 2
 1138 1595 1110 1567 1110 1519 c 2
 1110 894 l 2
 1110 881 1104 874 1097 874 c 0
 1092 874 1086 877 1081 886 c 2
 716 1529 l 2
 691 1573 654 1595 603 1595 c 2
 238 1595 l 2
 190 1595 165 1567 162 1519 c 0
 148 1291 141 1057 141 817 c 0
 141 577 148 330 162 76 c 0
 165 28 190 0 238 0 c 2
 534 0 l 2
 582 0 610 28 610 76 c 2
 610 651 l 2
 610 664 616 671 623 671 c 0
 628 671 634 668 639 659 c 2
 977 66 l 2
 1003 22 1040 0 1091 0 c 2
 1478 0 l 2
EndSplineSet
EndChar

StartChar: Odieresis
Encoding: 214 214 118
Width: 1710
Flags: W
LayerCount: 2
Fore
SplineSet
364 713 m 2
 317 713 289 685 289 638 c 2
 289 454 l 2
 289 407 317 379 364 379 c 2
 662 379 l 2
 709 379 737 407 737 454 c 2
 737 638 l 2
 737 685 709 713 662 713 c 2
 364 713 l 2
1047 713 m 2
 1000 713 972 685 972 638 c 2
 972 454 l 2
 972 407 1000 379 1047 379 c 2
 1346 379 l 2
 1393 379 1421 407 1421 454 c 2
 1421 638 l 2
 1421 685 1393 713 1346 713 c 2
 1047 713 l 2
852 1631 m 0
 251 1631 114 1568 114 805 c 0
 114 19 232 -39 852 -39 c 0
 1454 -39 1596 21 1596 808 c 0
 1596 1573 1424 1631 852 1631 c 0
839 315 m 2
 737 315 736 314 736 796 c 0
 736 1280 737 1282 839 1282 c 2
 875 1282 l 2
 988 1282 991 1283 991 799 c 0
 991 315 988 315 875 315 c 2
 839 315 l 2
EndSplineSet
EndChar

StartChar: Udieresis
Encoding: 220 220 119
Width: 1556
Flags: W
LayerCount: 2
Fore
SplineSet
287 713 m 2
 240 713 212 685 212 638 c 2
 212 454 l 2
 212 407 240 379 287 379 c 2
 585 379 l 2
 632 379 660 407 660 454 c 2
 660 638 l 2
 660 685 632 713 585 713 c 2
 287 713 l 2
970 713 m 2
 923 713 895 685 895 638 c 2
 895 454 l 2
 895 407 923 379 970 379 c 2
 1269 379 l 2
 1316 379 1344 407 1344 454 c 2
 1344 638 l 2
 1344 685 1316 713 1269 713 c 2
 970 713 l 2
701 1519 m 1
 696 1519 l 1
 696 1566 668 1594 621 1594 c 2
 169 1594 l 2
 122 1594 94 1566 94 1519 c 2
 94 371 l 2
 94 -7 506 -39 783 -39 c 0
 1085 -39 1476 -4 1476 370 c 2
 1476 1518 l 2
 1476 1565 1448 1593 1401 1593 c 2
 948 1593 l 2
 901 1593 873 1565 873 1518 c 2
 873 293 l 2
 873 256 851 234 814 234 c 2
 760 234 l 2
 723 234 701 256 701 293 c 2
 701 1519 l 1
EndSplineSet
EndChar

StartChar: aacute
Encoding: 225 225 120
Width: 1464
Flags: W
LayerCount: 2
Fore
SplineSet
329 1420 m 0
 329 1391 357 1371 392 1371 c 0
 402 1371 413 1372 424 1376 c 0
 629 1438 916 1510 1020 1570 c 0
 1101 1617 1136 1687 1136 1752 c 0
 1136 1846 1065 1930 962 1930 c 0
 924 1930 882 1919 837 1893 c 0
 736 1835 526 1629 363 1480 c 0
 339 1459 329 1438 329 1420 c 0
772 680 m 2
 810 680 812 678 812 640 c 2
 812 267 l 2
 812 229 809 227 771 227 c 2
 746 227 l 2
 670 227 660 254 646 287 c 0
 634 315 630 365 630 418 c 0
 630 506 641 603 646 620 c 0
 657 660 695 680 736 680 c 2
 772 680 l 2
810 114 m 0
 821 136 828 145 832 145 c 0
 839 145 841 124 849 104 c 2
 863 69 l 2
 882 24 916 1 964 1 c 2
 1333 1 l 2
 1375 1 1398 23 1398 61 c 0
 1398 65 1398 71 1397 76 c 0
 1388 131 1383 192 1382 257 c 1
 1382 952 l 2
 1382 1303 1048 1327 741 1327 c 0
 504 1327 137 1304 137 1005 c 0
 137 985 138 967 140 948 c 0
 144 917 165 897 196 897 c 2
 200 897 l 1
 625 918 l 2
 673 920 673 923 673 971 c 2
 673 1046 l 2
 673 1084 675 1106 713 1106 c 2
 772 1106 l 2
 810 1106 812 1084 812 1046 c 2
 812 824 l 2
 812 823 797 823 771 823 c 0
 278 823 74 777 74 388 c 0
 74 107 210 -27 495 -27 c 0
 661 -27 769 33 810 114 c 0
EndSplineSet
EndChar

StartChar: agrave
Encoding: 224 224 121
Width: 1464
Flags: W
LayerCount: 2
Fore
SplineSet
628 1893 m 0
 583 1919 541 1930 503 1930 c 0
 400 1930 329 1846 329 1752 c 0
 329 1687 364 1617 445 1570 c 0
 549 1510 836 1438 1041 1376 c 0
 1052 1372 1063 1371 1073 1371 c 0
 1108 1371 1136 1391 1136 1420 c 0
 1136 1438 1126 1459 1102 1480 c 0
 939 1629 729 1835 628 1893 c 0
772 680 m 2
 810 680 812 678 812 640 c 2
 812 267 l 2
 812 229 809 227 771 227 c 2
 746 227 l 2
 670 227 660 254 646 287 c 0
 634 315 630 365 630 418 c 0
 630 506 641 603 646 620 c 0
 657 660 695 680 736 680 c 2
 772 680 l 2
810 114 m 0
 821 136 828 145 832 145 c 0
 839 145 841 124 849 104 c 2
 863 69 l 2
 882 24 916 1 964 1 c 2
 1333 1 l 2
 1375 1 1398 23 1398 61 c 0
 1398 65 1398 71 1397 76 c 0
 1388 131 1383 192 1382 257 c 1
 1382 952 l 2
 1382 1303 1048 1327 741 1327 c 0
 504 1327 137 1304 137 1005 c 0
 137 985 138 967 140 948 c 0
 144 917 165 897 196 897 c 2
 200 897 l 1
 625 918 l 2
 673 920 673 923 673 971 c 2
 673 1046 l 2
 673 1084 675 1106 713 1106 c 2
 772 1106 l 2
 810 1106 812 1084 812 1046 c 2
 812 824 l 2
 812 823 797 823 771 823 c 0
 278 823 74 777 74 388 c 0
 74 107 210 -27 495 -27 c 0
 661 -27 769 33 810 114 c 0
EndSplineSet
EndChar

StartChar: acircumflex
Encoding: 226 226 122
Width: 1464
Flags: W
LayerCount: 2
Fore
SplineSet
309 1475 m 1
 308 1475 l 1
 308 1438 338 1413 374 1413 c 0
 391 1413 410 1419 428 1433 c 2
 684 1631 l 2
 715 1655 748 1655 779 1631 c 2
 1035 1433 l 2
 1054 1418 1074 1411 1092 1411 c 0
 1127 1411 1155 1437 1155 1474 c 0
 1155 1490 1149 1508 1137 1527 c 2
 874 1936 l 2
 841 1987 786 2008 733 2008 c 0
 678 2008 621 1984 590 1936 c 2
 327 1527 l 2
 315 1508 309 1490 309 1475 c 1
770 680 m 2
 808 680 810 678 810 640 c 2
 810 267 l 2
 810 229 807 227 769 227 c 2
 744 227 l 2
 668 227 658 254 644 287 c 0
 632 315 628 365 628 418 c 0
 628 506 639 603 644 620 c 0
 655 660 693 680 734 680 c 2
 770 680 l 2
808 114 m 0
 819 136 826 145 830 145 c 0
 837 145 839 124 847 104 c 2
 861 69 l 2
 880 24 914 1 962 1 c 2
 1331 1 l 2
 1373 1 1396 23 1396 61 c 0
 1396 65 1396 71 1395 76 c 0
 1386 131 1381 192 1380 257 c 1
 1380 952 l 2
 1380 1303 1046 1327 739 1327 c 0
 502 1327 135 1304 135 1005 c 0
 135 985 136 967 138 948 c 0
 142 917 163 897 194 897 c 2
 198 897 l 1
 623 918 l 2
 671 920 671 923 671 971 c 2
 671 1046 l 2
 671 1084 673 1106 711 1106 c 2
 770 1106 l 2
 808 1106 810 1084 810 1046 c 2
 810 824 l 2
 810 823 795 823 769 823 c 0
 276 823 72 777 72 388 c 0
 72 107 208 -27 493 -27 c 0
 659 -27 767 33 808 114 c 0
EndSplineSet
EndChar

StartChar: adieresis
Encoding: 228 228 123
Width: 1464
Flags: W
LayerCount: 2
Fore
SplineSet
241 418 m 2
 194 418 166 390 166 343 c 2
 166 159 l 2
 166 112 194 84 241 84 c 2
 539 84 l 2
 586 84 614 112 614 159 c 2
 614 343 l 2
 614 390 586 418 539 418 c 2
 241 418 l 2
924 418 m 2
 877 418 849 390 849 343 c 2
 849 159 l 2
 849 112 877 84 924 84 c 2
 1223 84 l 2
 1270 84 1298 112 1298 159 c 2
 1298 343 l 2
 1298 390 1270 418 1223 418 c 2
 924 418 l 2
771 680 m 2
 809 680 811 678 811 640 c 2
 811 267 l 2
 811 229 808 227 770 227 c 2
 745 227 l 2
 669 227 659 254 645 287 c 0
 633 315 629 365 629 418 c 0
 629 506 640 603 645 620 c 0
 656 660 694 680 735 680 c 2
 771 680 l 2
809 114 m 0
 820 136 827 145 831 145 c 0
 838 145 840 124 848 104 c 2
 862 69 l 2
 881 24 915 1 963 1 c 2
 1332 1 l 2
 1374 1 1397 23 1397 61 c 0
 1397 65 1397 71 1396 76 c 0
 1387 131 1382 192 1381 257 c 1
 1381 952 l 2
 1381 1303 1047 1327 740 1327 c 0
 503 1327 136 1304 136 1005 c 0
 136 985 137 967 139 948 c 0
 143 917 164 897 195 897 c 2
 199 897 l 1
 624 918 l 2
 672 920 672 923 672 971 c 2
 672 1046 l 2
 672 1084 674 1106 712 1106 c 2
 771 1106 l 2
 809 1106 811 1084 811 1046 c 2
 811 824 l 2
 811 823 796 823 770 823 c 0
 277 823 73 777 73 388 c 0
 73 107 209 -27 494 -27 c 0
 660 -27 768 33 809 114 c 0
EndSplineSet
EndChar

StartChar: atilde
Encoding: 227 227 124
Width: 1464
Flags: W
LayerCount: 2
Fore
SplineSet
1297 96 m 1
 1298 96 l 2
 1345 96 1374 125 1373 172 c 0
 1365 473 1301 646 968 646 c 0
 799 646 706 573 610 503 c 0
 580 481 546 453 502 453 c 0
 442 453 411 493 398 546 c 0
 384 602 359 621 301 621 c 2
 167 621 l 2
 121 621 92 591 94 545 c 0
 98 479 106 422 119 376 c 1
 164 176 263 70 499 70 c 0
 674 70 772 136 866 211 c 0
 894 233 925 260 969 260 c 0
 1051 260 1079 178 1079 96 c 1
 1297 96 l 1
772 680 m 2
 810 680 812 678 812 640 c 2
 812 267 l 2
 812 229 809 227 771 227 c 2
 746 227 l 2
 670 227 660 254 646 287 c 0
 634 315 630 365 630 418 c 0
 630 506 641 603 646 620 c 0
 657 660 695 680 736 680 c 2
 772 680 l 2
810 114 m 0
 821 136 828 145 832 145 c 0
 839 145 841 124 849 104 c 2
 863 69 l 2
 882 24 916 1 964 1 c 2
 1333 1 l 2
 1375 1 1398 23 1398 61 c 0
 1398 65 1398 71 1397 76 c 0
 1388 131 1383 192 1382 257 c 1
 1382 952 l 2
 1382 1303 1048 1327 741 1327 c 0
 504 1327 137 1304 137 1005 c 0
 137 985 138 967 140 948 c 0
 144 917 165 897 196 897 c 2
 200 897 l 1
 625 918 l 2
 673 920 673 923 673 971 c 2
 673 1046 l 2
 673 1084 675 1106 713 1106 c 2
 772 1106 l 2
 810 1106 812 1084 812 1046 c 2
 812 824 l 2
 812 823 797 823 771 823 c 0
 278 823 74 777 74 388 c 0
 74 107 210 -27 495 -27 c 0
 661 -27 769 33 810 114 c 0
EndSplineSet
EndChar

StartChar: aring
Encoding: 229 229 125
Width: 1464
Flags: W
LayerCount: 2
Fore
SplineSet
425 305 m 0
 473 197 579 110 732 110 c 0
 778 110 821 118 861 135 c 0
 970 180 1065 280 1065 430 c 0
 1065 475 1056 517 1039 556 c 0
 991 664 885 752 732 752 c 0
 686 752 643 744 602 727 c 0
 492 682 399 581 399 430 c 0
 399 386 408 344 425 305 c 0
851 430 m 0
 851 363 797 309 730 309 c 0
 662 309 609 362 609 430 c 0
 609 500 660 552 730 552 c 0
 798 552 851 499 851 430 c 0
771 680 m 2
 809 680 811 678 811 640 c 2
 811 267 l 2
 811 229 808 227 770 227 c 2
 745 227 l 2
 669 227 659 254 645 287 c 0
 633 315 629 365 629 418 c 0
 629 506 640 603 645 620 c 0
 656 660 694 680 735 680 c 2
 771 680 l 2
809 114 m 0
 820 136 827 145 831 145 c 0
 838 145 840 124 848 104 c 2
 862 69 l 2
 881 24 915 1 963 1 c 2
 1332 1 l 2
 1374 1 1397 23 1397 61 c 0
 1397 65 1397 71 1396 76 c 0
 1387 131 1382 192 1381 257 c 1
 1381 952 l 2
 1381 1303 1047 1327 740 1327 c 0
 503 1327 136 1304 136 1005 c 0
 136 985 137 967 139 948 c 0
 143 917 164 897 195 897 c 2
 199 897 l 1
 624 918 l 2
 672 920 672 923 672 971 c 2
 672 1046 l 2
 672 1084 674 1106 712 1106 c 2
 771 1106 l 2
 809 1106 811 1084 811 1046 c 2
 811 824 l 2
 811 823 796 823 770 823 c 0
 277 823 73 777 73 388 c 0
 73 107 209 -27 494 -27 c 0
 660 -27 768 33 809 114 c 0
EndSplineSet
EndChar

StartChar: ccedilla
Encoding: 231 231 126
Width: 1525
Flags: W
LayerCount: 2
Fore
SplineSet
610 -104 m 1
 609 -107 l 1
 609 -154 637 -182 684 -182 c 2
 739 -182 l 2
 776 -182 798 -204 798 -241 c 2
 798 -342 l 2
 798 -361 787 -372 768 -372 c 2
 766 -372 l 2
 747 -372 736 -361 736 -342 c 2
 736 -305 l 2
 736 -265 711 -243 672 -248 c 2
 536 -265 l 2
 519 -267 509 -278 509 -295 c 2
 509 -324 l 2
 509 -458 614 -482 763 -482 c 0
 903 -482 1016 -461 1016 -324 c 2
 1016 -229 l 2
 1016 -113 940 -77 820 -72 c 0
 798 -71 786 -58 786 -36 c 2
 786 -35 l 2
 786 -14 773 -1 752 -1 c 2
 685 -1 l 2
 638 -1 610 -29 610 -76 c 2
 610 -104 l 1
1421 789 m 0
 1421 842 1414 895 1404 949 c 0
 1338 1289 1083 1324 764 1324 c 0
 467 1324 163 1290 115 950 c 0
 100 845 102 740 102 638 c 0
 102 539 100 442 115 350 c 0
 175 -10 445 -30 763 -30 c 0
 1068 -30 1334 -15 1404 349 c 0
 1414 402 1420 451 1421 499 c 0
 1421 502 1419 521 1404 521 c 2
 878 521 l 2
 865 521 863 512 863 490 c 2
 863 390 l 2
 863 279 862 230 772 230 c 2
 746 230 l 2
 653 230 653 273 653 388 c 2
 653 952 l 2
 653 1070 653 1102 746 1102 c 2
 772 1102 l 2
 863 1102 863 1067 863 952 c 2
 863 798 l 2
 863 779 869 771 884 771 c 2
 1408 771 l 2
 1420 771 1421 781 1421 789 c 0
EndSplineSet
EndChar

StartChar: eacute
Encoding: 233 233 127
Width: 1513
Flags: W
LayerCount: 2
Fore
SplineSet
504 945 m 2
 504 1023 516 1105 634 1105 c 2
 879 1105 l 2
 987 1105 1013 1023 1013 945 c 2
 1013 817 l 2
 1013 779 1011 777 973 777 c 2
 544 777 l 2
 506 777 504 779 504 817 c 2
 504 945 l 2
783 -27 m 0
 1245 -27 1284 136 1301 272 c 0
 1306 313 1306 353 1305 372 c 0
 1302 403 1301 409 1270 409 c 2
 1058 409 l 2
 1014 409 1012 401 1012 353 c 0
 1012 255 990 195 872 195 c 2
 664 195 l 2
 532 195 504 256 504 374 c 2
 504 564 l 2
 504 602 506 604 544 604 c 2
 1251 604 l 2
 1299 604 1319 632 1327 680 c 0
 1334 723 1331 782 1326 835 c 0
 1294 1185 1241 1327 781 1327 c 0
 365 1327 253 1240 203 983 c 0
 189 912 184 773 184 658 c 0
 184 545 188 381 208 303 c 0
 260 97 289 -27 783 -27 c 0
354 1539 m 0
 354 1510 382 1490 417 1490 c 0
 427 1490 438 1491 449 1495 c 0
 654 1557 941 1629 1045 1689 c 0
 1126 1736 1161 1806 1161 1871 c 0
 1161 1965 1090 2049 987 2049 c 0
 949 2049 907 2038 862 2012 c 0
 761 1954 551 1748 388 1599 c 0
 364 1578 354 1557 354 1539 c 0
EndSplineSet
EndChar

StartChar: egrave
Encoding: 232 232 128
Width: 1513
Flags: W
LayerCount: 2
Fore
SplineSet
653 1893 m 0
 608 1919 566 1930 528 1930 c 0
 425 1930 354 1846 354 1752 c 0
 354 1687 389 1617 470 1570 c 0
 574 1510 861 1438 1066 1376 c 0
 1077 1372 1088 1371 1098 1371 c 0
 1133 1371 1161 1391 1161 1420 c 0
 1161 1438 1151 1459 1127 1480 c 0
 964 1629 754 1835 653 1893 c 0
504 945 m 2
 504 1023 516 1105 634 1105 c 2
 879 1105 l 2
 987 1105 1013 1023 1013 945 c 2
 1013 817 l 2
 1013 779 1011 777 973 777 c 2
 544 777 l 2
 506 777 504 779 504 817 c 2
 504 945 l 2
783 -27 m 0
 1245 -27 1284 136 1301 272 c 0
 1306 313 1306 353 1305 372 c 0
 1302 403 1301 409 1270 409 c 2
 1058 409 l 2
 1014 409 1012 401 1012 353 c 0
 1012 255 990 195 872 195 c 2
 664 195 l 2
 532 195 504 256 504 374 c 2
 504 564 l 2
 504 602 506 604 544 604 c 2
 1251 604 l 2
 1299 604 1319 632 1327 680 c 0
 1334 723 1331 782 1326 835 c 0
 1294 1185 1241 1327 781 1327 c 0
 365 1327 253 1240 203 983 c 0
 189 912 184 773 184 658 c 0
 184 545 188 381 208 303 c 0
 260 97 289 -27 783 -27 c 0
EndSplineSet
EndChar

StartChar: ecircumflex
Encoding: 234 234 129
Width: 1513
Flags: W
LayerCount: 2
Fore
SplineSet
504 945 m 2
 504 1023 516 1105 634 1105 c 2
 879 1105 l 2
 987 1105 1013 1023 1013 945 c 2
 1013 817 l 2
 1013 779 1011 777 973 777 c 2
 544 777 l 2
 506 777 504 779 504 817 c 2
 504 945 l 2
783 -27 m 0
 1245 -27 1284 136 1301 272 c 0
 1306 313 1306 353 1305 372 c 0
 1302 403 1301 409 1270 409 c 2
 1058 409 l 2
 1014 409 1012 401 1012 353 c 0
 1012 255 990 195 872 195 c 2
 664 195 l 2
 532 195 504 256 504 374 c 2
 504 564 l 2
 504 602 506 604 544 604 c 2
 1251 604 l 2
 1299 604 1319 632 1327 680 c 0
 1334 723 1331 782 1326 835 c 0
 1294 1185 1241 1327 781 1327 c 0
 365 1327 253 1240 203 983 c 0
 189 912 184 773 184 658 c 0
 184 545 188 381 208 303 c 0
 260 97 289 -27 783 -27 c 0
335 1554 m 1
 334 1554 l 1
 334 1517 364 1492 400 1492 c 0
 417 1492 436 1498 454 1512 c 2
 710 1710 l 2
 741 1734 774 1734 805 1710 c 2
 1061 1512 l 2
 1080 1497 1100 1490 1118 1490 c 0
 1153 1490 1181 1516 1181 1553 c 0
 1181 1569 1175 1587 1163 1606 c 2
 900 2015 l 2
 867 2066 812 2087 759 2087 c 0
 704 2087 647 2063 616 2015 c 2
 353 1606 l 2
 341 1587 335 1569 335 1554 c 1
EndSplineSet
EndChar

StartChar: edieresis
Encoding: 235 235 130
Width: 1513
Flags: W
LayerCount: 2
Fore
SplineSet
504 945 m 2
 504 1023 516 1105 634 1105 c 2
 879 1105 l 2
 987 1105 1013 1023 1013 945 c 2
 1013 817 l 2
 1013 779 1011 777 973 777 c 2
 544 777 l 2
 506 777 504 779 504 817 c 2
 504 945 l 2
783 -27 m 0
 1245 -27 1284 136 1301 272 c 0
 1306 313 1306 353 1305 372 c 0
 1302 403 1301 409 1270 409 c 2
 1058 409 l 2
 1014 409 1012 401 1012 353 c 0
 1012 255 990 195 872 195 c 2
 664 195 l 2
 532 195 504 256 504 374 c 2
 504 564 l 2
 504 602 506 604 544 604 c 2
 1251 604 l 2
 1299 604 1319 632 1327 680 c 0
 1334 723 1331 782 1326 835 c 0
 1294 1185 1241 1327 781 1327 c 0
 365 1327 253 1240 203 983 c 0
 189 912 184 773 184 658 c 0
 184 545 188 381 208 303 c 0
 260 97 289 -27 783 -27 c 0
266 1826 m 2
 219 1826 191 1798 191 1751 c 2
 191 1567 l 2
 191 1520 219 1492 266 1492 c 2
 564 1492 l 2
 611 1492 639 1520 639 1567 c 2
 639 1751 l 2
 639 1798 611 1826 564 1826 c 2
 266 1826 l 2
949 1826 m 2
 902 1826 874 1798 874 1751 c 2
 874 1567 l 2
 874 1520 902 1492 949 1492 c 2
 1248 1492 l 2
 1295 1492 1323 1520 1323 1567 c 2
 1323 1751 l 2
 1323 1798 1295 1826 1248 1826 c 2
 949 1826 l 2
EndSplineSet
EndChar

StartChar: iacute
Encoding: 237 237 131
Width: 744
Flags: W
LayerCount: 2
Fore
SplineSet
669 1222 m 2
 669 1269 641 1297 594 1297 c 2
 177 1297 l 2
 130 1297 102 1269 102 1222 c 2
 102 76 l 2
 102 29 130 1 177 1 c 2
 594 1 l 2
 641 1 669 29 669 76 c 2
 669 1222 l 2
-19 1539 m 0
 -19 1510 9 1490 44 1490 c 0
 54 1490 65 1491 76 1495 c 0
 281 1557 568 1629 672 1689 c 0
 753 1736 788 1806 788 1871 c 0
 788 1965 717 2049 614 2049 c 0
 576 2049 534 2038 489 2012 c 0
 388 1954 178 1748 15 1599 c 0
 -9 1578 -19 1557 -19 1539 c 0
EndSplineSet
EndChar

StartChar: igrave
Encoding: 236 236 132
Width: 744
Flags: W
LayerCount: 2
Fore
SplineSet
268 1893 m 0
 223 1919 181 1930 143 1930 c 0
 40 1930 -31 1846 -31 1752 c 0
 -31 1687 4 1617 85 1570 c 0
 189 1510 476 1438 681 1376 c 0
 692 1372 703 1371 713 1371 c 0
 748 1371 776 1391 776 1420 c 0
 776 1438 766 1459 742 1480 c 0
 579 1629 369 1835 268 1893 c 0
670 1222 m 2
 670 1269 642 1297 595 1297 c 2
 178 1297 l 2
 131 1297 103 1269 103 1222 c 2
 103 76 l 2
 103 29 131 1 178 1 c 2
 595 1 l 2
 642 1 670 29 670 76 c 2
 670 1222 l 2
EndSplineSet
EndChar

StartChar: icircumflex
Encoding: 238 238 133
Width: 744
Flags: W
LayerCount: 2
Fore
SplineSet
669 1222 m 2
 669 1269 641 1297 594 1297 c 2
 177 1297 l 2
 130 1297 102 1269 102 1222 c 2
 102 76 l 2
 102 29 130 1 177 1 c 2
 594 1 l 2
 641 1 669 29 669 76 c 2
 669 1222 l 2
-39 1554 m 1
 -40 1554 l 1
 -40 1517 -10 1492 26 1492 c 0
 43 1492 62 1498 80 1512 c 2
 336 1710 l 2
 367 1734 400 1734 431 1710 c 2
 687 1512 l 2
 706 1497 726 1490 744 1490 c 0
 779 1490 807 1516 807 1553 c 0
 807 1569 801 1587 789 1606 c 2
 526 2015 l 2
 493 2066 438 2087 385 2087 c 0
 330 2087 273 2063 242 2015 c 2
 -21 1606 l 2
 -33 1587 -39 1569 -39 1554 c 1
EndSplineSet
EndChar

StartChar: idieresis
Encoding: 239 239 134
Width: 744
Flags: W
LayerCount: 2
Fore
SplineSet
669 1222 m 2
 669 1269 641 1297 594 1297 c 2
 177 1297 l 2
 130 1297 102 1269 102 1222 c 2
 102 76 l 2
 102 29 130 1 177 1 c 2
 594 1 l 2
 641 1 669 29 669 76 c 2
 669 1222 l 2
-107 1826 m 2
 -154 1826 -182 1798 -182 1751 c 2
 -182 1567 l 2
 -182 1520 -154 1492 -107 1492 c 2
 191 1492 l 2
 238 1492 266 1520 266 1567 c 2
 266 1751 l 2
 266 1798 238 1826 191 1826 c 2
 -107 1826 l 2
576 1826 m 2
 529 1826 501 1798 501 1751 c 2
 501 1567 l 2
 501 1520 529 1492 576 1492 c 2
 875 1492 l 2
 922 1492 950 1520 950 1567 c 2
 950 1751 l 2
 950 1798 922 1826 875 1826 c 2
 576 1826 l 2
EndSplineSet
EndChar

StartChar: ntilde
Encoding: 241 241 135
Width: 1579
Flags: W
LayerCount: 2
Fore
SplineSet
1355 96 m 1
 1356 96 l 2
 1403 96 1432 125 1431 172 c 0
 1423 473 1359 646 1026 646 c 0
 857 646 764 573 668 503 c 0
 638 481 604 453 560 453 c 0
 500 453 469 493 456 546 c 0
 442 602 417 621 359 621 c 2
 225 621 l 2
 179 621 150 591 152 545 c 0
 156 479 164 422 177 376 c 1
 222 176 321 70 557 70 c 0
 732 70 830 136 924 211 c 0
 952 233 983 260 1027 260 c 0
 1109 260 1137 178 1137 96 c 1
 1355 96 l 1
555 837 m 2
 555 1015 573 1063 797 1063 c 0
 1028 1063 1054 1022 1054 844 c 2
 1054 76 l 2
 1054 28 1082 0 1130 0 c 2
 1289 0 l 2
 1337 0 1362 28 1365 76 c 0
 1374 214 1377 370 1377 516 c 0
 1377 684 1372 832 1365 935 c 0
 1346 1208 1195 1327 974 1327 c 0
 799 1327 706 1294 592 1222 c 0
 581 1215 566 1204 558 1204 c 0
 541 1204 536 1224 532 1237 c 0
 520 1273 510 1300 472 1300 c 2
 320 1300 l 2
 272 1300 251 1283 244 1224 c 1
 234 1046 229 862 229 672 c 0
 229 481 234 284 244 76 c 1
 251 28 272 0 320 0 c 2
 479 0 l 2
 527 0 555 28 555 76 c 2
 555 837 l 2
EndSplineSet
EndChar

StartChar: oacute
Encoding: 243 243 136
Width: 1525
Flags: W
LayerCount: 2
Fore
SplineSet
489 403 m 2
 489 895 l 2
 489 1043 503 1105 762 1105 c 0
 973 1105 1013 1040 1013 925 c 2
 1013 375 l 2
 1013 264 972 195 763 195 c 0
 513 195 489 258 489 403 c 2
1330 656 m 0
 1330 782 1325 907 1316 956 c 0
 1250 1296 1083 1327 764 1327 c 0
 467 1327 215 1283 187 943 c 0
 183 891 178 774 178 648 c 0
 178 523 182 409 187 363 c 0
 227 3 445 -27 763 -27 c 0
 1068 -27 1246 -15 1316 349 c 0
 1325 398 1330 527 1330 656 c 0
359 1539 m 0
 359 1510 387 1490 422 1490 c 0
 432 1490 443 1491 454 1495 c 0
 659 1557 946 1629 1050 1689 c 0
 1131 1736 1166 1806 1166 1871 c 0
 1166 1965 1095 2049 992 2049 c 0
 954 2049 912 2038 867 2012 c 0
 766 1954 556 1748 393 1599 c 0
 369 1578 359 1557 359 1539 c 0
EndSplineSet
EndChar

StartChar: ograve
Encoding: 242 242 137
Width: 1525
Flags: W
LayerCount: 2
Fore
SplineSet
489 403 m 2
 489 895 l 2
 489 1043 503 1105 762 1105 c 0
 973 1105 1013 1040 1013 925 c 2
 1013 375 l 2
 1013 264 972 195 763 195 c 0
 513 195 489 258 489 403 c 2
1330 656 m 0
 1330 782 1325 907 1316 956 c 0
 1250 1296 1083 1327 764 1327 c 0
 467 1327 215 1283 187 943 c 0
 183 891 178 774 178 648 c 0
 178 523 182 409 187 363 c 0
 227 3 445 -27 763 -27 c 0
 1068 -27 1246 -15 1316 349 c 0
 1325 398 1330 527 1330 656 c 0
658 2012 m 0
 613 2038 571 2049 533 2049 c 0
 430 2049 359 1965 359 1871 c 0
 359 1806 394 1736 475 1689 c 0
 579 1629 866 1557 1071 1495 c 0
 1082 1491 1093 1490 1103 1490 c 0
 1138 1490 1166 1510 1166 1539 c 0
 1166 1557 1156 1578 1132 1599 c 0
 969 1748 759 1954 658 2012 c 0
EndSplineSet
EndChar

StartChar: ocircumflex
Encoding: 244 244 138
Width: 1525
Flags: W
LayerCount: 2
Fore
SplineSet
489 403 m 2
 489 895 l 2
 489 1043 503 1105 762 1105 c 0
 973 1105 1013 1040 1013 925 c 2
 1013 375 l 2
 1013 264 972 195 763 195 c 0
 513 195 489 258 489 403 c 2
1330 656 m 0
 1330 782 1325 907 1316 956 c 0
 1250 1296 1083 1327 764 1327 c 0
 467 1327 215 1283 187 943 c 0
 183 891 178 774 178 648 c 0
 178 523 182 409 187 363 c 0
 227 3 445 -27 763 -27 c 0
 1068 -27 1246 -15 1316 349 c 0
 1325 398 1330 527 1330 656 c 0
339 1554 m 1
 338 1554 l 1
 338 1517 368 1492 404 1492 c 0
 421 1492 440 1498 458 1512 c 2
 714 1710 l 2
 745 1734 778 1734 809 1710 c 2
 1065 1512 l 2
 1084 1497 1104 1490 1122 1490 c 0
 1157 1490 1185 1516 1185 1553 c 0
 1185 1569 1179 1587 1167 1606 c 2
 904 2015 l 2
 871 2066 816 2087 763 2087 c 0
 708 2087 651 2063 620 2015 c 2
 357 1606 l 2
 345 1587 339 1569 339 1554 c 1
EndSplineSet
EndChar

StartChar: odieresis
Encoding: 246 246 139
Width: 1525
Flags: W
LayerCount: 2
Fore
SplineSet
489 403 m 2
 489 895 l 2
 489 1043 503 1105 762 1105 c 0
 973 1105 1013 1040 1013 925 c 2
 1013 375 l 2
 1013 264 972 195 763 195 c 0
 513 195 489 258 489 403 c 2
1330 656 m 0
 1330 782 1325 907 1316 956 c 0
 1250 1296 1083 1327 764 1327 c 0
 467 1327 215 1283 187 943 c 0
 183 891 178 774 178 648 c 0
 178 523 182 409 187 363 c 0
 227 3 445 -27 763 -27 c 0
 1068 -27 1246 -15 1316 349 c 0
 1325 398 1330 527 1330 656 c 0
271 1826 m 2
 224 1826 196 1798 196 1751 c 2
 196 1567 l 2
 196 1520 224 1492 271 1492 c 2
 569 1492 l 2
 616 1492 644 1520 644 1567 c 2
 644 1751 l 2
 644 1798 616 1826 569 1826 c 2
 271 1826 l 2
954 1826 m 2
 907 1826 879 1798 879 1751 c 2
 879 1567 l 2
 879 1520 907 1492 954 1492 c 2
 1253 1492 l 2
 1300 1492 1328 1520 1328 1567 c 2
 1328 1751 l 2
 1328 1798 1300 1826 1253 1826 c 2
 954 1826 l 2
EndSplineSet
EndChar

StartChar: otilde
Encoding: 245 245 140
Width: 1525
Flags: W
LayerCount: 2
Fore
SplineSet
1328 96 m 1
 1329 96 l 2
 1376 96 1405 125 1404 172 c 0
 1396 473 1332 646 999 646 c 0
 830 646 737 573 641 503 c 0
 611 481 577 453 533 453 c 0
 473 453 442 493 429 546 c 0
 415 602 390 621 332 621 c 2
 198 621 l 2
 152 621 123 591 125 545 c 0
 129 479 137 422 150 376 c 1
 195 176 294 70 530 70 c 0
 705 70 803 136 897 211 c 0
 925 233 956 260 1000 260 c 0
 1082 260 1110 178 1110 96 c 1
 1328 96 l 1
490 403 m 2
 490 895 l 2
 490 1043 504 1105 763 1105 c 0
 974 1105 1014 1040 1014 925 c 2
 1014 375 l 2
 1014 264 973 195 764 195 c 0
 514 195 490 258 490 403 c 2
1331 656 m 0
 1331 782 1326 907 1317 956 c 0
 1251 1296 1084 1327 765 1327 c 0
 468 1327 216 1283 188 943 c 0
 184 891 179 774 179 648 c 0
 179 523 183 409 188 363 c 0
 228 3 446 -27 764 -27 c 0
 1069 -27 1247 -15 1317 349 c 0
 1326 398 1331 527 1331 656 c 0
EndSplineSet
EndChar

StartChar: uacute
Encoding: 250 250 141
Width: 1577
Flags: W
LayerCount: 2
Fore
SplineSet
850 68 m 0
 860 77 870 82 878 82 c 0
 891 82 902 71 908 52 c 1
 908 54 l 1
 920 18 946 -1 984 -1 c 2
 1360 -1 l 2
 1408 -1 1429 16 1436 75 c 1
 1446 253 1451 437 1451 627 c 0
 1451 818 1446 1015 1436 1223 c 1
 1429 1271 1408 1299 1360 1299 c 2
 941 1299 l 2
 893 1299 865 1271 865 1223 c 2
 865 300 l 2
 865 262 843 240 805 240 c 2
 758 240 l 2
 720 240 698 262 698 300 c 2
 698 1223 l 2
 698 1271 670 1299 622 1299 c 2
 203 1299 l 2
 155 1299 130 1271 127 1223 c 0
 118 1085 114 929 114 783 c 0
 114 615 119 458 127 355 c 0
 147 104 245 -27 518 -28 c 0
 641 -28 781 9 850 68 c 0
379 1539 m 0
 379 1510 407 1490 442 1490 c 0
 452 1490 463 1491 474 1495 c 0
 679 1557 966 1629 1070 1689 c 0
 1151 1736 1186 1806 1186 1871 c 0
 1186 1965 1115 2049 1012 2049 c 0
 974 2049 932 2038 887 2012 c 0
 786 1954 576 1748 413 1599 c 0
 389 1578 379 1557 379 1539 c 0
EndSplineSet
EndChar

StartChar: ugrave
Encoding: 249 249 142
Width: 1577
Flags: W
LayerCount: 2
Fore
SplineSet
850 68 m 0
 860 77 870 82 878 82 c 0
 891 82 902 71 908 52 c 1
 908 54 l 1
 920 18 946 -1 984 -1 c 2
 1360 -1 l 2
 1408 -1 1429 16 1436 75 c 1
 1446 253 1451 437 1451 627 c 0
 1451 818 1446 1015 1436 1223 c 1
 1429 1271 1408 1299 1360 1299 c 2
 941 1299 l 2
 893 1299 865 1271 865 1223 c 2
 865 300 l 2
 865 262 843 240 805 240 c 2
 758 240 l 2
 720 240 698 262 698 300 c 2
 698 1223 l 2
 698 1271 670 1299 622 1299 c 2
 203 1299 l 2
 155 1299 130 1271 127 1223 c 0
 118 1085 114 929 114 783 c 0
 114 615 119 458 127 355 c 0
 147 104 245 -27 518 -28 c 0
 641 -28 781 9 850 68 c 0
678 2012 m 0
 633 2038 591 2049 553 2049 c 0
 450 2049 379 1965 379 1871 c 0
 379 1806 414 1736 495 1689 c 0
 599 1629 886 1557 1091 1495 c 0
 1102 1491 1113 1490 1123 1490 c 0
 1158 1490 1186 1510 1186 1539 c 0
 1186 1557 1176 1578 1152 1599 c 0
 989 1748 779 1954 678 2012 c 0
EndSplineSet
EndChar

StartChar: ucircumflex
Encoding: 251 251 143
Width: 1577
Flags: W
LayerCount: 2
Fore
SplineSet
850 68 m 0
 860 77 870 82 878 82 c 0
 891 82 902 71 908 52 c 1
 908 54 l 1
 920 18 946 -1 984 -1 c 2
 1360 -1 l 2
 1408 -1 1429 16 1436 75 c 1
 1446 253 1451 437 1451 627 c 0
 1451 818 1446 1015 1436 1223 c 1
 1429 1271 1408 1299 1360 1299 c 2
 941 1299 l 2
 893 1299 865 1271 865 1223 c 2
 865 300 l 2
 865 262 843 240 805 240 c 2
 758 240 l 2
 720 240 698 262 698 300 c 2
 698 1223 l 2
 698 1271 670 1299 622 1299 c 2
 203 1299 l 2
 155 1299 130 1271 127 1223 c 0
 118 1085 114 929 114 783 c 0
 114 615 119 458 127 355 c 0
 147 104 245 -27 518 -28 c 0
 641 -28 781 9 850 68 c 0
359 1554 m 1
 358 1554 l 1
 358 1517 388 1492 424 1492 c 0
 441 1492 460 1498 478 1512 c 2
 734 1710 l 2
 765 1734 798 1734 829 1710 c 2
 1085 1512 l 2
 1104 1497 1124 1490 1142 1490 c 0
 1177 1490 1205 1516 1205 1553 c 0
 1205 1569 1199 1587 1187 1606 c 2
 924 2015 l 2
 891 2066 836 2087 783 2087 c 0
 728 2087 671 2063 640 2015 c 2
 377 1606 l 2
 365 1587 359 1569 359 1554 c 1
EndSplineSet
EndChar

StartChar: udieresis
Encoding: 252 252 144
Width: 1577
Flags: W
LayerCount: 2
Fore
SplineSet
850 68 m 0
 860 77 870 82 878 82 c 0
 891 82 902 71 908 52 c 1
 908 54 l 1
 920 18 946 -1 984 -1 c 2
 1360 -1 l 2
 1408 -1 1429 16 1436 75 c 1
 1446 253 1451 437 1451 627 c 0
 1451 818 1446 1015 1436 1223 c 1
 1429 1271 1408 1299 1360 1299 c 2
 941 1299 l 2
 893 1299 865 1271 865 1223 c 2
 865 300 l 2
 865 262 843 240 805 240 c 2
 758 240 l 2
 720 240 698 262 698 300 c 2
 698 1223 l 2
 698 1271 670 1299 622 1299 c 2
 203 1299 l 2
 155 1299 130 1271 127 1223 c 0
 118 1085 114 929 114 783 c 0
 114 615 119 458 127 355 c 0
 147 104 245 -27 518 -28 c 0
 641 -28 781 9 850 68 c 0
291 1826 m 2
 244 1826 216 1798 216 1751 c 2
 216 1567 l 2
 216 1520 244 1492 291 1492 c 2
 589 1492 l 2
 636 1492 664 1520 664 1567 c 2
 664 1751 l 2
 664 1798 636 1826 589 1826 c 2
 291 1826 l 2
974 1826 m 2
 927 1826 899 1798 899 1751 c 2
 899 1567 l 2
 899 1520 927 1492 974 1492 c 2
 1273 1492 l 2
 1320 1492 1348 1520 1348 1567 c 2
 1348 1751 l 2
 1348 1798 1320 1826 1273 1826 c 2
 974 1826 l 2
EndSplineSet
EndChar

StartChar: dagger
Encoding: 8224 8224 145
Width: 1061
Flags: W
LayerCount: 2
Fore
SplineSet
523 1627 m 1
 525 1629 l 1
 432 1629 340 1573 340 1459 c 0
 340 1375 384 1269 435 1165 c 0
 447 1141 431 1124 406 1134 c 0
 310 1171 223 1201 154 1201 c 0
 76 1201 36 1129 36 1058 c 0
 36 987 75 917 155 917 c 0
 222 917 307 946 401 982 c 0
 430 993 451 975 445 944 c 0
 389 632 342 361 342 221 c 0
 342 77 433 6 524 6 c 0
 618 6 713 80 713 223 c 0
 713 361 666 619 604 949 c 0
 598 980 619 998 648 987 c 0
 737 952 833 916 907 916 c 0
 986 916 1025 987 1025 1059 c 0
 1025 1129 986 1200 908 1200 c 0
 831 1200 732 1161 640 1125 c 0
 615 1115 599 1132 611 1156 c 0
 664 1262 713 1371 713 1458 c 0
 713 1569 617 1627 523 1627 c 1
EndSplineSet
EndChar

StartChar: degree
Encoding: 176 176 146
Width: 812
Flags: W
LayerCount: 2
Fore
SplineSet
404 1070 m 0
 612 1070 735 1218 735 1371 c 0
 735 1524 612 1672 404 1672 c 0
 196 1672 73 1524 73 1371 c 0
 73 1218 196 1070 404 1070 c 0
404 1222 m 0
 321 1222 263 1283 263 1371 c 0
 263 1459 321 1520 404 1520 c 0
 487 1520 545 1459 545 1371 c 0
 545 1283 487 1222 404 1222 c 0
EndSplineSet
EndChar

StartChar: cent
Encoding: 162 162 147
Width: 1462
Flags: W
LayerCount: 2
Fore
SplineSet
961 633 m 1
 961 630 l 1
 914 630 886 602 886 555 c 2
 886 420 l 2
 886 389 868 371 837 371 c 2
 835 371 l 2
 804 371 786 389 786 420 c 2
 786 1068 l 2
 786 1099 804 1117 835 1117 c 2
 837 1117 l 2
 868 1117 886 1099 886 1068 c 2
 886 955 l 2
 886 908 914 880 961 880 c 2
 1342 880 l 2
 1376 880 1396 900 1396 934 c 2
 1396 991 l 2
 1396 1283 1082 1332 844 1340 c 0
 806 1341 784 1363 784 1401 c 2
 784 1537 l 2
 784 1561 770 1575 746 1575 c 2
 744 1575 l 2
 720 1575 706 1561 706 1537 c 2
 706 1401 l 2
 706 1363 684 1341 646 1340 c 0
 379 1333 86 1284 86 967 c 2
 86 527 l 2
 86 208 366 154 647 147 c 0
 685 146 707 124 707 86 c 2
 707 -36 l 2
 707 -60 721 -74 745 -74 c 2
 747 -74 l 2
 771 -74 785 -60 785 -36 c 2
 785 86 l 2
 785 124 807 146 845 147 c 0
 1119 154 1396 203 1396 523 c 2
 1396 579 l 2
 1396 613 1376 633 1342 633 c 2
 961 633 l 1
653 1116 m 2
 686 1116 706 1096 706 1063 c 2
 706 423 l 2
 706 390 686 370 653 370 c 2
 651 370 l 2
 618 370 598 390 598 423 c 2
 598 1063 l 2
 598 1096 618 1116 651 1116 c 2
 653 1116 l 2
EndSplineSet
EndChar

StartChar: sterling
Encoding: 163 163 148
Width: 1598
Flags: W
LayerCount: 2
Fore
SplineSet
74 76 m 1
 72 75 l 1
 72 28 100 0 147 0 c 2
 298 0 l 1
 404 1 494 2 576 16 c 0
 648 29 694 53 736 89 c 0
 763 112 798 110 805 103 c 0
 809 99 813 95 817 91 c 0
 875 29 969 0 1095 0 c 0
 1223 0 1323 19 1397 65 c 0
 1496 126 1526 228 1526 385 c 2
 1526 486 l 2
 1526 533 1498 561 1451 561 c 2
 1022 561 l 2
 975 561 947 533 947 486 c 2
 947 327 l 2
 947 290 925 268 888 268 c 2
 879 268 l 2
 842 268 820 290 820 327 c 2
 820 658 l 2
 820 695 842 717 879 717 c 2
 1171 717 l 2
 1218 717 1246 745 1246 792 c 2
 1246 862 l 2
 1246 909 1218 937 1171 937 c 2
 879 937 l 2
 842 937 820 959 820 996 c 2
 820 1308 l 2
 820 1341 840 1361 873 1361 c 2
 875 1361 l 2
 908 1361 928 1341 928 1308 c 2
 928 1142 l 2
 928 1095 956 1067 1003 1067 c 2
 1432 1067 l 2
 1479 1067 1507 1095 1507 1142 c 2
 1507 1243 l 2
 1507 1270 1506 1298 1504 1327 c 0
 1494 1452 1423 1520 1322 1564 c 0
 1210 1612 1069 1628 893 1628 c 0
 664 1628 458 1614 346 1507 c 0
 248 1413 234 1256 234 1061 c 2
 234 997 l 2
 234 960 212 938 175 938 c 2
 152 938 l 2
 105 938 77 910 77 863 c 2
 77 793 l 2
 77 746 105 718 152 718 c 2
 175 718 l 2
 212 718 234 696 234 659 c 2
 234 376 l 2
 234 297 147 275 76 266 c 1
 76 266 l 1
 74 265 l 1
 74 265 l 1
 74 76 l 1
EndSplineSet
EndChar

StartChar: section
Encoding: 167 167 149
Width: 1362
Flags: W
LayerCount: 2
Fore
SplineSet
1150 652 m 2
 1219 605 l 1
 1143 653 1146 706 1230 746 c 2
 1167 716 l 2
 1165 715 1165 716 1167 717 c 0
 1240 760 1293 832 1293 947 c 0
 1293 1210 964 1221 775 1229 c 0
 757 1230 734 1230 713 1231 c 0
 692 1232 656 1270 656 1292 c 2
 656 1460 l 2
 656 1482 669 1495 691 1495 c 2
 693 1495 l 2
 715 1495 728 1482 728 1460 c 2
 728 1380 l 2
 728 1333 756 1305 803 1305 c 2
 1227 1305 l 2
 1260 1305 1279 1324 1279 1357 c 0
 1279 1375 1279 1393 1279 1411 c 0
 1279 1749 960 1770 698 1770 c 0
 360 1770 84 1727 84 1329 c 0
 84 1206 136 1126 210 1075 c 0
 239 1055 237 1036 152 1002 c 2
 229 1033 l 1
 139 994 70 912 70 784 c 0
 70 556 228 488 452 488 c 2
 647 488 l 2
 684 488 706 466 706 429 c 2
 706 272 l 2
 706 250 693 237 671 237 c 2
 669 237 l 2
 647 237 634 250 634 272 c 2
 634 352 l 2
 634 399 606 427 559 427 c 2
 136 427 l 2
 103 427 84 408 84 375 c 0
 84 357 84 339 84 321 c 0
 84 -18 400 -40 663 -40 c 0
 1001 -40 1277 3 1277 401 c 0
 1277 525 1223 603 1150 652 c 2
679 746 m 2
 658 746 645 759 645 780 c 2
 645 936 l 2
 645 957 658 970 679 970 c 2
 681 970 l 2
 702 970 715 957 715 936 c 2
 715 780 l 2
 715 759 702 746 681 746 c 2
 679 746 l 2
EndSplineSet
EndChar

StartChar: bullet
Encoding: 8226 8226 150
Width: 1120
Flags: W
LayerCount: 2
Fore
SplineSet
579 1254 m 0
 213 1254 71 1102 71 726 c 0
 71 381 181 195 577 195 c 0
 947 195 1053 407 1053 726 c 0
 1053 1076 921 1254 579 1254 c 0
EndSplineSet
EndChar

StartChar: paragraph
Encoding: 182 182 151
Width: 1318
Flags: W
LayerCount: 2
Fore
SplineSet
591 76 m 1
 595 77 l 1
 595 30 623 2 670 2 c 2
 780 2 l 2
 827 2 855 30 855 77 c 2
 855 606 l 2
 855 639 875 659 908 659 c 2
 910 659 l 2
 943 659 963 639 963 606 c 2
 963 77 l 2
 963 30 991 2 1038 2 c 2
 1147 2 l 2
 1194 2 1222 30 1222 77 c 2
 1222 1520 l 2
 1222 1567 1194 1595 1147 1595 c 2
 689 1595 l 2
 342 1595 56 1516 56 1107 c 0
 56 802 234 675 531 661 c 0
 570 659 591 637 591 598 c 2
 591 76 l 1
EndSplineSet
EndChar

StartChar: germandbls
Encoding: 223 223 152
Width: 1389
Flags: W
LayerCount: 2
Fore
SplineSet
595 1298 m 1
 597 1297 l 1
 597 1334 619 1356 656 1356 c 2
 773 1356 l 2
 810 1356 832 1334 832 1297 c 2
 832 1035 l 2
 832 1001 811 980 777 980 c 2
 775 980 l 2
 741 980 720 959 720 925 c 2
 720 804 l 2
 720 770 741 749 775 749 c 2
 777 749 l 2
 811 749 832 728 832 694 c 2
 832 253 l 2
 832 216 810 194 773 194 c 2
 762 194 l 2
 719 194 693 168 693 125 c 2
 693 3 l 2
 693 -23 708 -38 734 -38 c 2
 777 -38 l 2
 863 -38 936 -34 997 -26 c 0
 1187 -1 1328 49 1328 257 c 2
 1328 552 l 2
 1328 612 1317 662 1294 702 c 0
 1245 788 1159 844 1046 863 c 0
 1032 865 1032 875 1046 878 c 0
 1074 885 1100 895 1124 908 c 0
 1209 956 1260 1034 1260 1169 c 0
 1260 1234 1256 1296 1238 1349 c 0
 1174 1537 977 1594 717 1594 c 0
 618 1594 534 1588 465 1577 c 0
 246 1541 101 1463 101 1216 c 2
 101 -130 l 2
 101 -177 129 -205 176 -205 c 2
 520 -205 l 2
 567 -205 595 -177 595 -130 c 2
 595 1298 l 1
EndSplineSet
EndChar

StartChar: registered
Encoding: 174 174 153
Width: 1861
Flags: W
LayerCount: 2
Fore
SplineSet
1780 539 m 2
 1780 1116 l 2
 1780 1610 1441 1749 932 1749 c 0
 490 1749 84 1638 84 1116 c 2
 84 539 l 2
 84 42 421 -101 932 -101 c 0
 1377 -101 1780 14 1780 539 c 2
932 1573 m 0
 1275 1573 1541 1500 1541 1165 c 2
 1541 482 l 2
 1541 156 1300 68 932 68 c 0
 523 68 323 169 323 535 c 2
 323 1114 l 2
 323 1471 520 1573 932 1573 c 0
1116 845 m 1
 1120 847 l 1
 1120 852 1123 855 1128 855 c 2
 1230 864 l 2
 1312 871 1365 945 1365 1071 c 2
 1365 1164 l 2
 1365 1423 1175 1434 1020 1434 c 2
 586 1434 l 2
 539 1434 511 1406 511 1359 c 2
 511 356 l 2
 511 309 539 281 586 281 c 2
 823 281 l 2
 870 281 898 309 898 356 c 2
 898 717 l 2
 898 742 913 757 938 757 c 2
 940 757 l 2
 965 757 980 742 980 717 c 2
 980 356 l 2
 980 309 1008 281 1055 281 c 2
 1282 281 l 2
 1329 281 1357 309 1357 356 c 2
 1357 644 l 2
 1357 752 1311 823 1227 829 c 1
 1124 835 l 2
 1119 835 1116 838 1116 843 c 2
 1116 845 l 1
899 1235 m 2
 899 1260 914 1275 939 1275 c 2
 941 1275 l 2
 966 1275 981 1260 981 1235 c 2
 981 957 l 2
 981 932 966 917 941 917 c 2
 939 917 l 2
 914 917 899 932 899 957 c 2
 899 1235 l 2
EndSplineSet
EndChar

StartChar: copyright
Encoding: 169 169 154
Width: 1861
Flags: W
LayerCount: 2
Fore
SplineSet
1780 539 m 2
 1780 1116 l 2
 1780 1610 1441 1749 932 1749 c 0
 490 1749 84 1638 84 1116 c 2
 84 539 l 2
 84 42 421 -101 932 -101 c 0
 1377 -101 1780 14 1780 539 c 2
932 1573 m 0
 1275 1573 1541 1500 1541 1165 c 2
 1541 482 l 2
 1541 156 1300 68 932 68 c 0
 523 68 323 169 323 535 c 2
 323 1114 l 2
 323 1471 520 1573 932 1573 c 0
835 1162 m 1
 835 1163 l 2
 835 1200 857 1222 894 1222 c 2
 974 1222 l 2
 1011 1222 1033 1200 1033 1163 c 2
 1033 989 l 2
 1033 942 1061 914 1108 914 c 2
 1233 914 l 2
 1280 914 1308 942 1308 989 c 2
 1308 1111 l 2
 1308 1366 1110 1381 913 1381 c 0
 684 1381 552 1334 552 1107 c 2
 552 547 l 2
 552 315 698 272 913 272 c 0
 1158 272 1308 312 1308 542 c 2
 1308 673 l 2
 1308 720 1280 748 1233 748 c 2
 1108 748 l 2
 1061 748 1033 720 1033 673 c 2
 1033 491 l 2
 1033 454 1011 432 974 432 c 2
 894 432 l 2
 857 432 835 454 835 491 c 2
 835 1162 l 1
EndSplineSet
EndChar

StartChar: trademark
Encoding: 8482 8482 155
Width: 1884
Flags: W
LayerCount: 2
Fore
SplineSet
117 1595 m 1
 121 1595 l 2
 77 1595 51 1569 51 1525 c 2
 51 1523 l 2
 51 1479 77 1453 121 1453 c 2
 153 1453 l 2
 190 1453 212 1431 212 1394 c 2
 212 733 l 2
 212 686 240 658 287 658 c 2
 508 658 l 2
 555 658 583 686 583 733 c 2
 583 1394 l 2
 583 1431 605 1453 642 1453 c 2
 675 1453 l 2
 719 1453 745 1479 745 1523 c 2
 745 1525 l 2
 745 1569 719 1595 675 1595 c 2
 117 1595 l 1
1295 657 m 1
 1299 657 l 2
 1332 657 1354 674 1363 706 c 2
 1413 893 l 2
 1417 909 1428 908 1428 892 c 2
 1428 733 l 2
 1428 686 1456 658 1503 658 c 2
 1721 658 l 2
 1768 658 1796 686 1796 733 c 2
 1796 1519 l 2
 1796 1566 1768 1594 1721 1594 c 2
 1433 1594 l 2
 1384 1594 1353 1567 1346 1519 c 2
 1304 1216 l 2
 1302 1199 1290 1199 1287 1216 c 2
 1240 1519 l 2
 1232 1567 1201 1594 1152 1594 c 2
 870 1594 l 2
 823 1594 795 1566 795 1519 c 2
 795 733 l 2
 795 686 823 658 870 658 c 2
 1089 658 l 2
 1136 658 1164 686 1164 733 c 2
 1164 892 l 2
 1164 908 1175 909 1179 893 c 2
 1229 706 l 2
 1238 674 1260 657 1293 657 c 2
 1295 657 l 1
EndSplineSet
EndChar

StartChar: acute
Encoding: 180 180 156
Width: 873
Flags: W
LayerCount: 2
Fore
SplineSet
25 1420 m 0
 25 1391 53 1371 88 1371 c 0
 98 1371 109 1372 120 1376 c 0
 325 1438 612 1510 716 1570 c 0
 797 1617 832 1687 832 1752 c 0
 832 1846 761 1930 658 1930 c 0
 620 1930 578 1919 533 1893 c 0
 432 1835 222 1629 59 1480 c 0
 35 1459 25 1438 25 1420 c 0
EndSplineSet
EndChar

StartChar: dieresis
Encoding: 168 168 157
Width: 1296
Flags: W
LayerCount: 2
Fore
SplineSet
159 418 m 2
 112 418 84 390 84 343 c 2
 84 159 l 2
 84 112 112 84 159 84 c 2
 457 84 l 2
 504 84 532 112 532 159 c 2
 532 343 l 2
 532 390 504 418 457 418 c 2
 159 418 l 2
842 418 m 2
 795 418 767 390 767 343 c 2
 767 159 l 2
 767 112 795 84 842 84 c 2
 1141 84 l 2
 1188 84 1216 112 1216 159 c 2
 1216 343 l 2
 1216 390 1188 418 1141 418 c 2
 842 418 l 2
EndSplineSet
EndChar

StartChar: AE
Encoding: 198 198 158
Width: 2011
Flags: W
LayerCount: 2
Fore
SplineSet
749 1595 m 1
 748 1605 l 1
 698 1605 663 1581 644 1534 c 2
 65 80 l 2
 49 40 70 9 113 9 c 2
 586 9 l 2
 636 9 670 34 685 81 c 2
 755 300 l 2
 767 337 794 356 833 356 c 2
 927 356 l 2
 964 356 986 334 986 297 c 2
 988 84 l 2
 988 36 1017 8 1065 8 c 2
 1870 8 l 2
 1917 8 1945 36 1945 83 c 2
 1945 175 l 2
 1945 222 1917 250 1870 250 c 2
 1664 250 l 2
 1627 250 1605 272 1605 309 c 2
 1605 657 l 2
 1605 694 1627 716 1664 716 c 2
 1847 716 l 2
 1894 716 1922 744 1922 791 c 2
 1922 889 l 2
 1922 936 1894 964 1847 964 c 2
 1664 964 l 2
 1627 964 1605 986 1605 1023 c 2
 1605 1297 l 2
 1605 1334 1627 1356 1664 1356 c 2
 1870 1356 l 2
 1917 1356 1945 1384 1945 1431 c 2
 1945 1520 l 2
 1945 1567 1917 1595 1870 1595 c 2
 749 1595 l 1
967 954 m 1
 965 953 l 1
 971 970 984 968 984 950 c 2
 984 646 l 2
 984 609 962 587 925 587 c 2
 904 587 l 2
 870 587 853 611 864 644 c 2
 967 954 l 1
EndSplineSet
EndChar

StartChar: Oslash
Encoding: 216 216 159
Width: 1542
Flags: W
LayerCount: 2
Fore
SplineSet
868 855 m 1
 867 295 l 2
 867 258 845 236 808 236 c 2
 754 236 l 2
 717 236 695 258 695 295 c 2
 695 573 l 1
 868 855 l 1
694 1303 m 1
 695 1303 l 1
 695 1340 717 1362 754 1362 c 2
 808 1362 l 2
 845 1362 867 1340 867 1303 c 2
 867 1156 l 1
 694 875 l 1
 694 1303 l 1
1058 -19 m 1
 1058 -20 l 1
 1295 20 1472 103 1472 370 c 2
 1472 1226 l 2
 1472 1395 1406 1486 1290 1544 c 1
 1356 1652 l 2
 1381 1694 1374 1735 1337 1766 c 1
 1333 1770 l 1
 1298 1799 1259 1793 1235 1754 c 2
 1139 1598 l 1
 1036 1622 916 1631 777 1631 c 0
 668 1631 575 1625 498 1612 c 0
 262 1573 89 1492 89 1227 c 2
 89 371 l 2
 89 344 91 315 95 284 c 0
 106 195 148 132 209 86 c 1
 153 -5 l 2
 128 -46 136 -86 175 -115 c 2
 182 -120 l 1
 219 -148 258 -141 282 -101 c 2
 352 14 l 1
 468 -25 610 -40 779 -40 c 1
 779 -40 l 1
 778 -38 l 1
 778 -38 l 1
 888 -38 981 -32 1058 -19 c 1
EndSplineSet
EndChar

StartChar: plusminus
Encoding: 177 177 160
Width: 1304
Flags: W
LayerCount: 2
Fore
SplineSet
168 1214 m 2
 121 1214 93 1186 93 1139 c 2
 93 958 l 2
 93 911 121 883 168 883 c 2
 398 883 l 2
 435 883 457 861 457 824 c 2
 457 581 l 2
 457 534 485 506 532 506 c 2
 772 506 l 2
 819 506 847 534 847 581 c 2
 847 824 l 2
 847 861 869 883 906 883 c 2
 1135 883 l 2
 1182 883 1210 911 1210 958 c 2
 1210 1139 l 2
 1210 1186 1182 1214 1135 1214 c 2
 906 1214 l 2
 869 1214 847 1236 847 1273 c 2
 847 1519 l 2
 847 1566 819 1594 772 1594 c 2
 532 1594 l 2
 485 1594 457 1566 457 1519 c 2
 457 1273 l 2
 457 1236 435 1214 398 1214 c 2
 168 1214 l 2
306 300 m 2
 259 300 231 272 231 225 c 2
 231 76 l 2
 231 29 259 1 306 1 c 2
 988 1 l 2
 1035 1 1063 29 1063 76 c 2
 1063 225 l 2
 1063 272 1035 300 988 300 c 2
 306 300 l 2
EndSplineSet
EndChar

StartChar: yen
Encoding: 165 165 161
Width: 1571
Flags: W
LayerCount: 2
Fore
SplineSet
612 1522 m 1
 614 1524 l 1
 601 1572 568 1597 518 1597 c 2
 110 1597 l 2
 67 1597 46 1566 62 1526 c 2
 374 730 l 1
 200 730 l 2
 156 730 130 704 130 660 c 2
 130 658 l 2
 130 614 156 588 200 588 c 2
 430 588 l 1
 458 517 l 2
 467 495 473 469 477 444 c 1
 201 444 l 2
 157 444 131 418 131 374 c 2
 131 372 l 2
 131 328 157 302 201 302 c 2
 481 302 l 1
 481 79 l 2
 481 32 509 4 556 4 c 2
 1009 4 l 2
 1056 4 1084 32 1084 79 c 2
 1084 302 l 1
 1357 302 l 2
 1401 302 1427 328 1427 372 c 2
 1427 374 l 2
 1427 418 1401 444 1357 444 c 2
 1089 444 l 1
 1093 466 1099 488 1106 507 c 2
 1137 587 l 1
 1357 587 l 2
 1401 587 1427 613 1427 657 c 2
 1427 659 l 2
 1427 703 1401 729 1357 729 c 2
 1192 729 l 1
 1499 1525 l 2
 1514 1565 1493 1596 1450 1596 c 2
 1046 1596 l 2
 996 1596 963 1571 950 1523 c 2
 832 1095 l 2
 820 1053 809 989 805 946 c 2
 795 829 l 2
 794 821 789 816 780 816 c 2
 778 816 l 2
 769 816 764 821 763 829 c 2
 753 946 l 2
 749 989 738 1053 727 1095 c 2
 612 1522 l 1
EndSplineSet
EndChar

StartChar: product
Encoding: 8719 8719 163
Width: 1788
Flags: W
LayerCount: 2
Fore
SplineSet
236 1595 m 2
 188 1595 164 1565 160 1519 c 0
 140 1268 140 1025 140 790 c 0
 140 543 141 305 160 76 c 0
 164 29 188 0 236 0 c 2
 698 0 l 2
 746 0 774 28 774 76 c 2
 774 1336 l 2
 774 1374 776 1376 814 1376 c 2
 973 1376 l 2
 1011 1376 1013 1374 1013 1336 c 2
 1013 76 l 2
 1013 28 1041 0 1089 0 c 2
 1551 0 l 2
 1599 0 1622 28 1627 76 c 0
 1648 283 1648 548 1648 810 c 0
 1648 1069 1648 1325 1627 1519 c 0
 1622 1566 1599 1595 1551 1595 c 2
 236 1595 l 2
EndSplineSet
EndChar

StartChar: ordfeminine
Encoding: 170 170 164
Width: 1471
Flags: W
LayerCount: 2
Fore
SplineSet
1380 1241 m 1
 1379 1240 l 1
 1379 1265 1378 1292 1376 1320 c 0
 1366 1443 1288 1510 1185 1552 c 0
 1067 1600 920 1615 738 1615 c 0
 652 1615 577 1611 514 1602 c 0
 314 1575 134 1513 134 1293 c 0
 134 1273 135 1254 137 1236 c 0
 141 1203 164 1183 197 1184 c 2
 594 1199 l 2
 642 1201 670 1230 670 1278 c 2
 670 1334 l 2
 670 1371 692 1393 729 1393 c 2
 749 1393 l 2
 786 1393 808 1371 808 1334 c 2
 808 1132 l 2
 808 1096 786 1079 751 1088 c 0
 691 1103 623 1113 543 1113 c 0
 233 1113 71 982 71 677 c 0
 71 396 207 263 492 263 c 0
 628 263 730 307 796 380 c 0
 818 405 842 401 855 370 c 2
 860 358 l 2
 878 313 912 290 961 290 c 2
 1330 290 l 2
 1377 290 1401 318 1394 364 c 2
 1368 535 l 2
 1366 549 1379 545 1369 535 c 2
 1380 546 l 1
 1380 1241 l 1
749 941 m 2
 786 941 808 919 808 882 c 2
 808 548 l 2
 808 511 786 489 749 489 c 2
 702 489 l 2
 665 489 643 511 643 548 c 2
 643 882 l 2
 643 919 665 941 702 941 c 2
 749 941 l 2
1379 545 m 1
 1389 555 1379 531 1379 545 c 1
 1379 545 l 1
EndSplineSet
EndChar

StartChar: ordmasculine
Encoding: 186 186 165
Width: 1334
Flags: W
LayerCount: 2
Fore
SplineSet
1265 412 m 2
 1265 892 l 2
 1265 1180 996 1204 745 1204 c 0
 507 1204 218 1185 218 893 c 2
 218 413 l 2
 218 115 490 99 744 99 c 1
 990 102 1265 110 1265 412 c 2
675 954 m 2
 675 991 697 1013 734 1013 c 2
 748 1013 l 2
 785 1013 807 991 807 954 c 2
 807 376 l 2
 807 339 785 317 748 317 c 2
 734 317 l 2
 697 317 675 339 675 376 c 2
 675 954 l 2
EndSplineSet
EndChar

StartChar: ae
Encoding: 230 230 166
Width: 2144
Flags: W
LayerCount: 2
Fore
SplineSet
725 1343 m 1
 727 1342 l 1
 642 1342 568 1337 505 1328 c 0
 300 1299 131 1230 131 1003 c 0
 131 991 131 979 132 968 c 0
 135 923 168 894 213 896 c 0
 342 901 469 906 598 911 c 0
 641 913 666 939 666 982 c 2
 666 993 l 2
 666 1030 688 1052 725 1052 c 2
 729 1052 l 2
 766 1052 788 1030 788 993 c 2
 788 843 l 2
 788 807 766 790 731 799 c 0
 676 814 614 823 538 823 c 0
 229 823 69 691 69 387 c 0
 69 262 108 165 175 96 c 0
 261 8 395 -37 577 -37 c 0
 760 -37 905 -8 1026 49 c 0
 1066 68 1090 67 1127 44 c 0
 1204 -4 1301 -36 1427 -36 c 0
 1526 -36 1611 -31 1682 -20 c 0
 1917 16 2069 96 2074 354 c 1
 2074 429 l 2
 2074 474 2047 501 2002 501 c 2
 1579 501 l 2
 1532 501 1504 473 1504 426 c 2
 1504 312 l 2
 1504 275 1482 253 1445 253 c 2
 1420 253 l 2
 1383 253 1361 275 1361 312 c 2
 1361 547 l 2
 1361 584 1383 606 1420 606 c 2
 2001 606 l 2
 2048 606 2076 634 2076 681 c 2
 2076 955 l 2
 2076 982 2075 1010 2072 1039 c 0
 2061 1164 1982 1234 1878 1278 c 0
 1761 1327 1614 1344 1432 1344 c 0
 1283 1344 1160 1319 1073 1262 c 1
 1073 1262 l 1
 1074 1261 l 1
 993 1320 871 1343 725 1343 c 1
729 603 m 2
 766 603 788 581 788 544 c 2
 788 311 l 2
 788 274 766 252 729 252 c 2
 698 252 l 2
 661 252 639 274 639 311 c 2
 639 544 l 2
 639 581 661 603 698 603 c 2
 729 603 l 2
1361 994 m 2
 1361 1031 1383 1053 1420 1053 c 2
 1445 1053 l 2
 1482 1053 1504 1031 1504 994 c 2
 1504 859 l 2
 1504 822 1482 800 1445 800 c 2
 1420 800 l 2
 1383 800 1361 822 1361 859 c 2
 1361 994 l 2
EndSplineSet
EndChar

StartChar: oslash
Encoding: 248 248 167
Width: 1465
Flags: W
LayerCount: 2
Fore
SplineSet
170 19 m 1
 171 21 l 1
 201 52 229 57 268 38 c 0
 391 -21 552 -37 745 -37 c 0
 929 -37 1079 -20 1198 29 c 0
 1331 84 1396 174 1396 354 c 2
 1396 954 l 2
 1396 1037 1385 1101 1356 1152 c 0
 1333 1193 1336 1216 1368 1249 c 2
 1378 1259 l 2
 1396 1277 1396 1298 1378 1316 c 2
 1377 1317 l 2
 1359 1335 1338 1335 1321 1317 c 2
 1301 1297 l 2
 1271 1266 1243 1261 1203 1278 c 0
 1083 1331 930 1346 746 1346 c 1
 639 1345 548 1339 474 1327 c 0
 242 1290 87 1214 87 954 c 2
 87 354 l 2
 87 278 96 218 121 169 c 0
 142 127 138 103 105 69 c 2
 85 48 l 2
 67 30 67 9 85 -9 c 2
 86 -10 l 2
 104 -28 125 -28 142 -10 c 2
 170 19 l 1
658 462 m 1
 657 462 l 1
 657 502 671 536 699 564 c 2
 782 649 l 2
 801 669 823 660 823 632 c 2
 823 296 l 2
 823 259 801 237 764 237 c 2
 717 237 l 2
 680 237 658 259 658 296 c 2
 658 462 l 1
657 1049 m 1
 658 1049 l 1
 658 1086 680 1108 717 1108 c 2
 764 1108 l 2
 801 1108 823 1086 823 1049 c 2
 823 868 l 2
 823 828 809 794 781 766 c 2
 698 681 l 2
 679 661 657 670 657 698 c 2
 657 1049 l 1
EndSplineSet
EndChar

StartChar: questiondown
Encoding: 191 191 168
Width: 906
Flags: W
LayerCount: 2
Fore
SplineSet
37 285 m 1
 36 286 l 1
 36 126 134 -33 469 -33 c 0
 549 -33 647 -18 767 15 c 0
 813 28 837 63 832 110 c 2
 812 305 l 2
 807 351 777 371 733 357 c 0
 684 341 644 334 611 334 c 0
 508 334 469 386 469 448 c 0
 469 457 470 466 471 475 c 0
 498 619 616 784 616 1016 c 0
 616 1062 596 1088 555 1088 c 0
 528 1088 498 1074 493 1031 c 0
 453 686 37 589 37 285 c 1
552 1638 m 0
 450 1638 348 1568 348 1428 c 0
 348 1288 450 1218 552 1218 c 0
 654 1218 756 1288 756 1428 c 0
 756 1568 654 1638 552 1638 c 0
EndSplineSet
EndChar

StartChar: exclamdown
Encoding: 161 161 169
Width: 801
Flags: W
LayerCount: 2
Fore
SplineSet
402 923 m 0
 377 923 353 900 342 855 c 0
 279 588 144 209 144 51 c 0
 144 -94 275 -169 404 -169 c 0
 530 -169 655 -98 655 49 c 0
 655 203 527 582 463 855 c 0
 452 901 427 923 402 923 c 0
402 1501 m 0
 300 1501 198 1431 198 1291 c 0
 198 1151 300 1081 402 1081 c 0
 504 1081 606 1151 606 1291 c 0
 606 1431 504 1501 402 1501 c 0
EndSplineSet
EndChar

StartChar: logicalnot
Encoding: 172 172 170
Width: 1269
Flags: W
LayerCount: 2
Fore
SplineSet
1179 1029 m 1
 1180 1028 l 1
 1180 1075 1152 1103 1105 1103 c 2
 161 1103 l 2
 114 1103 86 1075 86 1028 c 2
 86 866 l 2
 86 819 114 791 161 791 c 2
 893 791 l 2
 930 791 952 769 952 732 c 2
 952 376 l 2
 952 329 980 301 1027 301 c 2
 1104 301 l 2
 1151 301 1179 329 1179 376 c 2
 1179 1029 l 1
EndSplineSet
EndChar

StartChar: guillemotleft
Encoding: 171 171 171
Width: 1806
Flags: W
LayerCount: 2
Fore
SplineSet
774 190 m 1
 774 189 l 1
 820 189 855 229 855 276 c 0
 855 299 849 322 832 344 c 2
 534 729 l 2
 510 760 510 793 534 824 c 2
 832 1209 l 2
 850 1233 857 1256 857 1278 c 0
 857 1326 822 1364 776 1364 c 0
 757 1364 735 1358 711 1341 c 2
 184 961 l 2
 126 919 95 846 94 775 c 0
 94 706 124 636 184 593 c 2
 711 213 l 2
 732 197 755 190 774 190 c 1
1510 189 m 1
 1510 188 l 1
 1556 188 1590 228 1590 275 c 0
 1590 298 1585 321 1568 343 c 2
 1270 728 l 2
 1246 759 1246 792 1270 823 c 2
 1568 1208 l 2
 1586 1232 1592 1255 1592 1277 c 0
 1592 1325 1558 1363 1512 1363 c 0
 1494 1363 1470 1357 1446 1340 c 2
 920 960 l 2
 862 918 831 845 830 774 c 0
 830 705 860 635 920 592 c 2
 1446 212 l 2
 1469 195 1491 189 1510 189 c 1
EndSplineSet
EndChar

StartChar: guillemotright
Encoding: 187 187 172
Width: 1770
Flags: W
LayerCount: 2
Fore
SplineSet
1642 775 m 2
 1642 776 l 1
 1641 847 1610 920 1552 962 c 2
 1025 1342 l 2
 1001 1359 979 1365 960 1365 c 0
 914 1365 879 1327 879 1279 c 0
 879 1257 886 1234 904 1210 c 2
 1202 825 l 2
 1226 794 1226 761 1202 730 c 2
 904 345 l 2
 887 323 881 300 881 277 c 0
 881 230 916 190 962 190 c 0
 981 190 1004 197 1025 213 c 2
 1552 593 l 2
 1612 636 1642 706 1642 775 c 2
906 776 m 2
 906 777 l 1
 905 848 874 921 816 963 c 2
 290 1343 l 2
 266 1360 242 1366 224 1366 c 0
 178 1366 144 1328 144 1280 c 0
 144 1258 150 1235 168 1211 c 2
 466 826 l 2
 490 795 490 762 466 731 c 2
 168 346 l 2
 151 324 146 301 146 278 c 0
 146 231 180 191 226 191 c 0
 245 191 267 197 290 214 c 2
 816 594 l 2
 876 637 906 707 906 776 c 2
EndSplineSet
EndChar

StartChar: ellipsis
Encoding: 8230 8230 173
Width: 2010
Flags: W
LayerCount: 2
Fore
SplineSet
340 -39 m 0
 442 -39 544 31 544 171 c 0
 544 311 442 381 340 381 c 0
 238 381 136 311 136 171 c 0
 136 31 238 -39 340 -39 c 0
1010 -39 m 0
 1112 -39 1214 31 1214 171 c 0
 1214 311 1112 381 1010 381 c 0
 908 381 806 311 806 171 c 0
 806 31 908 -39 1010 -39 c 0
1680 -39 m 0
 1782 -39 1884 31 1884 171 c 0
 1884 311 1782 381 1680 381 c 0
 1578 381 1476 311 1476 171 c 0
 1476 31 1578 -39 1680 -39 c 0
EndSplineSet
EndChar

StartChar: Agrave
Encoding: 192 192 174
Width: 1640
Flags: W
LayerCount: 2
Fore
SplineSet
716 2188 m 0
 671 2214 629 2225 591 2225 c 0
 488 2225 417 2141 417 2047 c 0
 417 1982 452 1912 533 1865 c 0
 637 1805 924 1733 1129 1671 c 0
 1140 1667 1151 1666 1161 1666 c 0
 1196 1666 1224 1686 1224 1715 c 0
 1224 1733 1214 1754 1190 1775 c 0
 1027 1924 817 2130 716 2188 c 0
903 615 m 2
 904 606 905 599 905 594 c 0
 905 578 898 576 870 576 c 2
 772 576 l 2
 744 576 736 578 736 595 c 0
 736 600 737 607 738 615 c 2
 786 1085 l 1
 808 1265 l 2
 809 1271 814 1273 819 1273 c 0
 824 1273 829 1271 829 1265 c 2
 853 1085 l 1
 903 615 l 2
670 75 m 2
 705 327 l 2
 711 365 705 366 744 366 c 2
 898 366 l 2
 937 366 931 365 937 327 c 2
 971 75 l 2
 978 27 1009 0 1058 0 c 2
 1493 0 l 2
 1533 0 1557 23 1557 58 c 0
 1557 63 1533 496 1326 1520 c 0
 1316 1569 1285 1595 1236 1595 c 2
 401 1595 l 2
 352 1595 321 1570 311 1520 c 0
 107 487 85 64 85 58 c 0
 85 23 109 0 149 0 c 2
 583 0 l 2
 632 0 663 27 670 75 c 2
EndSplineSet
EndChar

StartChar: Atilde
Encoding: 195 195 175
Width: 1640
Flags: W
LayerCount: 2
Fore
SplineSet
1385 391 m 1
 1386 391 l 2
 1433 391 1462 420 1461 467 c 0
 1453 768 1389 941 1056 941 c 0
 887 941 794 868 698 798 c 0
 668 776 634 748 590 748 c 0
 530 748 499 788 486 841 c 0
 472 897 447 916 389 916 c 2
 255 916 l 2
 209 916 180 886 182 840 c 0
 186 774 194 717 207 671 c 1
 252 471 351 365 587 365 c 0
 762 365 860 431 954 506 c 0
 982 528 1013 555 1057 555 c 0
 1139 555 1167 473 1167 391 c 1
 1385 391 l 1
903 615 m 2
 904 606 905 599 905 594 c 0
 905 578 898 576 870 576 c 2
 772 576 l 2
 744 576 736 578 736 595 c 0
 736 600 737 607 738 615 c 2
 786 1085 l 1
 808 1265 l 2
 809 1271 814 1273 819 1273 c 0
 824 1273 829 1271 829 1265 c 2
 853 1085 l 1
 903 615 l 2
670 75 m 2
 705 327 l 2
 711 365 705 366 744 366 c 2
 898 366 l 2
 937 366 931 365 937 327 c 2
 971 75 l 2
 978 27 1009 0 1058 0 c 2
 1493 0 l 2
 1533 0 1557 23 1557 58 c 0
 1557 63 1533 496 1326 1520 c 0
 1316 1569 1285 1595 1236 1595 c 2
 401 1595 l 2
 352 1595 321 1570 311 1520 c 0
 107 487 85 64 85 58 c 0
 85 23 109 0 149 0 c 2
 583 0 l 2
 632 0 663 27 670 75 c 2
EndSplineSet
EndChar

StartChar: Otilde
Encoding: 213 213 176
Width: 1710
Flags: W
LayerCount: 2
Fore
SplineSet
1420 391 m 1
 1421 391 l 2
 1468 391 1497 420 1496 467 c 0
 1488 768 1424 941 1091 941 c 0
 922 941 829 868 733 798 c 0
 703 776 669 748 625 748 c 0
 565 748 534 788 521 841 c 0
 507 897 482 916 424 916 c 2
 290 916 l 2
 244 916 215 886 217 840 c 0
 221 774 229 717 242 671 c 1
 287 471 386 365 622 365 c 0
 797 365 895 431 989 506 c 0
 1017 528 1048 555 1092 555 c 0
 1174 555 1202 473 1202 391 c 1
 1420 391 l 1
853 1631 m 0
 252 1631 115 1568 115 805 c 0
 115 19 233 -39 853 -39 c 0
 1455 -39 1597 21 1597 808 c 0
 1597 1573 1425 1631 853 1631 c 0
840 315 m 2
 738 315 737 314 737 796 c 0
 737 1280 738 1282 840 1282 c 2
 876 1282 l 2
 989 1282 992 1283 992 799 c 0
 992 315 989 315 876 315 c 2
 840 315 l 2
EndSplineSet
EndChar

StartChar: OE
Encoding: 338 338 177
Width: 1832
Flags: W
LayerCount: 2
Fore
SplineSet
1692 0 m 1
 1692 8 l 1
 1739 8 1767 36 1767 83 c 2
 1767 175 l 2
 1767 222 1739 250 1692 250 c 2
 1483 250 l 2
 1446 250 1424 272 1424 309 c 2
 1424 657 l 2
 1424 694 1446 716 1483 716 c 2
 1668 716 l 2
 1715 716 1743 744 1743 791 c 2
 1743 889 l 2
 1743 936 1715 964 1668 964 c 2
 1483 964 l 2
 1446 964 1424 986 1424 1023 c 2
 1424 1297 l 2
 1424 1334 1446 1356 1483 1356 c 2
 1692 1356 l 2
 1739 1356 1767 1384 1767 1431 c 2
 1767 1520 l 2
 1767 1567 1739 1595 1692 1595 c 2
 722 1595 l 2
 543 1595 396 1580 279 1534 c 0
 149 1483 92 1401 92 1227 c 2
 92 371 l 2
 92 344 93 316 95 287 c 0
 104 164 177 101 279 60 c 2
 722 -118 l 1
 722 0 l 1
 1692 0 l 1
678 1315 m 2
 678 1350 699 1371 734 1371 c 2
 736 1371 l 2
 771 1371 792 1350 792 1315 c 2
 792 296 l 2
 792 261 771 240 736 240 c 2
 734 240 l 2
 699 240 678 261 678 296 c 2
 678 1315 l 2
722 -110 m 1
 748 -120 722 -138 722 -110 c 1
 722 -110 l 1
EndSplineSet
EndChar

StartChar: oe
Encoding: 339 339 178
Width: 2136
Flags: W
LayerCount: 2
Fore
SplineSet
1166 16 m 1
 1162 18 l 1
 1234 -15 1328 -26 1444 -26 c 0
 1624 -26 1771 -9 1885 41 c 0
 2015 98 2065 190 2065 370 c 2
 2065 480 l 2
 2065 527 2037 555 1990 555 c 2
 1575 555 l 2
 1528 555 1500 527 1500 480 c 2
 1500 310 l 2
 1500 273 1478 251 1441 251 c 2
 1409 251 l 2
 1372 251 1350 273 1350 310 c 2
 1350 562 l 2
 1350 599 1372 621 1409 621 c 2
 1988 621 l 2
 2036 621 2065 649 2066 697 c 2
 2069 932 l 2
 2069 959 2068 987 2067 1017 c 0
 2061 1146 1989 1218 1888 1263 c 0
 1774 1314 1629 1331 1447 1331 c 0
 1315 1331 1189 1313 1115 1255 c 0
 1079 1227 1073 1227 1036 1254 c 0
 1020 1266 1001 1276 980 1285 c 0
 910 1316 821 1330 710 1330 c 0
 530 1330 382 1313 268 1262 c 0
 138 1203 85 1112 85 930 c 2
 85 367 l 2
 85 340 86 312 88 282 c 0
 95 154 167 82 269 37 c 0
 384 -13 530 -30 711 -30 c 0
 874 -30 1011 2 1074 94 c 1
 1074 94 l 1
 1075 96 l 1
 1075 96 l 1
 1091 60 1122 36 1166 16 c 1
645 993 m 2
 645 1030 667 1052 704 1052 c 2
 735 1052 l 2
 772 1052 794 1030 794 993 c 2
 794 309 l 2
 794 272 772 250 735 250 c 2
 704 250 l 2
 667 250 645 272 645 309 c 2
 645 993 l 2
1346 993 m 2
 1346 1030 1368 1052 1405 1052 c 2
 1437 1052 l 2
 1474 1052 1496 1030 1496 993 c 2
 1496 886 l 2
 1496 849 1474 827 1437 827 c 2
 1405 827 l 2
 1368 827 1346 849 1346 886 c 2
 1346 993 l 2
EndSplineSet
EndChar

StartChar: endash
Encoding: 8211 8211 179
Width: 1005
Flags: W
LayerCount: 2
Fore
SplineSet
163 897 m 2
 116 897 88 869 88 822 c 2
 88 538 l 2
 88 491 116 463 163 463 c 2
 844 463 l 2
 891 463 919 491 919 538 c 2
 919 822 l 2
 919 869 891 897 844 897 c 2
 163 897 l 2
EndSplineSet
EndChar

StartChar: emdash
Encoding: 8212 8212 180
Width: 1857
Flags: W
LayerCount: 2
Fore
SplineSet
163 897 m 2
 116 897 88 869 88 822 c 2
 88 538 l 2
 88 491 116 463 163 463 c 2
 1696 463 l 2
 1743 463 1771 491 1771 538 c 2
 1771 822 l 2
 1771 869 1743 897 1696 897 c 2
 163 897 l 2
EndSplineSet
EndChar

StartChar: quotedblleft
Encoding: 8220 8220 181
Width: 1339
Flags: W
LayerCount: 2
Fore
SplineSet
1050 1381 m 1
 1049 1380 l 1
 1013 1395 1004 1451 1033 1477 c 0
 1050 1492 1071 1503 1095 1510 c 0
 1135 1521 1148 1538 1148 1578 c 2
 1148 1606 l 2
 1148 1619 1140 1628 1127 1629 c 0
 1119 1630 1111 1630 1104 1630 c 0
 883 1630 757 1411 757 1227 c 0
 757 1098 823 987 967 987 c 0
 1069 987 1171 1054 1171 1187 c 0
 1171 1288 1118 1353 1050 1381 c 1
546 1380 m 1
 545 1379 l 1
 509 1394 500 1450 529 1476 c 0
 546 1491 567 1502 591 1509 c 0
 631 1520 644 1537 644 1577 c 2
 644 1605 l 2
 644 1618 636 1627 623 1628 c 0
 615 1629 607 1629 600 1629 c 0
 379 1629 253 1410 253 1226 c 0
 253 1097 319 986 463 986 c 0
 565 986 667 1053 667 1186 c 0
 667 1287 614 1352 546 1380 c 1
EndSplineSet
EndChar

StartChar: quotedblright
Encoding: 8221 8221 182
Width: 1327
Flags: W
LayerCount: 2
Fore
SplineSet
375 1236 m 1
 376 1237 l 1
 412 1222 421 1166 392 1140 c 0
 375 1125 354 1114 330 1107 c 0
 290 1096 277 1079 277 1039 c 2
 277 1011 l 2
 277 998 285 989 298 988 c 0
 306 987 314 987 321 987 c 0
 542 987 668 1206 668 1390 c 0
 668 1519 602 1630 458 1630 c 0
 356 1630 254 1563 254 1430 c 0
 254 1329 307 1264 375 1236 c 1
879 1237 m 1
 880 1238 l 1
 916 1223 925 1167 896 1141 c 0
 879 1126 858 1115 834 1108 c 0
 794 1097 781 1080 781 1040 c 2
 781 1012 l 2
 781 999 789 990 802 989 c 0
 810 988 818 988 825 988 c 0
 1046 988 1172 1207 1172 1391 c 0
 1172 1520 1106 1631 962 1631 c 0
 860 1631 758 1564 758 1431 c 0
 758 1330 811 1265 879 1237 c 1
EndSplineSet
EndChar

StartChar: quoteleft
Encoding: 8216 8216 183
Width: 722
Flags: W
LayerCount: 2
Fore
SplineSet
448 1381 m 1
 447 1380 l 1
 411 1395 402 1451 431 1477 c 0
 448 1492 469 1503 493 1510 c 0
 533 1521 546 1538 546 1578 c 2
 546 1606 l 2
 546 1619 538 1628 525 1629 c 0
 517 1630 509 1630 502 1630 c 0
 281 1630 155 1411 155 1227 c 0
 155 1098 224 987 375 987 c 0
 472 987 569 1054 569 1187 c 0
 569 1288 516 1353 448 1381 c 1
EndSplineSet
EndChar

StartChar: quoteright
Encoding: 8217 8217 184
Width: 706
Flags: W
LayerCount: 2
Fore
SplineSet
275 1236 m 1
 276 1237 l 1
 312 1222 321 1166 292 1140 c 0
 275 1125 254 1114 230 1107 c 0
 190 1096 177 1079 177 1039 c 2
 177 1011 l 2
 177 998 185 989 198 988 c 0
 206 987 214 987 221 987 c 0
 442 987 568 1206 568 1390 c 0
 568 1519 502 1630 358 1630 c 0
 256 1630 154 1563 154 1430 c 0
 154 1329 207 1264 275 1236 c 1
EndSplineSet
EndChar

StartChar: divide
Encoding: 247 247 185
Width: 1286
Flags: W
LayerCount: 2
Fore
SplineSet
901 483 m 2
 901 530 873 558 826 558 c 2
 471 558 l 2
 424 558 396 530 396 483 c 2
 396 168 l 2
 396 121 424 93 471 93 c 2
 826 93 l 2
 873 93 901 121 901 168 c 2
 901 483 l 2
901 1421 m 2
 901 1468 873 1496 826 1496 c 2
 471 1496 l 2
 424 1496 396 1468 396 1421 c 2
 396 1076 l 2
 396 1029 424 1001 471 1001 c 2
 826 1001 l 2
 873 1001 901 1029 901 1076 c 2
 901 1421 l 2
143 908 m 2
 96 908 68 880 68 833 c 2
 68 747 l 2
 68 700 96 672 143 672 c 2
 1153 672 l 2
 1200 672 1228 700 1228 747 c 2
 1228 833 l 2
 1228 880 1200 908 1153 908 c 2
 143 908 l 2
EndSplineSet
EndChar

StartChar: ydieresis
Encoding: 255 255 186
Width: 1342
Flags: W
LayerCount: 2
Fore
SplineSet
562 1225 m 1
 556 1273 526 1300 477 1300 c 2
 96 1300 l 2
 50 1300 26 1270 34 1225 c 2
 221 267 l 1
 249 116 291 109 389 99 c 1
 705 74 l 1
 705 30 l 2
 705 -4 682 -33 648 -41 c 1
 608 -49 565 -53 522 -53 c 0
 451 -53 368 -43 299 -30 c 1
 252 -20 231 -42 224 -90 c 2
 203 -243 l 2
 196 -290 210 -324 256 -332 c 0
 371 -354 521 -371 618 -371 c 0
 872 -371 1060 -299 1113 14 c 2
 1320 1225 l 2
 1328 1270 1303 1300 1257 1300 c 2
 857 1300 l 2
 809 1300 778 1273 774 1224 c 1
 728 878 l 1
 690 451 l 2
 688 430 679 430 678 451 c 1
 619 878 l 1
 562 1225 l 1
186 1826 m 2
 139 1826 111 1798 111 1751 c 2
 111 1567 l 2
 111 1520 139 1492 186 1492 c 2
 484 1492 l 2
 531 1492 559 1520 559 1567 c 2
 559 1751 l 2
 559 1798 531 1826 484 1826 c 2
 186 1826 l 2
869 1826 m 2
 822 1826 794 1798 794 1751 c 2
 794 1567 l 2
 794 1520 822 1492 869 1492 c 2
 1168 1492 l 2
 1215 1492 1243 1520 1243 1567 c 2
 1243 1751 l 2
 1243 1798 1215 1826 1168 1826 c 2
 869 1826 l 2
EndSplineSet
EndChar

StartChar: Ydieresis
Encoding: 376 376 187
Width: 1509
Flags: W
LayerCount: 2
Fore
SplineSet
264 713 m 2
 217 713 189 685 189 638 c 2
 189 454 l 2
 189 407 217 379 264 379 c 2
 562 379 l 2
 609 379 637 407 637 454 c 2
 637 638 l 2
 637 685 609 713 562 713 c 2
 264 713 l 2
947 713 m 2
 900 713 872 685 872 638 c 2
 872 454 l 2
 872 407 900 379 947 379 c 2
 1246 379 l 2
 1293 379 1321 407 1321 454 c 2
 1321 638 l 2
 1321 685 1293 713 1246 713 c 2
 947 713 l 2
982 0 m 2
 1030 0 1055 29 1058 76 c 0
 1067 194 1073 355 1076 528 c 1
 1473 1524 l 2
 1489 1564 1467 1595 1424 1595 c 2
 1020 1595 l 2
 970 1595 937 1570 924 1522 c 2
 769 988 l 1
 768 980 763 975 755 975 c 2
 753 975 l 2
 744 975 739 980 738 988 c 1
 588 1522 l 2
 575 1570 542 1595 492 1595 c 2
 84 1595 l 2
 41 1595 20 1564 36 1524 c 2
 436 532 l 1
 439 338 445 169 454 76 c 0
 458 30 482 0 530 0 c 2
 982 0 l 2
EndSplineSet
EndChar

StartChar: currency
Encoding: 164 164 188
Width: 1390
Flags: W
LayerCount: 2
Fore
SplineSet
979 329 m 1
 978 325 l 1
 1019 335 1049 326 1078 295 c 2
 1142 226 l 2
 1166 200 1196 200 1221 226 c 2
 1222 227 l 2
 1247 253 1247 284 1222 310 c 2
 1187 347 l 2
 1160 376 1161 403 1191 429 c 0
 1283 510 1323 627 1323 799 c 0
 1323 982 1299 1102 1214 1188 c 0
 1185 1217 1185 1244 1213 1274 c 2
 1221 1283 l 2
 1246 1310 1246 1341 1221 1367 c 2
 1220 1368 l 2
 1195 1393 1165 1393 1141 1367 c 2
 1106 1329 l 2
 1077 1297 1048 1289 1007 1301 c 0
 918 1327 817 1338 695 1338 c 0
 571 1338 469 1327 380 1301 c 0
 339 1289 310 1297 281 1329 c 2
 245 1368 l 2
 221 1394 191 1394 167 1369 c 2
 166 1368 l 2
 141 1342 141 1312 165 1285 c 2
 175 1274 l 2
 203 1243 203 1216 174 1186 c 0
 92 1099 68 973 68 801 c 0
 68 627 105 514 197 434 c 0
 227 408 228 381 201 352 c 2
 165 313 l 2
 141 286 141 256 166 230 c 2
 167 229 l 2
 191 204 221 204 245 230 c 2
 311 301 l 2
 340 333 369 342 411 331 c 0
 493 309 587 299 698 298 c 0
 807 298 897 308 979 329 c 1
636 1011 m 2
 636 1045 657 1066 691 1066 c 2
 693 1066 l 2
 727 1066 748 1045 748 1011 c 2
 748 621 l 2
 748 587 727 566 693 566 c 2
 691 566 l 2
 657 566 636 587 636 621 c 2
 636 1011 l 2
EndSplineSet
EndChar

StartChar: guilsinglleft
Encoding: 8249 8249 189
Width: 1036
Flags: W
LayerCount: 2
Fore
SplineSet
824 190 m 1
 824 189 l 1
 870 189 904 229 904 276 c 0
 904 299 899 322 882 344 c 2
 584 729 l 2
 560 760 560 793 584 824 c 2
 882 1209 l 2
 900 1233 906 1256 906 1278 c 0
 906 1326 872 1364 826 1364 c 0
 808 1364 784 1358 760 1341 c 2
 234 961 l 2
 176 919 145 846 144 775 c 0
 144 706 174 636 234 593 c 2
 760 213 l 2
 783 196 805 190 824 190 c 1
EndSplineSet
EndChar

StartChar: guilsinglright
Encoding: 8250 8250 190
Width: 1034
Flags: W
LayerCount: 2
Fore
SplineSet
906 775 m 2
 906 776 l 1
 905 847 874 920 816 962 c 2
 290 1342 l 2
 266 1359 242 1365 224 1365 c 0
 178 1365 144 1327 144 1279 c 0
 144 1257 150 1234 168 1210 c 2
 466 825 l 2
 490 794 490 761 466 730 c 2
 168 345 l 2
 151 323 146 300 146 277 c 0
 146 230 180 190 226 190 c 0
 245 190 267 196 290 213 c 2
 816 593 l 2
 876 636 906 706 906 775 c 2
EndSplineSet
EndChar

StartChar: daggerdbl
Encoding: 8225 8225 191
Width: 1061
Flags: W
LayerCount: 2
Fore
SplineSet
153 673 m 1
 153 677 l 1
 73 677 34 607 34 536 c 0
 34 465 74 393 152 393 c 0
 221 393 308 423 404 460 c 0
 429 470 445 453 433 429 c 0
 382 325 338 219 338 135 c 0
 338 21 430 -35 523 -35 c 0
 617 -35 713 23 713 134 c 0
 713 220 664 329 611 435 c 0
 599 459 615 476 640 466 c 0
 732 430 831 392 908 392 c 0
 986 392 1025 463 1025 533 c 0
 1025 605 986 676 907 676 c 0
 833 676 737 640 648 605 c 0
 617 593 593 610 593 644 c 2
 593 951 l 2
 593 985 617 1002 648 990 c 0
 737 955 833 919 907 919 c 0
 986 919 1025 990 1025 1062 c 0
 1025 1132 986 1203 908 1203 c 0
 831 1203 732 1164 640 1128 c 0
 615 1118 599 1135 611 1159 c 0
 664 1265 713 1374 713 1461 c 0
 713 1572 617 1630 523 1630 c 0
 430 1630 338 1574 338 1460 c 0
 338 1376 382 1270 433 1166 c 0
 445 1142 429 1125 404 1135 c 0
 308 1172 221 1202 152 1202 c 0
 74 1202 34 1130 34 1059 c 0
 34 988 73 918 153 918 c 0
 220 918 305 947 399 983 c 0
 431 995 455 978 455 944 c 2
 455 647 l 2
 455 613 431 596 399 608 c 0
 305 644 220 673 153 673 c 1
EndSplineSet
EndChar

StartChar: periodcentered
Encoding: 183 183 192
Width: 670
Flags: W
LayerCount: 2
Fore
SplineSet
340 -39 m 0
 442 -39 544 31 544 171 c 0
 544 311 442 381 340 381 c 0
 238 381 136 311 136 171 c 0
 136 31 238 -39 340 -39 c 0
EndSplineSet
EndChar

StartChar: quotesinglbase
Encoding: 8218 8218 193
Width: 648
Flags: W
LayerCount: 2
Fore
SplineSet
308 -409 m 0
 330 -409 354 -389 363 -350 c 0
 408 -160 501 98 501 206 c 0
 501 322 403 383 306 383 c 0
 212 383 120 326 120 208 c 0
 120 103 208 -156 253 -350 c 1
 264 -390 286 -409 308 -409 c 0
EndSplineSet
EndChar

StartChar: quotedblbase
Encoding: 8222 8222 194
Width: 1229
Flags: W
LayerCount: 2
Fore
SplineSet
344 -409 m 0
 366 -409 390 -389 399 -350 c 0
 444 -160 537 98 537 206 c 0
 537 322 439 383 342 383 c 0
 248 383 156 326 156 208 c 0
 156 103 244 -156 289 -350 c 1
 300 -390 322 -409 344 -409 c 0
841 -409 m 0
 863 -409 887 -389 896 -350 c 0
 941 -160 1034 98 1034 206 c 0
 1034 322 936 383 839 383 c 0
 745 383 653 326 653 208 c 0
 653 103 741 -156 786 -350 c 1
 797 -390 819 -409 841 -409 c 0
EndSplineSet
EndChar

StartChar: Acircumflex
Encoding: 194 194 195
Width: 1640
Flags: W
LayerCount: 2
Fore
SplineSet
397 1770 m 1
 396 1770 l 1
 396 1733 426 1708 462 1708 c 0
 479 1708 498 1714 516 1728 c 2
 772 1926 l 2
 803 1950 836 1950 867 1926 c 2
 1123 1728 l 2
 1142 1713 1162 1706 1180 1706 c 0
 1215 1706 1243 1732 1243 1769 c 0
 1243 1785 1237 1803 1225 1822 c 2
 962 2231 l 2
 929 2282 874 2303 821 2303 c 0
 766 2303 709 2279 678 2231 c 2
 415 1822 l 2
 403 1803 397 1785 397 1770 c 1
901 615 m 2
 902 606 903 599 903 594 c 0
 903 578 896 576 868 576 c 2
 770 576 l 2
 742 576 734 578 734 595 c 0
 734 600 735 607 736 615 c 2
 784 1085 l 1
 806 1265 l 2
 807 1271 812 1273 817 1273 c 0
 822 1273 827 1271 827 1265 c 2
 851 1085 l 1
 901 615 l 2
668 75 m 2
 703 327 l 2
 709 365 703 366 742 366 c 2
 896 366 l 2
 935 366 929 365 935 327 c 2
 969 75 l 2
 976 27 1007 0 1056 0 c 2
 1491 0 l 2
 1531 0 1555 23 1555 58 c 0
 1555 63 1531 496 1324 1520 c 0
 1314 1569 1283 1595 1234 1595 c 2
 399 1595 l 2
 350 1595 319 1570 309 1520 c 0
 105 487 83 64 83 58 c 0
 83 23 107 0 147 0 c 2
 581 0 l 2
 630 0 661 27 668 75 c 2
EndSplineSet
EndChar

StartChar: Ecircumflex
Encoding: 202 202 196
Width: 1191
Flags: W
LayerCount: 2
Fore
SplineSet
173 1770 m 1
 172 1770 l 1
 172 1733 202 1708 238 1708 c 0
 255 1708 274 1714 292 1728 c 2
 548 1926 l 2
 579 1950 612 1950 643 1926 c 2
 899 1728 l 2
 918 1713 938 1706 956 1706 c 0
 991 1706 1019 1732 1019 1769 c 0
 1019 1785 1013 1803 1001 1822 c 2
 738 2231 l 2
 705 2282 650 2303 597 2303 c 0
 542 2303 485 2279 454 2231 c 2
 191 1822 l 2
 179 1803 173 1785 173 1770 c 1
234 1595 m 2
 186 1595 161 1565 158 1519 c 0
 147 1366 139 1112 139 836 c 0
 139 581 146 307 158 76 c 0
 161 28 186 0 234 0 c 2
 1036 0 l 2
 1084 0 1112 28 1112 76 c 2
 1112 175 l 2
 1112 223 1084 251 1036 251 c 2
 831 251 l 2
 793 251 771 273 771 311 c 2
 771 651 l 2
 771 689 793 711 831 711 c 2
 1013 711 l 2
 1061 711 1089 739 1089 787 c 2
 1089 885 l 2
 1089 933 1061 961 1013 961 c 2
 831 961 l 2
 793 961 771 983 771 1021 c 2
 771 1286 l 2
 771 1324 793 1346 831 1346 c 2
 1036 1346 l 2
 1084 1346 1112 1374 1112 1422 c 2
 1112 1519 l 2
 1112 1567 1084 1595 1036 1595 c 2
 234 1595 l 2
EndSplineSet
EndChar

StartChar: Aacute
Encoding: 193 193 197
Width: 1640
Flags: W
LayerCount: 2
Fore
SplineSet
417 1715 m 0
 417 1686 445 1666 480 1666 c 0
 490 1666 501 1667 512 1671 c 0
 717 1733 1004 1805 1108 1865 c 0
 1189 1912 1224 1982 1224 2047 c 0
 1224 2141 1153 2225 1050 2225 c 0
 1012 2225 970 2214 925 2188 c 0
 824 2130 614 1924 451 1775 c 0
 427 1754 417 1733 417 1715 c 0
903 615 m 2
 904 606 905 599 905 594 c 0
 905 578 898 576 870 576 c 2
 772 576 l 2
 744 576 736 578 736 595 c 0
 736 600 737 607 738 615 c 2
 786 1085 l 1
 808 1265 l 2
 809 1271 814 1273 819 1273 c 0
 824 1273 829 1271 829 1265 c 2
 853 1085 l 1
 903 615 l 2
670 75 m 2
 705 327 l 2
 711 365 705 366 744 366 c 2
 898 366 l 2
 937 366 931 365 937 327 c 2
 971 75 l 2
 978 27 1009 0 1058 0 c 2
 1493 0 l 2
 1533 0 1557 23 1557 58 c 0
 1557 63 1533 496 1326 1520 c 0
 1316 1569 1285 1595 1236 1595 c 2
 401 1595 l 2
 352 1595 321 1570 311 1520 c 0
 107 487 85 64 85 58 c 0
 85 23 109 0 149 0 c 2
 583 0 l 2
 632 0 663 27 670 75 c 2
EndSplineSet
EndChar

StartChar: Edieresis
Encoding: 203 203 198
Width: 1191
Flags: W
LayerCount: 2
Fore
SplineSet
105 713 m 2
 58 713 30 685 30 638 c 2
 30 454 l 2
 30 407 58 379 105 379 c 2
 403 379 l 2
 450 379 478 407 478 454 c 2
 478 638 l 2
 478 685 450 713 403 713 c 2
 105 713 l 2
788 713 m 2
 741 713 713 685 713 638 c 2
 713 454 l 2
 713 407 741 379 788 379 c 2
 1087 379 l 2
 1134 379 1162 407 1162 454 c 2
 1162 638 l 2
 1162 685 1134 713 1087 713 c 2
 788 713 l 2
235 1595 m 2
 187 1595 162 1565 159 1519 c 0
 148 1366 140 1112 140 836 c 0
 140 581 147 307 159 76 c 0
 162 28 187 0 235 0 c 2
 1037 0 l 2
 1085 0 1113 28 1113 76 c 2
 1113 175 l 2
 1113 223 1085 251 1037 251 c 2
 832 251 l 2
 794 251 772 273 772 311 c 2
 772 651 l 2
 772 689 794 711 832 711 c 2
 1014 711 l 2
 1062 711 1090 739 1090 787 c 2
 1090 885 l 2
 1090 933 1062 961 1014 961 c 2
 832 961 l 2
 794 961 772 983 772 1021 c 2
 772 1286 l 2
 772 1324 794 1346 832 1346 c 2
 1037 1346 l 2
 1085 1346 1113 1374 1113 1422 c 2
 1113 1519 l 2
 1113 1567 1085 1595 1037 1595 c 2
 235 1595 l 2
EndSplineSet
EndChar

StartChar: Egrave
Encoding: 200 200 199
Width: 1191
Flags: W
LayerCount: 2
Fore
SplineSet
492 2188 m 0
 447 2214 405 2225 367 2225 c 0
 264 2225 193 2141 193 2047 c 0
 193 1982 228 1912 309 1865 c 0
 413 1805 700 1733 905 1671 c 0
 916 1667 927 1666 937 1666 c 0
 972 1666 1000 1686 1000 1715 c 0
 1000 1733 990 1754 966 1775 c 0
 803 1924 593 2130 492 2188 c 0
235 1595 m 2
 187 1595 162 1565 159 1519 c 0
 148 1366 140 1112 140 836 c 0
 140 581 147 307 159 76 c 0
 162 28 187 0 235 0 c 2
 1037 0 l 2
 1085 0 1113 28 1113 76 c 2
 1113 175 l 2
 1113 223 1085 251 1037 251 c 2
 832 251 l 2
 794 251 772 273 772 311 c 2
 772 651 l 2
 772 689 794 711 832 711 c 2
 1014 711 l 2
 1062 711 1090 739 1090 787 c 2
 1090 885 l 2
 1090 933 1062 961 1014 961 c 2
 832 961 l 2
 794 961 772 983 772 1021 c 2
 772 1286 l 2
 772 1324 794 1346 832 1346 c 2
 1037 1346 l 2
 1085 1346 1113 1374 1113 1422 c 2
 1113 1519 l 2
 1113 1567 1085 1595 1037 1595 c 2
 235 1595 l 2
EndSplineSet
EndChar

StartChar: Iacute
Encoding: 205 205 200
Width: 926
Flags: W
LayerCount: 2
Fore
SplineSet
60 1715 m 0
 60 1686 88 1666 123 1666 c 0
 133 1666 144 1667 155 1671 c 0
 360 1733 647 1805 751 1865 c 0
 832 1912 867 1982 867 2047 c 0
 867 2141 796 2225 693 2225 c 0
 655 2225 613 2214 568 2188 c 0
 467 2130 257 1924 94 1775 c 0
 70 1754 60 1733 60 1715 c 0
238 1595 m 2
 190 1595 169 1565 162 1519 c 0
 148 1430 141 1137 141 842 c 0
 141 531 149 216 162 76 c 0
 166 30 190 0 238 0 c 2
 690 0 l 2
 738 0 763 29 766 76 c 0
 780 265 787 562 787 842 c 0
 787 1122 780 1386 766 1519 c 0
 761 1565 738 1595 690 1595 c 2
 238 1595 l 2
EndSplineSet
EndChar

StartChar: Icircumflex
Encoding: 206 206 201
Width: 926
Flags: W
LayerCount: 2
Fore
SplineSet
40 1770 m 1
 39 1770 l 1
 39 1733 69 1708 105 1708 c 0
 122 1708 141 1714 159 1728 c 2
 415 1926 l 2
 446 1950 479 1950 510 1926 c 2
 766 1728 l 2
 785 1713 805 1706 823 1706 c 0
 858 1706 886 1732 886 1769 c 0
 886 1785 880 1803 868 1822 c 2
 605 2231 l 2
 572 2282 517 2303 464 2303 c 0
 409 2303 352 2279 321 2231 c 2
 58 1822 l 2
 46 1803 40 1785 40 1770 c 1
236 1595 m 2
 188 1595 167 1565 160 1519 c 0
 146 1430 139 1137 139 842 c 0
 139 531 147 216 160 76 c 0
 164 30 188 0 236 0 c 2
 688 0 l 2
 736 0 761 29 764 76 c 0
 778 265 785 562 785 842 c 0
 785 1122 778 1386 764 1519 c 0
 759 1565 736 1595 688 1595 c 2
 236 1595 l 2
EndSplineSet
EndChar

StartChar: Idieresis
Encoding: 207 207 202
Width: 926
Flags: W
LayerCount: 2
Fore
SplineSet
-28 713 m 2
 -75 713 -103 685 -103 638 c 2
 -103 454 l 2
 -103 407 -75 379 -28 379 c 2
 270 379 l 2
 317 379 345 407 345 454 c 2
 345 638 l 2
 345 685 317 713 270 713 c 2
 -28 713 l 2
655 713 m 2
 608 713 580 685 580 638 c 2
 580 454 l 2
 580 407 608 379 655 379 c 2
 954 379 l 2
 1001 379 1029 407 1029 454 c 2
 1029 638 l 2
 1029 685 1001 713 954 713 c 2
 655 713 l 2
237 1595 m 2
 189 1595 168 1565 161 1519 c 0
 147 1430 140 1137 140 842 c 0
 140 531 148 216 161 76 c 0
 165 30 189 0 237 0 c 2
 689 0 l 2
 737 0 762 29 765 76 c 0
 779 265 786 562 786 842 c 0
 786 1122 779 1386 765 1519 c 0
 760 1565 737 1595 689 1595 c 2
 237 1595 l 2
EndSplineSet
EndChar

StartChar: Igrave
Encoding: 204 204 203
Width: 926
Flags: W
LayerCount: 2
Fore
SplineSet
359 2188 m 0
 314 2214 272 2225 234 2225 c 0
 131 2225 60 2141 60 2047 c 0
 60 1982 95 1912 176 1865 c 0
 280 1805 567 1733 772 1671 c 0
 783 1667 794 1666 804 1666 c 0
 839 1666 867 1686 867 1715 c 0
 867 1733 857 1754 833 1775 c 0
 670 1924 460 2130 359 2188 c 0
237 1595 m 2
 189 1595 168 1565 161 1519 c 0
 147 1430 140 1137 140 842 c 0
 140 531 148 216 161 76 c 0
 165 30 189 0 237 0 c 2
 689 0 l 2
 737 0 762 29 765 76 c 0
 779 265 786 562 786 842 c 0
 786 1122 779 1386 765 1519 c 0
 760 1565 737 1595 689 1595 c 2
 237 1595 l 2
EndSplineSet
EndChar

StartChar: Oacute
Encoding: 211 211 204
Width: 1710
Flags: W
LayerCount: 2
Fore
SplineSet
452 1715 m 0
 452 1686 480 1666 515 1666 c 0
 525 1666 536 1667 547 1671 c 0
 752 1733 1039 1805 1143 1865 c 0
 1224 1912 1259 1982 1259 2047 c 0
 1259 2141 1188 2225 1085 2225 c 0
 1047 2225 1005 2214 960 2188 c 0
 859 2130 649 1924 486 1775 c 0
 462 1754 452 1733 452 1715 c 0
853 1631 m 0
 252 1631 115 1568 115 805 c 0
 115 19 233 -39 853 -39 c 0
 1455 -39 1597 21 1597 808 c 0
 1597 1573 1425 1631 853 1631 c 0
840 315 m 2
 738 315 737 314 737 796 c 0
 737 1280 738 1282 840 1282 c 2
 876 1282 l 2
 989 1282 992 1283 992 799 c 0
 992 315 989 315 876 315 c 2
 840 315 l 2
EndSplineSet
EndChar

StartChar: Ocircumflex
Encoding: 212 212 205
Width: 1710
Flags: W
LayerCount: 2
Fore
SplineSet
432 1770 m 1
 431 1770 l 1
 431 1733 461 1708 497 1708 c 0
 514 1708 533 1714 551 1728 c 2
 807 1926 l 2
 838 1950 871 1950 902 1926 c 2
 1158 1728 l 2
 1177 1713 1197 1706 1215 1706 c 0
 1250 1706 1278 1732 1278 1769 c 0
 1278 1785 1272 1803 1260 1822 c 2
 997 2231 l 2
 964 2282 909 2303 856 2303 c 0
 801 2303 744 2279 713 2231 c 2
 450 1822 l 2
 438 1803 432 1785 432 1770 c 1
851 1631 m 0
 250 1631 113 1568 113 805 c 0
 113 19 231 -39 851 -39 c 0
 1453 -39 1595 21 1595 808 c 0
 1595 1573 1423 1631 851 1631 c 0
838 315 m 2
 736 315 735 314 735 796 c 0
 735 1280 736 1282 838 1282 c 2
 874 1282 l 2
 987 1282 990 1283 990 799 c 0
 990 315 987 315 874 315 c 2
 838 315 l 2
EndSplineSet
EndChar

StartChar: Ograve
Encoding: 210 210 206
Width: 1710
Flags: W
LayerCount: 2
Fore
SplineSet
751 2188 m 0
 706 2214 664 2225 626 2225 c 0
 523 2225 452 2141 452 2047 c 0
 452 1982 487 1912 568 1865 c 0
 672 1805 959 1733 1164 1671 c 0
 1175 1667 1186 1666 1196 1666 c 0
 1231 1666 1259 1686 1259 1715 c 0
 1259 1733 1249 1754 1225 1775 c 0
 1062 1924 852 2130 751 2188 c 0
853 1631 m 0
 252 1631 115 1568 115 805 c 0
 115 19 233 -39 853 -39 c 0
 1455 -39 1597 21 1597 808 c 0
 1597 1573 1425 1631 853 1631 c 0
840 315 m 2
 738 315 737 314 737 796 c 0
 737 1280 738 1282 840 1282 c 2
 876 1282 l 2
 989 1282 992 1283 992 799 c 0
 992 315 989 315 876 315 c 2
 840 315 l 2
EndSplineSet
EndChar

StartChar: Uacute
Encoding: 218 218 207
Width: 1556
Flags: W
LayerCount: 2
Fore
SplineSet
375 1715 m 0
 375 1686 403 1666 438 1666 c 0
 448 1666 459 1667 470 1671 c 0
 675 1733 962 1805 1066 1865 c 0
 1147 1912 1182 1982 1182 2047 c 0
 1182 2141 1111 2225 1008 2225 c 0
 970 2225 928 2214 883 2188 c 0
 782 2130 572 1924 409 1775 c 0
 385 1754 375 1733 375 1715 c 0
702 1519 m 1
 697 1519 l 1
 697 1566 669 1594 622 1594 c 2
 170 1594 l 2
 123 1594 95 1566 95 1519 c 2
 95 371 l 2
 95 -7 507 -39 784 -39 c 0
 1086 -39 1477 -4 1477 370 c 2
 1477 1518 l 2
 1477 1565 1449 1593 1402 1593 c 2
 949 1593 l 2
 902 1593 874 1565 874 1518 c 2
 874 293 l 2
 874 256 852 234 815 234 c 2
 761 234 l 2
 724 234 702 256 702 293 c 2
 702 1519 l 1
EndSplineSet
EndChar

StartChar: Ucircumflex
Encoding: 219 219 208
Width: 1556
Flags: W
LayerCount: 2
Fore
SplineSet
355 1770 m 1
 354 1770 l 1
 354 1733 384 1708 420 1708 c 0
 437 1708 456 1714 474 1728 c 2
 730 1926 l 2
 761 1950 794 1950 825 1926 c 2
 1081 1728 l 2
 1100 1713 1120 1706 1138 1706 c 0
 1173 1706 1201 1732 1201 1769 c 0
 1201 1785 1195 1803 1183 1822 c 2
 920 2231 l 2
 887 2282 832 2303 779 2303 c 0
 724 2303 667 2279 636 2231 c 2
 373 1822 l 2
 361 1803 355 1785 355 1770 c 1
700 1519 m 1
 695 1519 l 1
 695 1566 667 1594 620 1594 c 2
 168 1594 l 2
 121 1594 93 1566 93 1519 c 2
 93 371 l 2
 93 -7 505 -39 782 -39 c 0
 1084 -39 1475 -4 1475 370 c 2
 1475 1518 l 2
 1475 1565 1447 1593 1400 1593 c 2
 947 1593 l 2
 900 1593 872 1565 872 1518 c 2
 872 293 l 2
 872 256 850 234 813 234 c 2
 759 234 l 2
 722 234 700 256 700 293 c 2
 700 1519 l 1
EndSplineSet
EndChar

StartChar: Ugrave
Encoding: 217 217 209
Width: 1556
Flags: W
LayerCount: 2
Fore
SplineSet
674 2188 m 0
 629 2214 587 2225 549 2225 c 0
 446 2225 375 2141 375 2047 c 0
 375 1982 410 1912 491 1865 c 0
 595 1805 882 1733 1087 1671 c 0
 1098 1667 1109 1666 1119 1666 c 0
 1154 1666 1182 1686 1182 1715 c 0
 1182 1733 1172 1754 1148 1775 c 0
 985 1924 775 2130 674 2188 c 0
702 1519 m 1
 697 1519 l 1
 697 1566 669 1594 622 1594 c 2
 170 1594 l 2
 123 1594 95 1566 95 1519 c 2
 95 371 l 2
 95 -7 507 -39 784 -39 c 0
 1086 -39 1477 -4 1477 370 c 2
 1477 1518 l 2
 1477 1565 1449 1593 1402 1593 c 2
 949 1593 l 2
 902 1593 874 1565 874 1518 c 2
 874 293 l 2
 874 256 852 234 815 234 c 2
 761 234 l 2
 724 234 702 256 702 293 c 2
 702 1519 l 1
EndSplineSet
EndChar

StartChar: dotlessi
Encoding: 305 305 210
Width: 744
Flags: W
LayerCount: 2
Fore
SplineSet
669 1222 m 2
 669 1269 641 1297 594 1297 c 2
 177 1297 l 2
 130 1297 102 1269 102 1222 c 2
 102 76 l 2
 102 29 130 1 177 1 c 2
 594 1 l 2
 641 1 669 29 669 76 c 2
 669 1222 l 2
EndSplineSet
EndChar

StartChar: circumflex
Encoding: 710 710 211
Width: 954
Flags: W
LayerCount: 2
Fore
SplineSet
54 1475 m 1
 53 1475 l 1
 53 1438 83 1413 119 1413 c 0
 136 1413 155 1419 173 1433 c 2
 429 1631 l 2
 460 1655 493 1655 524 1631 c 2
 780 1433 l 2
 799 1418 819 1411 837 1411 c 0
 872 1411 900 1437 900 1474 c 0
 900 1490 894 1508 882 1527 c 2
 619 1936 l 2
 586 1987 531 2008 478 2008 c 0
 423 2008 366 1984 335 1936 c 2
 72 1527 l 2
 60 1508 54 1490 54 1475 c 1
EndSplineSet
EndChar

StartChar: tilde
Encoding: 732 732 212
Width: 1422
Flags: W
LayerCount: 2
Fore
SplineSet
1284 96 m 1
 1285 96 l 2
 1332 96 1361 125 1360 172 c 0
 1352 473 1288 646 955 646 c 0
 786 646 693 573 597 503 c 0
 567 481 533 453 489 453 c 0
 429 453 398 493 385 546 c 0
 371 602 346 621 288 621 c 2
 154 621 l 2
 108 621 79 591 81 545 c 0
 85 479 93 422 106 376 c 1
 151 176 250 70 486 70 c 0
 661 70 759 136 853 211 c 0
 881 233 912 260 956 260 c 0
 1038 260 1066 178 1066 96 c 1
 1284 96 l 1
EndSplineSet
EndChar

StartChar: macron
Encoding: 175 175 213
Width: 999
Flags: W
LayerCount: 2
Fore
SplineSet
163 897 m 2
 116 897 88 869 88 822 c 2
 88 743 l 2
 88 696 116 668 163 668 c 2
 844 668 l 2
 891 668 919 696 919 743 c 2
 919 822 l 2
 919 869 891 897 844 897 c 2
 163 897 l 2
EndSplineSet
EndChar

StartChar: breve
Encoding: 728 728 214
Width: 1062
Flags: W
LayerCount: 2
Fore
SplineSet
997 1803 m 0
 1000 1848 971 1879 926 1879 c 2
 787 1879 l 2
 733 1879 707 1856 698 1803 c 0
 688 1740 653 1701 537 1701 c 0
 421 1701 386 1740 376 1803 c 0
 367 1856 341 1879 287 1879 c 2
 148 1879 l 2
 103 1879 74 1848 77 1803 c 0
 92 1561 190 1398 537 1398 c 0
 884 1398 982 1561 997 1803 c 0
EndSplineSet
EndChar

StartChar: dotaccent
Encoding: 729 729 215
Width: 670
Flags: W
LayerCount: 2
Fore
SplineSet
340 -39 m 0
 442 -39 544 31 544 171 c 0
 544 311 442 381 340 381 c 0
 238 381 136 311 136 171 c 0
 136 31 238 -39 340 -39 c 0
EndSplineSet
EndChar

StartChar: ring
Encoding: 730 730 216
Width: 805
Flags: W
LayerCount: 2
Fore
SplineSet
98 305 m 0
 146 197 252 110 405 110 c 0
 451 110 494 118 534 135 c 0
 643 180 738 280 738 430 c 0
 738 475 729 517 712 556 c 0
 664 664 558 752 405 752 c 0
 359 752 316 744 275 727 c 0
 165 682 72 581 72 430 c 0
 72 386 81 344 98 305 c 0
524 430 m 0
 524 363 470 309 403 309 c 0
 335 309 282 362 282 430 c 0
 282 500 333 552 403 552 c 0
 471 552 524 499 524 430 c 0
EndSplineSet
EndChar

StartChar: cedilla
Encoding: 184 184 217
Width: 948
Flags: W
LayerCount: 2
Fore
SplineSet
384 -104 m 1
 383 -107 l 1
 383 -154 411 -182 458 -182 c 2
 513 -182 l 2
 550 -182 572 -204 572 -241 c 2
 572 -342 l 2
 572 -361 561 -372 542 -372 c 2
 540 -372 l 2
 521 -372 510 -361 510 -342 c 2
 510 -305 l 2
 510 -265 485 -243 446 -248 c 2
 310 -265 l 2
 293 -267 283 -278 283 -295 c 2
 283 -324 l 2
 283 -458 388 -482 537 -482 c 0
 677 -482 790 -461 790 -324 c 2
 790 -229 l 2
 790 -113 714 -77 594 -72 c 0
 572 -71 560 -58 560 -36 c 2
 560 -35 l 2
 560 -14 547 -1 526 -1 c 2
 459 -1 l 2
 412 -1 384 -29 384 -76 c 2
 384 -104 l 1
EndSplineSet
EndChar

StartChar: hungarumlaut
Encoding: 733 733 218
Width: 873
Flags: W
LayerCount: 2
Fore
SplineSet
746 1420 m 0
 746 1391 774 1371 809 1371 c 0
 819 1371 830 1372 841 1376 c 0
 1046 1438 1333 1510 1437 1570 c 0
 1518 1617 1553 1687 1553 1752 c 0
 1553 1846 1482 1930 1379 1930 c 0
 1341 1930 1299 1919 1254 1893 c 0
 1153 1835 943 1629 780 1480 c 0
 756 1459 746 1438 746 1420 c 0
55 1420 m 0
 55 1391 83 1371 118 1371 c 0
 128 1371 139 1372 150 1376 c 0
 355 1438 642 1510 746 1570 c 0
 827 1617 862 1687 862 1752 c 0
 862 1846 791 1930 688 1930 c 0
 650 1930 608 1919 563 1893 c 0
 462 1835 252 1629 89 1480 c 0
 65 1459 55 1438 55 1420 c 0
EndSplineSet
EndChar

StartChar: ogonek
Encoding: 731 731 219
Width: 693
Flags: W
LayerCount: 2
Fore
SplineSet
125 -316 m 2
 125 -317 l 2
 125 -483 248 -631 455 -631 c 0
 495 -631 538 -625 584 -613 c 0
 628 -601 656 -565 656 -519 c 2
 656 -346 l 2
 656 -304 632 -285 591 -295 c 0
 565 -301 542 -304 522 -304 c 0
 435 -304 397 -253 397 -190 c 0
 397 -138 423 -78 469 -32 c 0
 493 -8 493 14 469 38 c 1
 469 38 l 1
 447 60 418 65 390 52 c 0
 206 -36 125 -182 125 -316 c 2
EndSplineSet
EndChar

StartChar: caron
Encoding: 711 711 220
Width: 954
Flags: W
LayerCount: 2
Fore
SplineSet
478 1411 m 2
 479 1411 l 2
 532 1411 587 1432 620 1483 c 2
 883 1892 l 2
 895 1911 901 1929 901 1945 c 0
 901 1982 873 2008 838 2008 c 0
 820 2008 800 2001 781 1986 c 2
 525 1788 l 2
 494 1764 461 1764 430 1788 c 2
 174 1986 l 2
 156 2000 137 2006 120 2006 c 0
 84 2006 54 1981 54 1944 c 0
 54 1929 60 1911 72 1892 c 2
 335 1483 l 2
 366 1435 423 1411 478 1411 c 2
EndSplineSet
EndChar

StartChar: uni00AD
Encoding: 173 173 223
Width: 1005
Flags: W
LayerCount: 2
Fore
SplineSet
163 897 m 2
 116 897 88 869 88 822 c 2
 88 638 l 2
 88 591 116 563 163 563 c 2
 844 563 l 2
 891 563 919 591 919 638 c 2
 919 822 l 2
 919 869 891 897 844 897 c 2
 163 897 l 2
EndSplineSet
EndChar

StartChar: uni00B2
Encoding: 178 178 224
Width: 1090
Flags: W
LayerCount: 2
Fore
SplineSet
477 836 m 1
 480 836 l 2
 527 836 555 864 555 911 c 2
 555 980 l 2
 555 1011 573 1029 604 1029 c 2
 606 1029 l 2
 637 1029 655 1011 655 980 c 2
 655 876 l 2
 655 822 581 792 519 767 c 0
 325 689 191 574 191 312 c 2
 191 209 l 2
 191 162 219 134 266 134 c 2
 911 134 l 2
 958 134 986 162 986 209 c 2
 986 255 l 2
 986 302 958 330 911 330 c 2
 602 330 l 2
 576 330 558 366 573 387 c 0
 601 425 655 451 704 473 c 0
 869 547 1027 633 1027 875 c 0
 1027 1141 873 1208 611 1208 c 0
 368 1208 189 1147 189 877 c 0
 189 870 189 863 189 856 c 0
 189 843 196 836 209 836 c 2
 477 836 l 1
EndSplineSet
EndChar

StartChar: uni00B3
Encoding: 179 179 225
Width: 1101
Flags: W
LayerCount: 2
Fore
SplineSet
606 1205 m 1
 606 1203 l 1
 326 1203 180 1120 180 857 c 0
 180 848 180 839 181 829 c 0
 182 813 193 803 209 803 c 2
 473 803 l 2
 520 803 548 831 548 878 c 2
 548 970 l 2
 548 1005 569 1026 604 1026 c 2
 606 1026 l 2
 641 1026 662 1005 662 970 c 2
 662 801 l 2
 662 764 640 742 603 742 c 2
 565 742 l 2
 519 742 492 715 492 669 c 2
 492 667 l 2
 492 621 519 594 565 594 c 2
 603 594 l 2
 640 594 662 572 662 535 c 2
 662 337 l 2
 662 302 641 281 606 281 c 2
 604 281 l 2
 569 281 548 302 548 337 c 2
 548 456 l 2
 548 503 520 531 473 531 c 2
 212 531 l 2
 194 531 182 520 181 502 c 0
 180 491 180 481 180 471 c 0
 180 221 311 100 607 100 c 0
 903 100 1038 193 1038 439 c 0
 1038 525 1009 597 950 641 c 0
 923 662 923 680 950 700 c 0
 1003 739 1036 798 1036 881 c 0
 1036 1128 876 1205 606 1205 c 1
EndSplineSet
EndChar

StartChar: uni00B9
Encoding: 185 185 226
Width: 731
Flags: W
LayerCount: 2
Fore
SplineSet
115 1042 m 1
 118 1042 l 1
 118 998 145 971 189 971 c 2
 202 971 l 2
 239 971 261 949 261 912 c 2
 261 206 l 2
 261 159 289 131 336 131 c 2
 579 131 l 2
 626 131 654 159 654 206 c 2
 654 1094 l 2
 654 1141 626 1169 579 1169 c 2
 469 1169 l 2
 388 1169 349 1163 273 1138 c 0
 246 1129 217 1123 186 1119 c 0
 136 1113 115 1089 115 1043 c 2
 115 1042 l 1
EndSplineSet
EndChar

StartChar: Amacron
Encoding: 256 256 227
Width: 1640
Flags: W
LayerCount: 2
Fore
SplineSet
479 1192 m 2
 432 1192 404 1164 404 1117 c 2
 404 1038 l 2
 404 991 432 963 479 963 c 2
 1160 963 l 2
 1207 963 1235 991 1235 1038 c 2
 1235 1117 l 2
 1235 1164 1207 1192 1160 1192 c 2
 479 1192 l 2
902 615 m 2
 903 606 904 599 904 594 c 0
 904 578 897 576 869 576 c 2
 771 576 l 2
 743 576 735 578 735 595 c 0
 735 600 736 607 737 615 c 2
 785 1085 l 1
 807 1265 l 2
 808 1271 813 1273 818 1273 c 0
 823 1273 828 1271 828 1265 c 2
 852 1085 l 1
 902 615 l 2
669 75 m 2
 704 327 l 2
 710 365 704 366 743 366 c 2
 897 366 l 2
 936 366 930 365 936 327 c 2
 970 75 l 2
 977 27 1008 0 1057 0 c 2
 1492 0 l 2
 1532 0 1556 23 1556 58 c 0
 1556 63 1532 496 1325 1520 c 0
 1315 1569 1284 1595 1235 1595 c 2
 400 1595 l 2
 351 1595 320 1570 310 1520 c 0
 106 487 84 64 84 58 c 0
 84 23 108 0 148 0 c 2
 582 0 l 2
 631 0 662 27 669 75 c 2
EndSplineSet
EndChar

StartChar: amacron
Encoding: 257 257 228
Width: 1464
Flags: W
LayerCount: 2
Fore
SplineSet
391 897 m 2
 344 897 316 869 316 822 c 2
 316 743 l 2
 316 696 344 668 391 668 c 2
 1072 668 l 2
 1119 668 1147 696 1147 743 c 2
 1147 822 l 2
 1147 869 1119 897 1072 897 c 2
 391 897 l 2
771 680 m 2
 809 680 811 678 811 640 c 2
 811 267 l 2
 811 229 808 227 770 227 c 2
 745 227 l 2
 669 227 659 254 645 287 c 0
 633 315 629 365 629 418 c 0
 629 506 640 603 645 620 c 0
 656 660 694 680 735 680 c 2
 771 680 l 2
809 114 m 0
 820 136 827 145 831 145 c 0
 838 145 840 124 848 104 c 2
 862 69 l 2
 881 24 915 1 963 1 c 2
 1332 1 l 2
 1374 1 1397 23 1397 61 c 0
 1397 65 1397 71 1396 76 c 0
 1387 131 1382 192 1381 257 c 1
 1381 952 l 2
 1381 1303 1047 1327 740 1327 c 0
 503 1327 136 1304 136 1005 c 0
 136 985 137 967 139 948 c 0
 143 917 164 897 195 897 c 2
 199 897 l 1
 624 918 l 2
 672 920 672 923 672 971 c 2
 672 1046 l 2
 672 1084 674 1106 712 1106 c 2
 771 1106 l 2
 809 1106 811 1084 811 1046 c 2
 811 824 l 2
 811 823 796 823 770 823 c 0
 277 823 73 777 73 388 c 0
 73 107 209 -27 494 -27 c 0
 660 -27 768 33 809 114 c 0
EndSplineSet
EndChar

StartChar: Abreve
Encoding: 258 258 229
Width: 1640
Flags: W
LayerCount: 2
Fore
SplineSet
1280 2098 m 0
 1283 2143 1254 2174 1209 2174 c 2
 1070 2174 l 2
 1016 2174 990 2151 981 2098 c 0
 971 2035 936 1996 820 1996 c 0
 704 1996 669 2035 659 2098 c 0
 650 2151 624 2174 570 2174 c 2
 431 2174 l 2
 386 2174 357 2143 360 2098 c 0
 375 1856 473 1693 820 1693 c 0
 1167 1693 1265 1856 1280 2098 c 0
902 615 m 2
 903 606 904 599 904 594 c 0
 904 578 897 576 869 576 c 2
 771 576 l 2
 743 576 735 578 735 595 c 0
 735 600 736 607 737 615 c 2
 785 1085 l 1
 807 1265 l 2
 808 1271 813 1273 818 1273 c 0
 823 1273 828 1271 828 1265 c 2
 852 1085 l 1
 902 615 l 2
669 75 m 2
 704 327 l 2
 710 365 704 366 743 366 c 2
 897 366 l 2
 936 366 930 365 936 327 c 2
 970 75 l 2
 977 27 1008 0 1057 0 c 2
 1492 0 l 2
 1532 0 1556 23 1556 58 c 0
 1556 63 1532 496 1325 1520 c 0
 1315 1569 1284 1595 1235 1595 c 2
 400 1595 l 2
 351 1595 320 1570 310 1520 c 0
 106 487 84 64 84 58 c 0
 84 23 108 0 148 0 c 2
 582 0 l 2
 631 0 662 27 669 75 c 2
EndSplineSet
EndChar

StartChar: abreve
Encoding: 259 259 230
Width: 1464
Flags: W
LayerCount: 2
Fore
SplineSet
1192 1803 m 0
 1195 1848 1166 1879 1121 1879 c 2
 982 1879 l 2
 928 1879 902 1856 893 1803 c 0
 883 1740 848 1701 732 1701 c 0
 616 1701 581 1740 571 1803 c 0
 562 1856 536 1879 482 1879 c 2
 343 1879 l 2
 298 1879 269 1848 272 1803 c 0
 287 1561 385 1398 732 1398 c 0
 1079 1398 1177 1561 1192 1803 c 0
771 680 m 2
 809 680 811 678 811 640 c 2
 811 267 l 2
 811 229 808 227 770 227 c 2
 745 227 l 2
 669 227 659 254 645 287 c 0
 633 315 629 365 629 418 c 0
 629 506 640 603 645 620 c 0
 656 660 694 680 735 680 c 2
 771 680 l 2
809 114 m 0
 820 136 827 145 831 145 c 0
 838 145 840 124 848 104 c 2
 862 69 l 2
 881 24 915 1 963 1 c 2
 1332 1 l 2
 1374 1 1397 23 1397 61 c 0
 1397 65 1397 71 1396 76 c 0
 1387 131 1382 192 1381 257 c 1
 1381 952 l 2
 1381 1303 1047 1327 740 1327 c 0
 503 1327 136 1304 136 1005 c 0
 136 985 137 967 139 948 c 0
 143 917 164 897 195 897 c 2
 199 897 l 1
 624 918 l 2
 672 920 672 923 672 971 c 2
 672 1046 l 2
 672 1084 674 1106 712 1106 c 2
 771 1106 l 2
 809 1106 811 1084 811 1046 c 2
 811 824 l 2
 811 823 796 823 770 823 c 0
 277 823 73 777 73 388 c 0
 73 107 209 -27 494 -27 c 0
 660 -27 768 33 809 114 c 0
EndSplineSet
EndChar

StartChar: Aogonek
Encoding: 260 260 231
Width: 1640
Flags: W
LayerCount: 2
Fore
SplineSet
945 -316 m 2
 945 -317 l 2
 945 -483 1068 -631 1275 -631 c 0
 1315 -631 1358 -625 1404 -613 c 0
 1448 -601 1476 -565 1476 -519 c 2
 1476 -346 l 2
 1476 -304 1452 -285 1411 -295 c 0
 1385 -301 1362 -304 1342 -304 c 0
 1255 -304 1217 -253 1217 -190 c 0
 1217 -138 1243 -78 1289 -32 c 0
 1313 -8 1313 14 1289 38 c 1
 1289 38 l 1
 1267 60 1238 65 1210 52 c 0
 1026 -36 945 -182 945 -316 c 2
902 614 m 2
 903 605 904 598 904 593 c 0
 904 577 897 575 869 575 c 2
 771 575 l 2
 743 575 735 577 735 594 c 0
 735 599 736 606 737 614 c 2
 785 1084 l 1
 807 1264 l 2
 808 1270 813 1272 818 1272 c 0
 823 1272 828 1270 828 1264 c 2
 852 1084 l 1
 902 614 l 2
669 74 m 2
 704 326 l 2
 710 364 704 365 743 365 c 2
 897 365 l 2
 936 365 930 364 936 326 c 2
 970 74 l 2
 977 26 1008 -1 1057 -1 c 2
 1492 -1 l 2
 1532 -1 1556 22 1556 57 c 0
 1556 62 1532 495 1325 1519 c 0
 1315 1568 1284 1594 1235 1594 c 2
 400 1594 l 2
 351 1594 320 1569 310 1519 c 0
 106 486 84 63 84 57 c 0
 84 22 108 -1 148 -1 c 2
 582 -1 l 2
 631 -1 662 26 669 74 c 2
EndSplineSet
EndChar

StartChar: aogonek
Encoding: 261 261 232
Width: 1464
Flags: W
LayerCount: 2
Fore
SplineSet
787 -316 m 2
 787 -317 l 2
 787 -483 910 -631 1117 -631 c 0
 1157 -631 1200 -625 1246 -613 c 0
 1290 -601 1318 -565 1318 -519 c 2
 1318 -346 l 2
 1318 -304 1294 -285 1253 -295 c 0
 1227 -301 1204 -304 1184 -304 c 0
 1097 -304 1059 -253 1059 -190 c 0
 1059 -138 1085 -78 1131 -32 c 0
 1155 -8 1155 14 1131 38 c 1
 1131 38 l 1
 1109 60 1080 65 1052 52 c 0
 868 -36 787 -182 787 -316 c 2
771 679 m 2
 809 679 811 677 811 639 c 2
 811 266 l 2
 811 228 808 226 770 226 c 2
 745 226 l 2
 669 226 659 253 645 286 c 0
 633 314 629 364 629 417 c 0
 629 505 640 602 645 619 c 0
 656 659 694 679 735 679 c 2
 771 679 l 2
809 113 m 0
 820 135 827 144 831 144 c 0
 838 144 840 123 848 103 c 2
 862 68 l 2
 881 23 915 0 963 0 c 2
 1332 0 l 2
 1374 0 1397 22 1397 60 c 0
 1397 64 1397 70 1396 75 c 0
 1387 130 1382 191 1381 256 c 1
 1381 951 l 2
 1381 1302 1047 1326 740 1326 c 0
 503 1326 136 1303 136 1004 c 0
 136 984 137 966 139 947 c 0
 143 916 164 896 195 896 c 2
 199 896 l 1
 624 917 l 2
 672 919 672 922 672 970 c 2
 672 1045 l 2
 672 1083 674 1105 712 1105 c 2
 771 1105 l 2
 809 1105 811 1083 811 1045 c 2
 811 823 l 2
 811 822 796 822 770 822 c 0
 277 822 73 776 73 387 c 0
 73 106 209 -28 494 -28 c 0
 660 -28 768 32 809 113 c 0
EndSplineSet
EndChar

StartChar: Cacute
Encoding: 262 262 233
Width: 1692
Flags: W
LayerCount: 2
Fore
SplineSet
443 1715 m 0
 443 1686 471 1666 506 1666 c 0
 516 1666 527 1667 538 1671 c 0
 743 1733 1030 1805 1134 1865 c 0
 1215 1912 1250 1982 1250 2047 c 0
 1250 2141 1179 2225 1076 2225 c 0
 1038 2225 996 2214 951 2188 c 0
 850 2130 640 1924 477 1775 c 0
 453 1754 443 1733 443 1715 c 0
982 568 m 0
 979 295 963 315 867 315 c 2
 831 315 l 2
 729 315 728 314 728 796 c 0
 728 1240 729 1282 831 1282 c 2
 867 1282 l 2
 964 1282 980 1267 982 1018 c 0
 982 970 1006 922 1092 922 c 2
 1490 922 l 2
 1562 922 1584 958 1584 1010 c 1
 1555 1603 1367 1631 844 1631 c 0
 243 1631 106 1568 106 805 c 0
 106 19 224 -39 844 -39 c 0
 1393 -39 1559 -29 1584 575 c 1
 1584 619 1564 670 1494 670 c 2
 1085 670 l 2
 1016 670 982 616 982 568 c 0
EndSplineSet
EndChar

StartChar: cacute
Encoding: 263 263 234
Width: 1525
Flags: W
LayerCount: 2
Fore
SplineSet
1421 792 m 0
 1421 845 1414 898 1404 952 c 0
 1338 1292 1083 1327 764 1327 c 0
 467 1327 163 1293 115 953 c 0
 100 848 102 743 102 641 c 0
 102 542 100 445 115 353 c 0
 175 -7 445 -27 763 -27 c 0
 1068 -27 1334 -12 1404 352 c 0
 1414 405 1420 454 1421 502 c 0
 1421 505 1419 524 1404 524 c 2
 878 524 l 2
 865 524 863 515 863 493 c 2
 863 393 l 2
 863 282 862 233 772 233 c 2
 746 233 l 2
 653 233 653 276 653 391 c 2
 653 955 l 2
 653 1073 653 1105 746 1105 c 2
 772 1105 l 2
 863 1105 863 1070 863 955 c 2
 863 801 l 2
 863 782 869 774 884 774 c 2
 1408 774 l 2
 1420 774 1421 784 1421 792 c 0
358 1539 m 0
 358 1510 386 1490 421 1490 c 0
 431 1490 442 1491 453 1495 c 0
 658 1557 945 1629 1049 1689 c 0
 1130 1736 1165 1806 1165 1871 c 0
 1165 1965 1094 2049 991 2049 c 0
 953 2049 911 2038 866 2012 c 0
 765 1954 555 1748 392 1599 c 0
 368 1578 358 1557 358 1539 c 0
EndSplineSet
EndChar

StartChar: Ccircumflex
Encoding: 264 264 235
Width: 1692
Flags: W
LayerCount: 2
Fore
SplineSet
423 1770 m 1
 422 1770 l 1
 422 1733 452 1708 488 1708 c 0
 505 1708 524 1714 542 1728 c 2
 798 1926 l 2
 829 1950 862 1950 893 1926 c 2
 1149 1728 l 2
 1168 1713 1188 1706 1206 1706 c 0
 1241 1706 1269 1732 1269 1769 c 0
 1269 1785 1263 1803 1251 1822 c 2
 988 2231 l 2
 955 2282 900 2303 847 2303 c 0
 792 2303 735 2279 704 2231 c 2
 441 1822 l 2
 429 1803 423 1785 423 1770 c 1
980 568 m 0
 977 295 961 315 865 315 c 2
 829 315 l 2
 727 315 726 314 726 796 c 0
 726 1240 727 1282 829 1282 c 2
 865 1282 l 2
 962 1282 978 1267 980 1018 c 0
 980 970 1004 922 1090 922 c 2
 1488 922 l 2
 1560 922 1582 958 1582 1010 c 1
 1553 1603 1365 1631 842 1631 c 0
 241 1631 104 1568 104 805 c 0
 104 19 222 -39 842 -39 c 0
 1391 -39 1557 -29 1582 575 c 1
 1582 619 1562 670 1492 670 c 2
 1083 670 l 2
 1014 670 980 616 980 568 c 0
EndSplineSet
EndChar

StartChar: ccircumflex
Encoding: 265 265 236
Width: 1525
Flags: W
LayerCount: 2
Fore
SplineSet
340 1475 m 1
 339 1475 l 1
 339 1438 369 1413 405 1413 c 0
 422 1413 441 1419 459 1433 c 2
 715 1631 l 2
 746 1655 779 1655 810 1631 c 2
 1066 1433 l 2
 1085 1418 1105 1411 1123 1411 c 0
 1158 1411 1186 1437 1186 1474 c 0
 1186 1490 1180 1508 1168 1527 c 2
 905 1936 l 2
 872 1987 817 2008 764 2008 c 0
 709 2008 652 1984 621 1936 c 2
 358 1527 l 2
 346 1508 340 1490 340 1475 c 1
1420 792 m 0
 1420 845 1413 898 1403 952 c 0
 1337 1292 1082 1327 763 1327 c 0
 466 1327 162 1293 114 953 c 0
 99 848 101 743 101 641 c 0
 101 542 99 445 114 353 c 0
 174 -7 444 -27 762 -27 c 0
 1067 -27 1333 -12 1403 352 c 0
 1413 405 1419 454 1420 502 c 0
 1420 505 1418 524 1403 524 c 2
 877 524 l 2
 864 524 862 515 862 493 c 2
 862 393 l 2
 862 282 861 233 771 233 c 2
 745 233 l 2
 652 233 652 276 652 391 c 2
 652 955 l 2
 652 1073 652 1105 745 1105 c 2
 771 1105 l 2
 862 1105 862 1070 862 955 c 2
 862 801 l 2
 862 782 868 774 883 774 c 2
 1407 774 l 2
 1419 774 1420 784 1420 792 c 0
EndSplineSet
EndChar

StartChar: Cdotaccent
Encoding: 266 266 237
Width: 1692
Flags: W
LayerCount: 2
Fore
SplineSet
846 256 m 0
 948 256 1050 326 1050 466 c 0
 1050 606 948 676 846 676 c 0
 744 676 642 606 642 466 c 0
 642 326 744 256 846 256 c 0
981 568 m 0
 978 295 962 315 866 315 c 2
 830 315 l 2
 728 315 727 314 727 796 c 0
 727 1240 728 1282 830 1282 c 2
 866 1282 l 2
 963 1282 979 1267 981 1018 c 0
 981 970 1005 922 1091 922 c 2
 1489 922 l 2
 1561 922 1583 958 1583 1010 c 1
 1554 1603 1366 1631 843 1631 c 0
 242 1631 105 1568 105 805 c 0
 105 19 223 -39 843 -39 c 0
 1392 -39 1558 -29 1583 575 c 1
 1583 619 1563 670 1493 670 c 2
 1084 670 l 2
 1015 670 981 616 981 568 c 0
EndSplineSet
EndChar

StartChar: cdotaccent
Encoding: 267 267 238
Width: 1525
Flags: W
LayerCount: 2
Fore
SplineSet
763 -39 m 0
 865 -39 967 31 967 171 c 0
 967 311 865 381 763 381 c 0
 661 381 559 311 559 171 c 0
 559 31 661 -39 763 -39 c 0
1421 792 m 0
 1421 845 1414 898 1404 952 c 0
 1338 1292 1083 1327 764 1327 c 0
 467 1327 163 1293 115 953 c 0
 100 848 102 743 102 641 c 0
 102 542 100 445 115 353 c 0
 175 -7 445 -27 763 -27 c 0
 1068 -27 1334 -12 1404 352 c 0
 1414 405 1420 454 1421 502 c 0
 1421 505 1419 524 1404 524 c 2
 878 524 l 2
 865 524 863 515 863 493 c 2
 863 393 l 2
 863 282 862 233 772 233 c 2
 746 233 l 2
 653 233 653 276 653 391 c 2
 653 955 l 2
 653 1073 653 1105 746 1105 c 2
 772 1105 l 2
 863 1105 863 1070 863 955 c 2
 863 801 l 2
 863 782 869 774 884 774 c 2
 1408 774 l 2
 1420 774 1421 784 1421 792 c 0
EndSplineSet
EndChar

StartChar: Ccaron
Encoding: 268 268 239
Width: 1692
Flags: W
LayerCount: 2
Fore
SplineSet
847 1706 m 2
 848 1706 l 2
 901 1706 956 1727 989 1778 c 2
 1252 2187 l 2
 1264 2206 1270 2224 1270 2240 c 0
 1270 2277 1242 2303 1207 2303 c 0
 1189 2303 1169 2296 1150 2281 c 2
 894 2083 l 2
 863 2059 830 2059 799 2083 c 2
 543 2281 l 2
 525 2295 506 2301 489 2301 c 0
 453 2301 423 2276 423 2239 c 0
 423 2224 429 2206 441 2187 c 2
 704 1778 l 2
 735 1730 792 1706 847 1706 c 2
982 568 m 0
 979 295 963 315 867 315 c 2
 831 315 l 2
 729 315 728 314 728 796 c 0
 728 1240 729 1282 831 1282 c 2
 867 1282 l 2
 964 1282 980 1267 982 1018 c 0
 982 970 1006 922 1092 922 c 2
 1490 922 l 2
 1562 922 1584 958 1584 1010 c 1
 1555 1603 1367 1631 844 1631 c 0
 243 1631 106 1568 106 805 c 0
 106 19 224 -39 844 -39 c 0
 1393 -39 1559 -29 1584 575 c 1
 1584 619 1564 670 1494 670 c 2
 1085 670 l 2
 1016 670 982 616 982 568 c 0
EndSplineSet
EndChar

StartChar: ccaron
Encoding: 269 269 240
Width: 1525
Flags: W
LayerCount: 2
Fore
SplineSet
764 1411 m 2
 765 1411 l 2
 818 1411 873 1432 906 1483 c 2
 1169 1892 l 2
 1181 1911 1187 1929 1187 1945 c 0
 1187 1982 1159 2008 1124 2008 c 0
 1106 2008 1086 2001 1067 1986 c 2
 811 1788 l 2
 780 1764 747 1764 716 1788 c 2
 460 1986 l 2
 442 2000 423 2006 406 2006 c 0
 370 2006 340 1981 340 1944 c 0
 340 1929 346 1911 358 1892 c 2
 621 1483 l 2
 652 1435 709 1411 764 1411 c 2
1422 792 m 0
 1422 845 1415 898 1405 952 c 0
 1339 1292 1084 1327 765 1327 c 0
 468 1327 164 1293 116 953 c 0
 101 848 103 743 103 641 c 0
 103 542 101 445 116 353 c 0
 176 -7 446 -27 764 -27 c 0
 1069 -27 1335 -12 1405 352 c 0
 1415 405 1421 454 1422 502 c 0
 1422 505 1420 524 1405 524 c 2
 879 524 l 2
 866 524 864 515 864 493 c 2
 864 393 l 2
 864 282 863 233 773 233 c 2
 747 233 l 2
 654 233 654 276 654 391 c 2
 654 955 l 2
 654 1073 654 1105 747 1105 c 2
 773 1105 l 2
 864 1105 864 1070 864 955 c 2
 864 801 l 2
 864 782 870 774 885 774 c 2
 1409 774 l 2
 1421 774 1422 784 1422 792 c 0
EndSplineSet
EndChar

StartChar: Dcaron
Encoding: 270 270 241
Width: 1751
Flags: W
LayerCount: 2
Fore
SplineSet
877 1706 m 2
 878 1706 l 2
 931 1706 986 1727 1019 1778 c 2
 1282 2187 l 2
 1294 2206 1300 2224 1300 2240 c 0
 1300 2277 1272 2303 1237 2303 c 0
 1219 2303 1199 2296 1180 2281 c 2
 924 2083 l 2
 893 2059 860 2059 829 2083 c 2
 573 2281 l 2
 555 2295 536 2301 519 2301 c 0
 483 2301 453 2276 453 2239 c 0
 453 2224 459 2206 471 2187 c 2
 734 1778 l 2
 765 1730 822 1706 877 1706 c 2
775 1242 m 2
 775 1280 777 1282 815 1282 c 2
 910 1282 l 2
 948 1282 1002 1259 1007 1222 c 0
 1023 1117 1031 962 1031 804 c 0
 1031 649 1023 491 1007 374 c 0
 1002 338 948 314 910 314 c 2
 815 314 l 2
 777 314 775 316 775 354 c 2
 775 1242 l 2
241 1595 m 2
 193 1595 169 1567 165 1519 c 0
 142 1259 141 1018 141 783 c 0
 141 547 142 316 165 76 c 0
 170 29 193 0 241 0 c 2
 984 0 l 2
 1295 0 1557 34 1610 393 c 0
 1629 519 1638 657 1638 797 c 0
 1638 936 1629 1076 1610 1204 c 0
 1560 1549 1300 1595 984 1595 c 2
 241 1595 l 2
EndSplineSet
EndChar

StartChar: dcaron
Encoding: 271 271 242
Width: 1478
Flags: W
LayerCount: 2
Fore
SplineSet
1668 1316 m 1
 1669 1317 l 1
 1705 1302 1714 1246 1685 1220 c 0
 1668 1205 1647 1194 1623 1187 c 0
 1583 1176 1570 1159 1570 1119 c 2
 1570 1091 l 2
 1570 1078 1578 1069 1591 1068 c 0
 1599 1067 1607 1067 1614 1067 c 0
 1835 1067 1961 1286 1961 1470 c 0
 1961 1599 1895 1710 1751 1710 c 0
 1649 1710 1547 1643 1547 1510 c 0
 1547 1409 1600 1344 1668 1316 c 1
86 941 m 2
 86 379 l 2
 86 108 225 -25 503 -25 c 0
 623 -25 730 11 799 72 c 0
 824 95 847 89 857 57 c 0
 869 21 895 2 933 2 c 2
 1318 2 l 2
 1365 2 1393 30 1393 77 c 2
 1393 1635 l 2
 1393 1682 1365 1710 1318 1710 c 2
 899 1710 l 2
 852 1710 824 1682 824 1635 c 2
 824 1278 l 2
 824 1248 804 1238 780 1256 c 0
 714 1305 622 1328 501 1328 c 0
 229 1328 86 1204 86 941 c 2
823 261 m 2
 823 224 801 202 764 202 c 2
 716 202 l 2
 679 202 657 224 657 261 c 2
 657 1048 l 2
 657 1085 679 1107 716 1107 c 2
 764 1107 l 2
 801 1107 823 1085 823 1048 c 2
 823 261 l 2
EndSplineSet
EndChar

StartChar: Dcroat
Encoding: 272 272 243
Width: 1449
Flags: W
LayerCount: 2
Fore
SplineSet
645 1298 m 1
 645 1299 l 2
 645 1336 667 1358 704 1358 c 2
 821 1358 l 2
 858 1358 880 1336 880 1299 c 2
 880 297 l 2
 880 260 858 238 821 238 c 2
 704 238 l 2
 667 238 645 260 645 297 c 2
 645 726 l 1
 703 726 l 2
 747 726 773 752 773 796 c 2
 773 798 l 2
 773 842 747 868 703 868 c 2
 645 868 l 1
 645 1298 l 1
1378 1205 m 1
 1378 1203 l 2
 1378 1230 1377 1258 1375 1288 c 0
 1368 1411 1305 1483 1211 1528 c 0
 1110 1577 980 1594 817 1594 c 2
 222 1594 l 2
 175 1594 147 1566 147 1519 c 2
 147 868 l 1
 123 868 l 2
 79 868 53 842 53 798 c 2
 53 796 l 2
 53 752 79 726 123 726 c 2
 147 726 l 1
 147 76 l 2
 147 29 175 1 222 1 c 2
 817 1 l 2
 980 1 1110 18 1210 67 c 0
 1331 126 1376 219 1376 393 c 1
 1376 393 l 1
 1378 394 l 1
 1378 394 l 1
 1378 1205 l 1
EndSplineSet
EndChar

StartChar: dcroat
Encoding: 273 273 244
Width: 1478
Flags: W
LayerCount: 2
Fore
SplineSet
85 940 m 2
 85 377 l 2
 85 106 224 -27 502 -27 c 0
 622 -27 773 18 834 75 c 0
 846 87 848 90 856 56 c 0
 866 12 894 0 933 0 c 2
 1318 0 l 2
 1366 0 1394 28 1394 76 c 2
 1394 1407 l 1
 1422 1407 l 2
 1470 1407 1478 1435 1478 1483 c 2
 1478 1521 l 2
 1478 1569 1470 1597 1422 1597 c 2
 1394 1597 l 1
 1394 1654 l 2
 1394 1702 1366 1710 1318 1710 c 2
 899 1710 l 2
 851 1710 823 1702 823 1654 c 2
 823 1597 l 1
 699 1597 l 2
 651 1597 645 1569 645 1521 c 2
 645 1483 l 2
 645 1435 651 1407 699 1407 c 2
 823 1407 l 1
 823 1278 l 2
 823 1248 823 1228 799 1245 c 0
 733 1294 621 1327 500 1327 c 0
 228 1327 85 1203 85 940 c 2
822 259 m 2
 822 221 800 199 762 199 c 2
 715 199 l 2
 677 199 655 221 655 259 c 2
 655 1045 l 2
 655 1083 677 1105 715 1105 c 2
 762 1105 l 2
 800 1105 822 1083 822 1045 c 2
 822 259 l 2
EndSplineSet
EndChar

StartChar: Emacron
Encoding: 274 274 245
Width: 1191
Flags: W
LayerCount: 2
Fore
SplineSet
255 1192 m 2
 208 1192 180 1164 180 1117 c 2
 180 1038 l 2
 180 991 208 963 255 963 c 2
 936 963 l 2
 983 963 1011 991 1011 1038 c 2
 1011 1117 l 2
 1011 1164 983 1192 936 1192 c 2
 255 1192 l 2
235 1595 m 2
 187 1595 162 1565 159 1519 c 0
 148 1366 140 1112 140 836 c 0
 140 581 147 307 159 76 c 0
 162 28 187 0 235 0 c 2
 1037 0 l 2
 1085 0 1113 28 1113 76 c 2
 1113 175 l 2
 1113 223 1085 251 1037 251 c 2
 832 251 l 2
 794 251 772 273 772 311 c 2
 772 651 l 2
 772 689 794 711 832 711 c 2
 1014 711 l 2
 1062 711 1090 739 1090 787 c 2
 1090 885 l 2
 1090 933 1062 961 1014 961 c 2
 832 961 l 2
 794 961 772 983 772 1021 c 2
 772 1286 l 2
 772 1324 794 1346 832 1346 c 2
 1037 1346 l 2
 1085 1346 1113 1374 1113 1422 c 2
 1113 1519 l 2
 1113 1567 1085 1595 1037 1595 c 2
 235 1595 l 2
EndSplineSet
EndChar

StartChar: emacron
Encoding: 275 275 246
Width: 1513
Flags: W
LayerCount: 2
Fore
SplineSet
416 897 m 2
 369 897 341 869 341 822 c 2
 341 743 l 2
 341 696 369 668 416 668 c 2
 1097 668 l 2
 1144 668 1172 696 1172 743 c 2
 1172 822 l 2
 1172 869 1144 897 1097 897 c 2
 416 897 l 2
504 945 m 2
 504 1023 516 1105 634 1105 c 2
 879 1105 l 2
 987 1105 1013 1023 1013 945 c 2
 1013 817 l 2
 1013 779 1011 777 973 777 c 2
 544 777 l 2
 506 777 504 779 504 817 c 2
 504 945 l 2
783 -27 m 0
 1245 -27 1284 136 1301 272 c 0
 1306 313 1306 353 1305 372 c 0
 1302 403 1301 409 1270 409 c 2
 1058 409 l 2
 1014 409 1012 401 1012 353 c 0
 1012 255 990 195 872 195 c 2
 664 195 l 2
 532 195 504 256 504 374 c 2
 504 564 l 2
 504 602 506 604 544 604 c 2
 1251 604 l 2
 1299 604 1319 632 1327 680 c 0
 1334 723 1331 782 1326 835 c 0
 1294 1185 1241 1327 781 1327 c 0
 365 1327 253 1240 203 983 c 0
 189 912 184 773 184 658 c 0
 184 545 188 381 208 303 c 0
 260 97 289 -27 783 -27 c 0
EndSplineSet
EndChar

StartChar: Eogonek
Encoding: 280 280 247
Width: 1191
Flags: W
LayerCount: 2
Fore
SplineSet
541 -316 m 2
 541 -317 l 2
 541 -483 664 -631 871 -631 c 0
 911 -631 954 -625 1000 -613 c 0
 1044 -601 1072 -565 1072 -519 c 2
 1072 -346 l 2
 1072 -304 1048 -285 1007 -295 c 0
 981 -301 958 -304 938 -304 c 0
 851 -304 813 -253 813 -190 c 0
 813 -138 839 -78 885 -32 c 0
 909 -8 909 14 885 38 c 1
 885 38 l 1
 863 60 834 65 806 52 c 0
 622 -36 541 -182 541 -316 c 2
235 1594 m 2
 187 1594 162 1564 159 1518 c 0
 148 1365 140 1111 140 835 c 0
 140 580 147 306 159 75 c 0
 162 27 187 -1 235 -1 c 2
 1037 -1 l 2
 1085 -1 1113 27 1113 75 c 2
 1113 174 l 2
 1113 222 1085 250 1037 250 c 2
 832 250 l 2
 794 250 772 272 772 310 c 2
 772 650 l 2
 772 688 794 710 832 710 c 2
 1014 710 l 2
 1062 710 1090 738 1090 786 c 2
 1090 884 l 2
 1090 932 1062 960 1014 960 c 2
 832 960 l 2
 794 960 772 982 772 1020 c 2
 772 1285 l 2
 772 1323 794 1345 832 1345 c 2
 1037 1345 l 2
 1085 1345 1113 1373 1113 1421 c 2
 1113 1518 l 2
 1113 1566 1085 1594 1037 1594 c 2
 235 1594 l 2
EndSplineSet
EndChar

StartChar: eogonek
Encoding: 281 281 248
Width: 1513
Flags: W
LayerCount: 2
Fore
SplineSet
831 -316 m 2
 831 -317 l 2
 831 -483 954 -631 1161 -631 c 0
 1201 -631 1244 -625 1290 -613 c 0
 1334 -601 1362 -565 1362 -519 c 2
 1362 -346 l 2
 1362 -304 1338 -285 1297 -295 c 0
 1271 -301 1248 -304 1228 -304 c 0
 1141 -304 1103 -253 1103 -190 c 0
 1103 -138 1129 -78 1175 -32 c 0
 1199 -8 1199 14 1175 38 c 1
 1175 38 l 1
 1153 60 1124 65 1096 52 c 0
 912 -36 831 -182 831 -316 c 2
504 944 m 2
 504 1022 516 1104 634 1104 c 2
 879 1104 l 2
 987 1104 1013 1022 1013 944 c 2
 1013 816 l 2
 1013 778 1011 776 973 776 c 2
 544 776 l 2
 506 776 504 778 504 816 c 2
 504 944 l 2
783 -28 m 0
 1245 -28 1284 135 1301 271 c 0
 1306 312 1306 352 1305 371 c 0
 1302 402 1301 408 1270 408 c 2
 1058 408 l 2
 1014 408 1012 400 1012 352 c 0
 1012 254 990 194 872 194 c 2
 664 194 l 2
 532 194 504 255 504 373 c 2
 504 563 l 2
 504 601 506 603 544 603 c 2
 1251 603 l 2
 1299 603 1319 631 1327 679 c 0
 1334 722 1331 781 1326 834 c 0
 1294 1184 1241 1326 781 1326 c 0
 365 1326 253 1239 203 982 c 0
 189 911 184 772 184 657 c 0
 184 544 188 380 208 302 c 0
 260 96 289 -28 783 -28 c 0
EndSplineSet
EndChar

StartChar: Ecaron
Encoding: 282 282 249
Width: 1191
Flags: W
LayerCount: 2
Fore
SplineSet
597 1706 m 2
 598 1706 l 2
 651 1706 706 1727 739 1778 c 2
 1002 2187 l 2
 1014 2206 1020 2224 1020 2240 c 0
 1020 2277 992 2303 957 2303 c 0
 939 2303 919 2296 900 2281 c 2
 644 2083 l 2
 613 2059 580 2059 549 2083 c 2
 293 2281 l 2
 275 2295 256 2301 239 2301 c 0
 203 2301 173 2276 173 2239 c 0
 173 2224 179 2206 191 2187 c 2
 454 1778 l 2
 485 1730 542 1706 597 1706 c 2
236 1595 m 2
 188 1595 163 1565 160 1519 c 0
 149 1366 141 1112 141 836 c 0
 141 581 148 307 160 76 c 0
 163 28 188 0 236 0 c 2
 1038 0 l 2
 1086 0 1114 28 1114 76 c 2
 1114 175 l 2
 1114 223 1086 251 1038 251 c 2
 833 251 l 2
 795 251 773 273 773 311 c 2
 773 651 l 2
 773 689 795 711 833 711 c 2
 1015 711 l 2
 1063 711 1091 739 1091 787 c 2
 1091 885 l 2
 1091 933 1063 961 1015 961 c 2
 833 961 l 2
 795 961 773 983 773 1021 c 2
 773 1286 l 2
 773 1324 795 1346 833 1346 c 2
 1038 1346 l 2
 1086 1346 1114 1374 1114 1422 c 2
 1114 1519 l 2
 1114 1567 1086 1595 1038 1595 c 2
 236 1595 l 2
EndSplineSet
EndChar

StartChar: ecaron
Encoding: 283 283 250
Width: 1513
Flags: W
LayerCount: 2
Fore
SplineSet
504 945 m 2
 504 1023 516 1105 634 1105 c 2
 879 1105 l 2
 987 1105 1013 1023 1013 945 c 2
 1013 817 l 2
 1013 779 1011 777 973 777 c 2
 544 777 l 2
 506 777 504 779 504 817 c 2
 504 945 l 2
783 -27 m 0
 1245 -27 1284 136 1301 272 c 0
 1306 313 1306 353 1305 372 c 0
 1302 403 1301 409 1270 409 c 2
 1058 409 l 2
 1014 409 1012 401 1012 353 c 0
 1012 255 990 195 872 195 c 2
 664 195 l 2
 532 195 504 256 504 374 c 2
 504 564 l 2
 504 602 506 604 544 604 c 2
 1251 604 l 2
 1299 604 1319 632 1327 680 c 0
 1334 723 1331 782 1326 835 c 0
 1294 1185 1241 1327 781 1327 c 0
 365 1327 253 1240 203 983 c 0
 189 912 184 773 184 658 c 0
 184 545 188 381 208 303 c 0
 260 97 289 -27 783 -27 c 0
759 1490 m 2
 760 1490 l 2
 813 1490 868 1511 901 1562 c 2
 1164 1971 l 2
 1176 1990 1182 2008 1182 2024 c 0
 1182 2061 1154 2087 1119 2087 c 0
 1101 2087 1081 2080 1062 2065 c 2
 806 1867 l 2
 775 1843 742 1843 711 1867 c 2
 455 2065 l 2
 437 2079 418 2085 401 2085 c 0
 365 2085 335 2060 335 2023 c 0
 335 2008 341 1990 353 1971 c 2
 616 1562 l 2
 647 1514 704 1490 759 1490 c 2
EndSplineSet
EndChar

StartChar: Gcircumflex
Encoding: 284 284 251
Width: 1695
Flags: W
LayerCount: 2
Fore
SplineSet
425 1770 m 1
 424 1770 l 1
 424 1733 454 1708 490 1708 c 0
 507 1708 526 1714 544 1728 c 2
 800 1926 l 2
 831 1950 864 1950 895 1926 c 2
 1151 1728 l 2
 1170 1713 1190 1706 1208 1706 c 0
 1243 1706 1271 1732 1271 1769 c 0
 1271 1785 1265 1803 1253 1822 c 2
 990 2231 l 2
 957 2282 902 2303 849 2303 c 0
 794 2303 737 2279 706 2231 c 2
 443 1822 l 2
 431 1803 425 1785 425 1770 c 1
1443 0 m 2
 1477 -31 1589 28 1589 76 c 2
 1589 730 l 2
 1589 778 1561 806 1513 806 c 2
 975 806 l 2
 927 806 899 778 899 730 c 2
 899 617 l 2
 899 591 915 575 941 575 c 2
 943 575 l 1
 1024 575 l 2
 1073 575 1074 557 1074 534 c 2
 1074 393 l 1
 1069 339 1051 315 994 315 c 2
 838 315 l 2
 736 315 735 314 735 796 c 0
 735 1280 736 1282 838 1282 c 2
 904 1282 l 2
 979 1282 987 1277 989 998 c 0
 989 950 1013 922 1059 922 c 2
 1527 922 l 2
 1569 922 1591 958 1591 1010 c 1
 1562 1603 1374 1631 851 1631 c 0
 250 1631 113 1568 113 805 c 0
 113 69 231 -39 851 -39 c 0
 1142 -39 1278 35 1325 110 c 1
 1443 0 l 2
EndSplineSet
EndChar

StartChar: gcircumflex
Encoding: 285 285 252
Width: 1553
Flags: W
LayerCount: 2
Fore
SplineSet
863 376 m 2
 863 338 841 316 803 316 c 2
 725 316 l 2
 687 316 655 338 655 376 c 2
 655 1044 l 2
 655 1082 687 1104 725 1104 c 2
 803 1104 l 2
 841 1104 863 1082 863 1044 c 2
 863 376 l 2
102 705 m 0
 102 620 105 535 111 482 c 0
 141 216 274 91 545 91 c 0
 657 91 764 113 833 164 c 0
 846 173 857 186 865 186 c 0
 872 186 876 175 876 142 c 0
 876 -2 833 -48 641 -59 c 0
 628 -60 615 -60 601 -60 c 0
 521 -60 437 -48 369 -36 c 0
 362 -35 355 -34 349 -34 c 0
 311 -34 288 -56 280 -98 c 2
 252 -238 l 2
 251 -245 250 -251 250 -257 c 0
 250 -294 273 -321 312 -330 c 0
 421 -354 553 -372 715 -372 c 0
 1207 -372 1391 -281 1434 136 c 0
 1446 251 1451 413 1451 587 c 0
 1451 803 1443 1037 1434 1223 c 0
 1432 1270 1406 1299 1358 1299 c 2
 961 1299 l 2
 923 1299 917 1280 905 1244 c 1
 906 1245 l 1
 901 1211 895 1198 887 1198 c 0
 878 1198 867 1212 848 1230 c 0
 780 1293 677 1326 548 1327 c 1
 271 1327 142 1194 111 927 c 0
 105 875 102 790 102 705 c 0
354 1554 m 1
 353 1554 l 1
 353 1517 383 1492 419 1492 c 0
 436 1492 455 1498 473 1512 c 2
 729 1710 l 2
 760 1734 793 1734 824 1710 c 2
 1080 1512 l 2
 1099 1497 1119 1490 1137 1490 c 0
 1172 1490 1200 1516 1200 1553 c 0
 1200 1569 1194 1587 1182 1606 c 2
 919 2015 l 2
 886 2066 831 2087 778 2087 c 0
 723 2087 666 2063 635 2015 c 2
 372 1606 l 2
 360 1587 354 1569 354 1554 c 1
EndSplineSet
EndChar

StartChar: Gbreve
Encoding: 286 286 253
Width: 1695
Flags: W
LayerCount: 2
Fore
SplineSet
1308 2098 m 0
 1311 2143 1282 2174 1237 2174 c 2
 1098 2174 l 2
 1044 2174 1018 2151 1009 2098 c 0
 999 2035 964 1996 848 1996 c 0
 732 1996 697 2035 687 2098 c 0
 678 2151 652 2174 598 2174 c 2
 459 2174 l 2
 414 2174 385 2143 388 2098 c 0
 403 1856 501 1693 848 1693 c 0
 1195 1693 1293 1856 1308 2098 c 0
1444 0 m 2
 1478 -31 1590 28 1590 76 c 2
 1590 730 l 2
 1590 778 1562 806 1514 806 c 2
 976 806 l 2
 928 806 900 778 900 730 c 2
 900 617 l 2
 900 591 916 575 942 575 c 2
 944 575 l 1
 1025 575 l 2
 1074 575 1075 557 1075 534 c 2
 1075 393 l 1
 1070 339 1052 315 995 315 c 2
 839 315 l 2
 737 315 736 314 736 796 c 0
 736 1280 737 1282 839 1282 c 2
 905 1282 l 2
 980 1282 988 1277 990 998 c 0
 990 950 1014 922 1060 922 c 2
 1528 922 l 2
 1570 922 1592 958 1592 1010 c 1
 1563 1603 1375 1631 852 1631 c 0
 251 1631 114 1568 114 805 c 0
 114 69 232 -39 852 -39 c 0
 1143 -39 1279 35 1326 110 c 1
 1444 0 l 2
EndSplineSet
EndChar

